<svg width="28" height="28" viewBox="0 0 28 28" fill="none" xmlns="http://www.w3.org/2000/svg">
<path fill-rule="evenodd" clip-rule="evenodd" d="M25.8595 20.371H27.9727V18.5078L23.9827 13.4541H19.6202V23.8715H20.0156C20.0156 22.033 21.507 20.5433 23.3455 20.5433C25.1841 20.5433 26.6738 22.033 26.6738 23.8715H27.9727V21.2733H25.8595C25.6102 21.2733 25.4084 21.0704 25.4084 20.8222C25.4089 20.5728 25.6102 20.371 25.8595 20.371ZM20.3317 19.0689V15.0679H23.2012L26.3588 19.0689H20.3317ZM0.0273438 23.8715H1.92773C1.92773 22.033 3.41906 20.5433 5.25766 20.5433C7.09625 20.5433 8.58758 22.033 8.58758 23.8715H18.7179V10.0017H0.0273438V23.8715ZM9.3718 12.8033C11.649 12.8033 13.5062 14.6605 13.5062 16.9377C13.5062 19.2133 11.649 21.0704 9.3718 21.0704C7.09625 21.0704 5.23906 19.2133 5.23906 16.9377C5.23906 14.6605 7.09625 12.8033 9.3718 12.8033ZM23.3455 21.444C22.0079 21.444 20.918 22.5355 20.918 23.8715C20.918 25.2092 22.0079 26.2991 23.3455 26.2991C24.6821 26.2991 25.7731 25.2092 25.7731 23.8715C25.7731 22.5355 24.6816 21.444 23.3455 21.444ZM23.3483 24.3227H23.3423C23.0929 24.3227 22.8911 24.1209 22.8911 23.8715C22.8911 23.6233 23.0929 23.422 23.3423 23.422H23.3483C23.5966 23.422 23.7978 23.6238 23.7978 23.8715C23.7978 24.1209 23.5966 24.3227 23.3483 24.3227ZM5.25766 21.444C3.92 21.444 2.83008 22.5355 2.83008 23.8715C2.83008 25.2092 3.92 26.2991 5.25766 26.2991C6.59531 26.2991 7.68523 25.2092 7.68523 23.8715C7.68523 22.5355 6.59531 21.444 5.25766 21.444ZM5.26094 24.3227H5.25492C5.00664 24.3227 4.80375 24.1209 4.80375 23.8715C4.80375 23.6233 5.00664 23.422 5.25492 23.422H5.26094C5.50922 23.422 5.71211 23.6238 5.71211 23.8715C5.71211 24.1209 5.50867 24.3227 5.26094 24.3227ZM8.35352 16.9716C8.09758 16.7157 7.93789 16.3608 7.93789 15.9703C7.93789 15.5815 8.09758 15.226 8.35352 14.969C8.51156 14.8126 8.7057 14.6917 8.92227 14.6217V14.1394C8.92227 13.89 9.12406 13.6882 9.3718 13.6882C9.62117 13.6882 9.82297 13.89 9.82297 14.1394V14.5752C9.96078 14.5998 10.0926 14.6452 10.2151 14.707C10.4136 14.8076 10.5853 14.9537 10.7171 15.1303C10.8642 15.3305 10.8227 15.611 10.6241 15.7597C10.424 15.9069 10.1418 15.8653 9.99469 15.6651C9.94656 15.6001 9.88313 15.5459 9.81039 15.5104C9.74203 15.4748 9.66328 15.4562 9.57961 15.4562H9.35484C9.21375 15.4562 9.08523 15.5137 8.99227 15.6083C8.89766 15.7012 8.84023 15.8297 8.84023 15.9708C8.84023 16.1119 8.89766 16.2405 8.99227 16.3351C9.08523 16.428 9.21375 16.4871 9.35484 16.4871H9.39039H9.46641C9.50031 16.4871 9.53477 16.4904 9.56703 16.498C9.88641 16.5385 10.173 16.6856 10.3901 16.9027C10.6477 17.1603 10.8068 17.5136 10.8068 17.904C10.8068 18.2945 10.6471 18.6483 10.3901 18.9054C10.2337 19.0618 10.0395 19.1826 9.82242 19.2526V19.735C9.82242 19.9844 9.62063 20.1862 9.37125 20.1862C9.12297 20.1862 8.92172 19.9844 8.92172 19.735V19.2991C8.78391 19.2745 8.65211 19.2308 8.52961 19.169C8.33109 19.0683 8.15937 18.9207 8.02758 18.744C7.88047 18.5439 7.92203 18.2633 8.12055 18.1162C8.3207 17.9675 8.60125 18.009 8.75 18.2092C8.79813 18.2743 8.86156 18.3284 8.9343 18.3656C9.00266 18.3995 9.08141 18.4197 9.16508 18.4197H9.38984C9.53094 18.4197 9.65945 18.3607 9.75242 18.2677C9.84703 18.1731 9.90445 18.0446 9.90445 17.9035C9.90445 17.7624 9.84703 17.6339 9.75242 17.5393C9.65945 17.4463 9.53094 17.3872 9.38984 17.3872H9.3543H9.27664C9.24273 17.3872 9.20992 17.384 9.17766 17.3763C8.85883 17.3358 8.57172 17.1887 8.35352 16.9716ZM12.5885 6.31248H2.84375V3.71428H12.5885V1.70068L15.9015 5.01365L12.5885 8.32662V6.31248Z" fill="white"/>
</svg>
