<svg width="28" height="28" viewBox="0 0 28 28" fill="none" xmlns="http://www.w3.org/2000/svg">
<path d="M7.66668 24.767C8.71607 24.767 9.56676 23.9163 9.56676 22.8669C9.56676 21.8175 8.71607 20.9668 7.66668 20.9668C6.6173 20.9668 5.7666 21.8175 5.7666 22.8669C5.7666 23.9163 6.6173 24.767 7.66668 24.767Z" fill="white"/>
<path d="M22.8668 24.767C23.9162 24.767 24.7669 23.9163 24.7669 22.8669C24.7669 21.8175 23.9162 20.9668 22.8668 20.9668C21.8174 20.9668 20.9667 21.8175 20.9667 22.8669C20.9667 23.9163 21.8174 24.767 22.8668 24.767Z" fill="white"/>
<path fill-rule="evenodd" clip-rule="evenodd" d="M10.77 22.2334H17.1667V5.1334C17.1667 4.62927 16.9665 4.14604 16.61 3.7901C16.254 3.43354 15.7708 3.2334 15.2667 3.2334H2.60001C2.09588 3.2334 1.61264 3.43354 1.25671 3.7901C0.900142 4.14604 0.700012 4.62927 0.700012 5.1334V20.3334C0.700012 20.8375 0.900142 21.3208 1.25671 21.6767C1.61264 22.0333 2.09588 22.2334 2.60001 22.2334H4.56335C4.85721 20.7888 6.13591 19.7001 7.66668 19.7001C9.19745 19.7001 10.4761 20.7888 10.77 22.2334Z" fill="white"/>
<path fill-rule="evenodd" clip-rule="evenodd" d="M25.97 22.2334H26.6667C27.0163 22.2334 27.3 21.9496 27.3 21.6V13.7828C27.3 13.2787 27.0999 12.7954 26.7433 12.4395C25.7838 11.4794 24.1207 9.81626 23.1606 8.85675C22.8046 8.50019 22.3214 8.30005 21.8172 8.30005H18.4333V22.2334H19.7634C20.0572 20.7887 21.3359 19.7 22.8667 19.7C24.3975 19.7 25.6762 20.7887 25.97 22.2334ZM20.9667 10.8334H21.3378L24.7667 14.2622V15.9H20.9667V10.8334Z" fill="white"/>
</svg>
