<svg width="367" height="160" viewBox="0 0 367 160" fill="none" xmlns="http://www.w3.org/2000/svg">
<rect width="267" height="160" fill="#FA6444"/>
<path fill-rule="evenodd" clip-rule="evenodd" d="M196.643 99.333C196.686 99.5591 196.725 99.7865 196.759 100.013L208.438 101.652L218.845 100.091C218.992 99.9277 219.091 99.766 219.153 99.5677C219.194 99.4391 219.221 99.2926 219.238 99.1183C219.039 99.2429 218.757 99.3377 218.354 99.4113L210.22 100.895C209.038 101.11 208.638 101.069 207.532 100.932C206.724 100.832 205.563 100.678 204.347 100.511C201.871 100.172 199.161 99.7812 198.724 99.6944C197.422 99.4345 197.183 99.4404 196.643 99.333Z" fill="white"/>
<path fill-rule="evenodd" clip-rule="evenodd" d="M196.027 99.9105C195.26 95.1684 192.301 90.5908 187.885 88.5091C184.065 86.7085 178.182 86.7198 175.148 90.0452C171.546 93.9937 171.568 102.196 171.595 107.41L171.993 107.454C171.989 104.108 172.157 98.2399 173.309 94.7083C174.61 90.7167 177.528 90.9773 179.253 94.5651C180.009 96.1357 180.52 98.0012 180.797 99.3065L195.922 99.8952L196.027 99.9105ZM184.059 96.379C183.837 95.8393 183.623 95.2407 183.464 94.7355V94.7342C183.257 94.0779 183.397 93.6768 183.756 93.4454C184.057 93.2525 184.498 93.2339 184.999 93.3022C185.751 93.405 186.983 93.5853 188.262 93.8173C189.132 93.9751 190.022 94.1568 190.791 94.3537C191.416 94.5134 191.902 94.6613 192.307 94.8396C192.734 95.0285 193.076 95.2526 193.391 95.5589C193.638 95.7989 193.927 96.2106 194.195 96.6415C194.621 97.327 195.012 98.0927 195.075 98.2617C195.105 98.342 195.125 98.4208 195.131 98.4964C195.143 98.6443 195.113 98.7868 195.033 98.9134C194.957 99.0347 194.84 99.1322 194.678 99.1925C194.593 99.2243 194.498 99.2456 194.394 99.2542C194.175 99.2721 192.611 99.1733 190.948 99.044C189.484 98.9307 187.935 98.7948 187.16 98.698C186.299 98.5906 185.794 98.4825 185.438 98.3161C185.038 98.1292 184.847 97.8931 184.622 97.5371C184.448 97.2633 184.25 96.8444 184.059 96.379Z" fill="white"/>
<path fill-rule="evenodd" clip-rule="evenodd" d="M184.14 94.5221L184.171 94.6202C186.393 94.9198 188.619 95.185 190.795 95.7419C191.376 95.8904 191.827 96.0269 192.2 96.192C192.549 96.3465 192.825 96.5268 193.075 96.7701C193.287 96.9763 194.014 97.9157 194.413 98.5157L194.411 98.5084C194.356 98.3638 193.998 97.6677 193.592 97.0154C193.348 96.6243 193.095 96.2596 192.895 96.0661C192.645 95.8228 192.369 95.6424 192.02 95.488C191.647 95.3229 191.195 95.1863 190.615 95.0378C189.866 94.8462 188.993 94.6679 188.135 94.5121C186.881 94.2847 185.654 94.1051 184.902 94.0023C184.555 93.9552 184.274 93.9526 184.136 94.0401C184.061 94.0911 184.049 94.235 184.14 94.5221Z" fill="white"/>
<path fill-rule="evenodd" clip-rule="evenodd" d="M178.921 106.429C178.627 109.631 177.573 112 176.318 112C174.835 112 173.633 108.696 173.633 104.621C173.633 101.942 174.152 99.5976 174.928 98.3048C174.524 99.5246 174.277 101.146 174.277 102.927C174.277 106.717 175.395 109.789 176.773 109.789C177.687 109.788 178.486 108.441 178.921 106.429Z" fill="white"/>
<path fill-rule="evenodd" clip-rule="evenodd" d="M224.719 98.3313C224.675 98.3718 224.627 98.4089 224.576 98.4414C224.315 98.6051 223.774 98.7424 223.24 98.8458C222.736 98.9439 222.225 99.0155 221.998 99.0473C221.385 99.1322 220.992 99.1488 220.705 98.9751C220.377 98.7768 220.275 98.4295 220.292 97.8089C220.307 97.2832 220.373 96.5348 220.537 95.8963C220.665 95.3951 220.859 94.9516 221.144 94.6964C221.705 94.1939 222.84 93.6072 223.406 93.3301C222.625 91.8703 221.475 90.5695 219.891 89.4638L219.909 91.0356C219.939 93.7292 219.967 96.1821 219.969 98.5137C219.97 99.0586 219.933 99.4511 219.83 99.7792C219.811 99.8396 219.79 99.8979 219.767 99.9536L224.741 99.2078C224.742 98.9114 224.735 98.6197 224.719 98.3313Z" fill="white"/>
<path fill-rule="evenodd" clip-rule="evenodd" d="M181.565 109.684C181.419 110.437 181.26 111.088 181.095 111.742C182.891 111.978 184.177 111.95 185.619 111.919H185.629C185.901 111.913 187.173 111.89 189.087 111.855C197.414 111.702 217.957 111.326 222.025 111.171C222.511 111.152 222.796 110.793 222.97 110.34V110.339C223.096 110.007 223.167 109.623 223.209 109.265C223.125 109.302 223.075 109.323 223.075 109.323L223.01 109.351L222.321 109.36L222.198 109.937C222.133 110.239 222.055 110.349 221.746 110.361C219.537 110.441 217.318 110.48 215.107 110.529C211.451 110.609 207.794 110.682 204.137 110.753C199.115 110.85 194.093 110.943 189.072 111.035C187.918 111.057 186.764 111.075 185.611 111.1H185.601C184.4 111.126 183.279 111.128 182.114 111.028C182.134 110.942 182.281 110.298 182.389 109.822C182.1 109.796 181.818 109.754 181.565 109.684ZM199.881 104.244C199.9 104.55 199.922 105.013 199.891 105.187C199.834 105.493 199.638 105.577 199.377 105.579C199.163 105.579 198.808 105.575 198.6 105.561C198.274 105.54 198.228 105.247 198.212 104.949C198.205 104.814 198.199 104.579 198.198 104.396C198.195 104.025 198.329 103.904 198.683 103.905C198.913 103.905 199.44 103.913 199.577 103.913C199.761 103.913 199.87 104.074 199.881 104.244ZM216.975 104.037C216.97 104.326 216.968 104.765 217.005 104.929C217.085 105.282 217.322 105.301 217.608 105.3C217.788 105.3 218.02 105.296 218.185 105.288C218.542 105.269 218.581 105.069 218.585 104.704C218.586 104.574 218.581 104.344 218.575 104.17C218.566 103.933 218.486 103.728 218.191 103.716C218.108 103.712 217.407 103.723 217.249 103.723C217.074 103.723 216.978 103.875 216.975 104.037ZM203.839 105.434C204.437 105.429 206.492 105.412 208.61 105.398C210.713 105.382 212.854 105.368 213.601 105.367C214.248 105.367 214.612 105.644 214.583 106.32C214.577 106.473 214.559 106.649 214.516 106.825C214.331 107.564 213.84 107.839 213.147 107.849C211.919 107.869 204.145 107.99 203.833 107.957C203.645 107.938 203.391 107.902 203.164 107.752C202.696 107.444 202.7 106.884 202.696 106.384C202.692 105.69 202.842 105.441 203.839 105.434ZM219.79 108.694L222.854 108.655C223.167 108.519 224.522 107.909 224.85 107.469C225.053 107.198 225.042 106.932 225.033 106.683C225.026 106.488 225.018 106.301 225.073 106.088C225.141 105.823 225.256 105.323 225.35 104.742C225.414 104.352 225.467 103.927 225.491 103.516C225.516 103.069 225.487 102.499 225.438 101.986C225.379 101.368 225.301 100.858 225.255 100.776C225.231 100.735 224.906 100.633 224.627 100.552L220.043 101.238C220.156 102.537 220.332 105.668 219.79 108.694ZM196.817 108.982L219.31 108.7C219.858 105.723 219.687 102.615 219.575 101.308L208.44 102.973L196.453 101.297C196.643 102.856 197.041 106.609 196.817 108.982ZM195.851 101.213L181.254 100.646C181.158 100.673 180.904 100.768 180.956 100.994C181.176 101.938 181.465 103.481 181.609 104.927C181.695 105.789 181.729 106.62 181.666 107.277C181.564 108.344 182.266 109.165 183.371 109.151L196.342 108.988C196.58 106.602 196.151 102.7 195.97 101.228L195.851 101.213ZM221.51 105.146C222.052 104.998 222.037 104.421 222.045 103.966C222.061 103.006 221.969 102.395 222.993 102.088C223.337 101.984 223.716 101.94 224.007 101.927C224.441 101.905 224.867 101.921 224.981 102.422C225.085 102.88 225.077 103.713 225.014 104.184C224.905 105.001 224.526 105.284 223.704 105.359C222.757 105.445 221.247 105.481 220.48 105.504L221.51 105.146ZM195.827 106.062H189.433C188.882 106.062 188.5 105.737 188.239 105.294C187.872 104.67 187.755 103.799 187.743 103.361C187.718 102.481 188.308 102.159 189.115 102.176C189.726 102.19 190.963 102.216 191.726 102.347C192.594 102.495 192.946 102.896 193.166 103.726C193.324 104.322 193.372 104.891 193.445 105.506L195.827 106.062Z" fill="white"/>
<path fill-rule="evenodd" clip-rule="evenodd" d="M172.562 109.79H172.024C172.017 109.504 172.003 108.934 171.996 108.167L171.12 108.072C171.129 108.559 171.146 109.57 171.153 109.811L171.157 109.96L154.538 107.664L154.51 106.277L153.657 106.185L153.671 108.423L172.016 110.959L172.562 109.79Z" fill="white"/>
<path fill-rule="evenodd" clip-rule="evenodd" d="M216.678 81.7822C214.116 79.8252 211.065 77.8681 208.219 76.3394C207.793 76.11 207.213 75.9436 205.463 75.8123C197.936 75.2501 183.47 75.5246 180.07 75.6605C183.329 76.6602 194.262 80.0883 195.885 81.7437C202.243 80.6333 210.306 80.7254 216.678 81.7822Z" fill="white"/>
<path fill-rule="evenodd" clip-rule="evenodd" d="M174.089 60.955C173.864 61.0312 173.791 61.2195 173.866 61.4389L174.339 62.6296C174.378 62.7271 174.471 62.798 174.683 62.847C175.257 62.9929 176.309 62.8809 176.984 62.8543C185.552 62.5235 194.132 62.6979 202.687 63.2475C204.853 63.3867 206.163 69.4752 206.877 72.8158C206.681 71.1385 206.142 67.1542 205.27 64.5164C204.583 62.4327 203.782 61.4535 202.118 61.2739C195.124 60.5168 184.325 60.3855 176.722 60.6156C175.645 60.6487 175.161 60.6262 174.089 60.955ZM192.691 63.5551C193.349 66.3136 194.193 70.2449 194.928 74.8981C194.687 74.8928 194.447 74.8875 194.207 74.8822C193.464 70.1991 192.612 66.2619 191.958 63.5359C192.203 63.5425 192.447 63.5484 192.691 63.5551Z" fill="white"/>
<path fill-rule="evenodd" clip-rule="evenodd" d="M168.367 65.2741C169.273 65.0553 171.416 64.5575 172.615 64.4414C174.484 64.2605 174.836 65.9782 175.148 67.438C175.494 69.0556 175.785 70.7825 176.019 72.4618C176.119 73.1831 176.288 74.6409 177.154 74.8617C176.654 72.7117 176.23 70.0506 175.865 67.9948C175.597 66.4893 175.383 65.1806 175.349 64.7232C175.322 64.3506 175.404 63.8985 175.665 63.62C175.164 63.628 174.798 63.6015 174.526 63.5385C174.043 63.4278 173.81 63.211 173.683 62.8915L173.209 61.7008C172.974 61.1121 173.27 60.4664 173.882 60.2794C175.02 59.9307 175.569 59.9447 176.703 59.9102C184.895 59.6622 193.077 59.5297 201.244 60.3351C201.54 60.3643 201.818 60.3935 202.08 60.4226C201.307 59.5515 200.086 59.1432 198.955 59.0384C197.207 58.8766 190.807 58.693 184.615 58.581C179.386 58.4862 174.311 58.4431 172.32 58.5081C170.329 58.5724 169.578 58.9827 169.113 59.7246C168.367 60.9146 168.421 63.7387 168.367 65.2741Z" fill="white"/>
<path fill-rule="evenodd" clip-rule="evenodd" d="M168.908 96.9153L170.352 95.0318L162.324 95.1114L162.712 96.9153H168.908ZM159.899 99.3636C159.729 99.705 159.379 100.433 159.334 100.741C159.296 101.004 159.46 102.182 159.824 102.233C159.902 102.245 160.551 102.252 160.683 102.253C161.159 102.257 161.109 102.035 160.939 101.385C160.839 101.004 160.769 100.699 161.337 99.5054C161.41 99.3536 161.43 99.1819 161.229 99.1746C161.099 99.17 160.378 99.1733 160.194 99.1766C160.043 99.1786 159.973 99.2131 159.899 99.3636ZM170.887 107.335C170.885 106.981 170.884 106.614 170.883 106.236L152.891 104.292C152.899 104.761 152.905 105.144 152.91 105.392L170.887 107.335ZM170.884 105.524C170.895 102.294 171.036 98.3956 171.924 95.0159L171.081 95.0246L168.717 98.1106H152.821C152.822 99.5949 152.854 101.898 152.879 103.578L162.949 104.666C162.721 103.799 162.425 102.022 162.341 101.401C162.276 100.925 162.44 100.101 162.558 99.5969C162.641 99.2416 162.812 99.0891 163.2 99.107C163.368 99.1143 168.712 99.1607 169.091 99.1779C169.469 99.1952 169.539 99.3576 169.486 99.6599C169.432 99.9629 169.231 100.523 169.253 101.93L169.304 105.354L170.884 105.524ZM165.907 104.985L166.413 105.04C166.561 105.048 166.701 105.055 166.795 105.056C167.049 105.058 167.047 104.84 166.976 104.646C166.927 104.515 166.781 104.086 166.675 103.683C166.607 103.422 166.541 103.382 166.277 103.37L165.58 103.339C165.353 103.329 165.292 103.469 165.351 103.667C165.469 104.063 165.634 104.505 165.735 104.769C165.781 104.888 165.831 104.952 165.907 104.985Z" fill="white"/>
<path fill-rule="evenodd" clip-rule="evenodd" d="M157.562 57.027C157.689 55.725 158.239 50.2192 158.566 48.6825C158.627 48.3954 158.715 48.1734 158.831 48.001C157.737 47.999 156.823 48.0003 156.143 48.0023C155.074 48.0056 154.348 48.8164 154.291 49.7777L153.779 58.4338C155.69 57.796 157.321 57.1132 157.562 57.027ZM177.443 57.7795C177.152 50.5162 165.812 48.0925 160.12 48.0076C159.452 47.9977 159.198 47.9758 159.028 48.7786C158.721 50.2238 158.211 55.255 158.053 56.856C158.473 56.7128 158.91 56.5729 159.348 56.445C162.618 55.4883 166.008 55.2821 169.336 58.2044C170.225 57.9498 171.286 57.8365 172.225 57.8047C173.256 57.7689 175.135 57.7636 177.443 57.7795ZM176.232 48.3066C181.167 49.4641 187.348 52.1451 187.768 57.9366C190.26 57.9909 192.653 58.0546 194.618 58.1209C193.234 50.2099 182.843 48.5612 176.232 48.3066ZM183.506 48.7097C188.681 49.8791 194.136 52.3009 195.1 58.1375C196.904 58.2011 198.296 58.2674 198.994 58.3304C197.077 50.2696 190.662 49.2738 183.506 48.7097ZM187.294 57.926C186.783 51.4291 178.491 48.9609 173.11 48.2012C170.458 48.125 167.803 48.0752 165.15 48.0434C170.218 49.0862 177.687 51.5948 177.916 57.7828C179.946 57.7994 182.272 57.8312 184.627 57.8736C185.517 57.8902 186.41 57.9074 187.294 57.926Z" fill="white"/>
<path fill-rule="evenodd" clip-rule="evenodd" d="M217.077 82.5658C214.02 82.0235 210.443 81.7252 206.867 81.6821C203.175 81.6376 199.489 81.8644 196.379 82.3755C196.802 83.0696 197.009 83.9507 197.1 85.1917L198.038 97.8143C198.087 98.4871 198.152 98.8054 198.861 98.9466C199.303 99.0347 201.991 99.4212 204.439 99.7554C205.648 99.9204 206.799 100.074 207.589 100.172C208.627 100.3 208.984 100.345 210.092 100.144L218.225 98.6648C218.997 98.5249 219.003 98.2259 219.015 97.6061C219.056 95.7041 219.042 94.0288 219.015 92.1268C218.976 89.4114 218.904 86.5713 218.84 84.8901C218.788 83.5171 218.42 82.8038 217.077 82.5658ZM198.026 84.2722C197.955 83.6252 198.512 83.5861 199.012 83.6212L201.705 83.8088C201.977 83.828 202.19 84.0435 202.204 84.3153L202.927 98.3512C202.944 98.688 202.867 98.8717 202.503 98.812L200.374 98.46C199.149 98.2578 199.052 98.3333 198.981 97.2256L198.026 84.2722ZM212.821 99.1607L209.645 99.697C209.115 99.7912 208.995 99.7189 208.983 99.1932L208.653 84.7827C208.646 84.4989 208.863 84.2596 209.147 84.2371L212.984 83.9341C213.296 83.9096 213.56 84.1496 213.564 84.4611L213.722 98.1901C213.73 98.9512 213.745 99.0089 212.821 99.1607ZM218.059 84.5825L218.017 97.3044C218.02 98.09 217.933 98.1935 217.214 98.3685L214.979 98.7424C214.307 98.8531 214.315 98.631 214.309 98.0569L214.151 84.3418C214.148 84.0601 214.363 83.8247 214.646 83.8022L217.187 83.6013C217.883 83.6013 218.083 83.9401 218.059 84.5825ZM204.267 99.111C203.757 99.0281 203.547 98.9128 203.52 98.3857L202.804 84.487C202.787 84.1641 203.055 83.9036 203.378 83.9261L207.563 84.2178C207.84 84.2371 208.055 84.4625 208.062 84.7396L208.395 99.2893C208.405 99.7395 208.252 99.7938 207.841 99.7222L204.267 99.111Z" fill="white"/>
<path fill-rule="evenodd" clip-rule="evenodd" d="M169.826 76.7378L172.498 80.14V79.086L169.873 75.744C169.866 75.8634 169.863 75.9721 169.86 76.0808C169.853 76.3016 169.846 76.5237 169.826 76.7378Z" fill="url(#paint0_linear_192_1222)"/>
<path fill-rule="evenodd" clip-rule="evenodd" d="M165.773 68.5431C165.736 69.1053 165.656 70.8395 165.583 72.5473C165.51 74.2557 165.444 75.9396 165.435 76.4236C165.43 76.7371 165.56 76.9824 165.746 77.1641C166.021 77.4312 166.409 77.5738 166.702 77.6069C166.934 77.6334 167.231 77.6593 167.53 77.6679C167.758 77.6739 167.993 77.6706 168.207 77.65C169.104 77.5638 169.128 76.7961 169.152 76.0364V76.0351C169.157 75.8879 169.161 75.7414 169.168 75.6181C169.205 75.0208 169.247 72.8867 169.251 71.0749C169.255 69.7768 169.239 68.6492 169.192 68.3899C169.16 68.2163 169.06 68.0903 168.937 68.0015C168.733 67.8536 168.471 67.7993 168.303 67.7933C168.182 67.7893 167.921 67.792 167.627 67.7973C167.335 67.8026 167 67.8105 166.742 67.8172C166.421 67.8251 166.154 67.8357 166.003 67.9265C165.877 68.0021 165.796 68.1778 165.773 68.5431Z" fill="white"/>
<path fill-rule="evenodd" clip-rule="evenodd" d="M72.518 61.433L151.311 50.2603L151.066 55.0249L72.518 61.433ZM150.975 56.7983L150.719 61.7631L87.0733 65.2787L150.975 56.7983ZM150.628 63.5325L150.374 68.498L102.079 69.0178L150.628 63.5325Z" fill="white"/>
<path fill-rule="evenodd" clip-rule="evenodd" d="M224.175 94.4007C223.594 94.6924 223.011 94.9821 222.432 95.2758C221.241 95.8791 221.328 96.1091 220.842 97.5027C220.973 96.4187 221.022 95.2274 222.226 94.5976C222.633 94.3848 222.995 94.1998 223.281 94.0553C223.853 93.7676 223.978 93.9453 224.175 94.4007Z" fill="white"/>
<path fill-rule="evenodd" clip-rule="evenodd" d="M172.804 92.3701C173.046 91.8219 173.318 91.3014 173.625 90.8148L170.04 90.8878C170.04 90.8878 172.517 90.5298 173.952 90.3269C174.634 89.3743 175.31 88.8698 176.207 88.3586L176.211 87.9449C173.771 87.884 171.329 87.8243 168.883 87.7805C171.325 87.5923 173.891 87.4026 176.216 87.2197C176.231 84.9299 176.249 80.6167 176.263 78.6365L176.265 78.4714C176.271 77.3623 176.277 76.3221 177.11 75.5153C175.572 74.914 175.589 72.7661 175.373 71.405C175.146 69.9751 174.871 68.3979 174.685 67.5288C174.505 66.6902 174.323 65.9755 174.012 65.5055C173.729 65.0772 173.318 64.8485 172.659 64.9121C171.434 65.0308 169.156 65.5678 168.351 65.7634C168.337 66.1817 168.322 66.6219 168.308 67.0786L168.326 67.0793C168.438 67.0826 168.577 67.1005 168.724 67.137V66.5118C169.819 66.2798 170.933 66.0497 172.041 65.8979C172.634 65.8171 173.228 65.8098 173.661 66.2805C173.918 66.5589 174.14 67.257 174.318 68.0625C174.587 69.281 174.772 70.7779 174.814 71.356C174.814 73.0087 174.912 74.6926 174.932 76.3526C174.942 77.2151 174.74 77.5585 173.728 77.5406C173.32 77.5333 172.653 77.5154 172.186 77.5022L173.013 78.5523H174.318C174.429 78.5523 174.53 78.5974 174.602 78.6696C174.675 78.7419 174.72 78.8427 174.72 78.9527V81.9002C174.72 82.0102 174.675 82.111 174.602 82.1833C174.53 82.2555 174.429 82.3006 174.318 82.3006H172.9C172.789 82.3006 172.688 82.2555 172.615 82.1833C172.542 82.111 172.497 82.0102 172.497 81.9002V81.2392L169.608 77.5711C169.402 77.9768 169.015 78.2705 168.274 78.3421C168.167 78.3521 168.057 78.3587 167.946 78.3627C167.922 79.0674 167.898 79.7383 167.874 80.3601C167.845 81.102 167.818 81.7789 167.792 82.3682C167.663 85.2355 167.713 87.3881 167.896 89.0706C168.052 90.498 168.304 91.5819 168.627 92.4782C168.979 92.4762 169.255 92.4755 169.44 92.4755C170.8 92.4775 172.034 92.4179 172.804 92.3701ZM168.735 88.3454C168.735 88.3454 169.816 88.3082 170.039 88.356C170.262 88.4037 170.601 88.647 170.665 88.9374C170.729 89.2284 170.761 89.7515 170.761 89.9099C170.761 90.0684 170.714 90.1373 170.634 90.1691C170.554 90.201 169.398 90.2752 169.249 90.2798C169.101 90.2851 168.688 89.8834 168.634 89.6825C168.595 89.5334 168.561 88.9937 168.546 88.7259C168.538 88.5807 168.561 88.4004 168.735 88.3454Z" fill="white"/>
<path fill-rule="evenodd" clip-rule="evenodd" d="M69.7488 95.9552H45.9496L47.9752 99.549H70.5202L69.7488 95.9552ZM70.8737 101.196H50.6827L52.7083 104.79H71.645L70.8737 101.196Z" fill="white"/>
<path d="M46.4825 91.5651V77.6978H41.5V73.8457H56.6401V77.6978H51.6577V91.5651H46.4825Z" fill="white"/>
<path d="M57.0728 91.5651V78.5232H62.0553L62.1929 79.5688C62.7251 79.2569 63.4041 78.9726 64.2299 78.7158C65.0557 78.459 65.8908 78.3031 66.7349 78.2481V82.1001C66.2578 82.1368 65.7348 82.201 65.1659 82.2927C64.6153 82.3844 64.0739 82.5036 63.5417 82.6504C63.0279 82.7788 62.5966 82.9255 62.2479 83.0906V91.5651H57.0728Z" fill="white"/>
<path d="M72.0163 91.8402C71.1904 91.8402 70.4197 91.6935 69.704 91.4C69.0066 91.1065 68.4469 90.6479 68.0248 90.0243C67.6027 89.4006 67.3916 88.6119 67.3916 87.658C67.3916 86.2823 67.8504 85.2184 68.768 84.4664C69.6856 83.6959 71.0712 83.3107 72.9247 83.3107H76.3106V83.0631C76.3106 82.5495 76.0995 82.1735 75.6774 81.935C75.2553 81.6966 74.5121 81.5773 73.4477 81.5773C71.9429 81.5773 70.4564 81.8066 68.9882 82.2652V79.156C69.6489 78.8992 70.4747 78.6883 71.4657 78.5232C72.4567 78.3398 73.4661 78.2481 74.4938 78.2481C76.5675 78.2481 78.21 78.67 79.4212 79.5137C80.6324 80.3575 81.238 81.6966 81.238 83.5309V91.5651H76.7235L76.4757 90.5195C76.0169 90.9231 75.4205 91.2441 74.6864 91.4826C73.9707 91.721 73.0807 91.8402 72.0163 91.8402ZM73.778 88.8136C74.3653 88.8136 74.8608 88.7128 75.2645 88.511C75.6866 88.3092 76.0353 88.0616 76.3106 87.7681V86.1447H73.8056C72.6678 86.1447 72.0989 86.5941 72.0989 87.4929C72.0989 88.3734 72.6586 88.8136 73.778 88.8136Z" fill="white"/>
<path d="M91.2908 91.8402C88.9235 91.8402 87.0516 91.2808 85.6752 90.1619C84.2988 89.0246 83.6107 87.3187 83.6107 85.0442C83.6107 83.5033 83.9318 82.2285 84.5741 81.2196C85.2164 80.2108 86.1157 79.4679 87.2718 78.991C88.428 78.4957 89.7768 78.2481 91.3184 78.2481C92.291 78.2481 93.1627 78.3214 93.9335 78.4682C94.7043 78.5966 95.4383 78.8259 96.1357 79.156V82.788C95.0529 82.2744 93.8234 82.0176 92.447 82.0176C91.2725 82.0176 90.3824 82.2377 89.7768 82.6779C89.1896 83.1181 88.896 83.9069 88.896 85.0442C88.896 86.108 89.1804 86.8785 89.7493 87.3554C90.3182 87.8323 91.2174 88.0708 92.447 88.0708C93.1077 88.0708 93.75 87.9974 94.3739 87.8506C94.9979 87.6855 95.5943 87.4563 96.1632 87.1628V90.9598C95.4659 91.2716 94.7134 91.4917 93.906 91.6201C93.1168 91.7669 92.2451 91.8402 91.2908 91.8402Z" fill="white"/>
<path d="M98.6598 91.5651V73.0203H103.835V82.1826L107.469 78.5232H113.332L108.129 84.0261L113.635 91.5651H108.129L104.909 86.7225L103.835 87.7956V91.5651H98.6598Z" fill="white"/>
<path d="M116.008 91.5651V78.5232H120.853L120.99 79.5137C121.486 79.1836 122.137 78.8901 122.945 78.6333C123.771 78.3765 124.651 78.2481 125.587 78.2481C127.221 78.2481 128.414 78.6516 129.166 79.4587C129.918 80.2658 130.295 81.5131 130.295 83.2007V91.5651H125.119V83.7235C125.119 83.1365 124.991 82.7146 124.734 82.4578C124.477 82.201 124.028 82.0726 123.385 82.0726C123 82.0726 122.596 82.1643 122.174 82.3477C121.77 82.5312 121.44 82.7513 121.183 83.0081V91.5651H116.008Z" fill="white"/>
<path d="M142.334 91.8402C139.177 91.8402 136.773 91.0698 135.122 89.529C133.47 87.9699 132.644 85.7504 132.644 82.8705C132.644 79.8989 133.497 77.6061 135.204 75.9919C136.911 74.3777 139.407 73.5706 142.692 73.5706C143.793 73.5706 144.784 73.6348 145.665 73.7632C146.564 73.8916 147.408 74.0842 148.197 74.341V78.7708C147.39 78.459 146.555 78.2481 145.692 78.138C144.83 78.028 143.949 77.9729 143.049 77.9729C141.343 77.9729 140.058 78.3581 139.196 79.1285C138.351 79.8989 137.929 81.1463 137.929 82.8705C137.929 84.4847 138.296 85.6495 139.03 86.3649C139.783 87.0802 140.884 87.4379 142.334 87.4379C142.811 87.4379 143.261 87.4104 143.683 87.3554C144.105 87.282 144.499 87.1903 144.866 87.0802V84.4939H141.343V81.3022H149.188V90.2169C148.509 90.6388 147.601 91.0148 146.463 91.345C145.343 91.6752 143.967 91.8402 142.334 91.8402Z" fill="white"/>
<path d="M158.773 91.8402C156.167 91.8402 154.24 91.2624 152.992 90.1068C151.763 88.9512 151.148 87.2637 151.148 85.0442C151.148 82.843 151.772 81.1646 153.02 80.009C154.268 78.835 156.186 78.2481 158.773 78.2481C161.379 78.2481 163.306 78.835 164.554 80.009C165.82 81.1646 166.453 82.843 166.453 85.0442C166.453 87.2637 165.829 88.9512 164.582 90.1068C163.334 91.2624 161.398 91.8402 158.773 91.8402ZM158.773 88.0708C159.617 88.0708 160.223 87.8323 160.59 87.3554C160.975 86.8785 161.168 86.108 161.168 85.0442C161.168 83.9986 160.975 83.2374 160.59 82.7604C160.223 82.2652 159.617 82.0176 158.773 82.0176C157.947 82.0176 157.351 82.2652 156.984 82.7604C156.617 83.2374 156.433 83.9986 156.433 85.0442C156.433 86.108 156.617 86.8785 156.984 87.3554C157.351 87.8323 157.947 88.0708 158.773 88.0708Z" fill="white"/>
<path d="M267 0H367L267 160V0Z" fill="#FA6444"/>
<defs>
<linearGradient id="paint0_linear_192_1222" x1="138.774" y1="97.2211" x2="137.517" y2="26.8281" gradientUnits="userSpaceOnUse">
<stop stop-color="white"/>
<stop offset="1" stop-color="#828282"/>
</linearGradient>
</defs>
</svg>
