<svg width="207" height="72" viewBox="0 0 207 72" fill="none" xmlns="http://www.w3.org/2000/svg">
<g clip-path="url(#clip0_202_832)">
<path fill-rule="evenodd" clip-rule="evenodd" d="M174.063 57.569C174.111 57.8225 174.155 58.0776 174.193 58.3318L187.284 60.1697L198.95 58.4188C199.115 58.2359 199.226 58.0545 199.296 57.8322C199.341 57.688 199.372 57.5237 199.391 57.3281C199.168 57.4679 198.851 57.5742 198.4 57.6567L189.283 59.3207C187.957 59.5623 187.509 59.5155 186.269 59.3623C185.364 59.25 184.062 59.0768 182.698 58.8902C179.924 58.5095 176.886 58.0716 176.396 57.9742C174.936 57.6828 174.668 57.6895 174.063 57.569Z" fill="white"/>
<path fill-rule="evenodd" clip-rule="evenodd" d="M173.371 58.2167C172.512 52.8985 169.195 47.7648 164.245 45.4302C159.963 43.4109 153.369 43.4235 149.968 47.1529C145.929 51.5811 145.954 60.7802 145.984 66.6278L146.43 66.6761C146.427 62.9244 146.615 56.3431 147.905 52.3825C149.364 47.906 152.635 48.1982 154.569 52.222C155.416 53.9833 155.989 56.0754 156.299 57.5394L173.255 58.1996L173.371 58.2167ZM159.957 54.2561C159.708 53.6509 159.467 52.9796 159.289 52.413V52.4115C159.057 51.6755 159.214 51.2257 159.617 50.9662C159.954 50.7499 160.449 50.729 161.009 50.8056C161.853 50.9209 163.234 51.1231 164.667 51.3833C165.643 51.5603 166.641 51.764 167.503 51.9848C168.203 52.164 168.748 52.3298 169.202 52.5298C169.681 52.7417 170.064 52.993 170.417 53.3364C170.693 53.6056 171.017 54.0673 171.319 54.5506C171.796 55.3193 172.234 56.1781 172.305 56.3676C172.339 56.4576 172.36 56.5461 172.367 56.6308C172.381 56.7966 172.347 56.9565 172.258 57.0985C172.172 57.2345 172.041 57.3438 171.86 57.4115C171.765 57.4472 171.658 57.471 171.541 57.4806C171.296 57.5007 169.543 57.3899 167.678 57.245C166.037 57.1178 164.301 56.9654 163.432 56.8569C162.467 56.7364 161.901 56.6152 161.502 56.4286C161.054 56.2189 160.84 55.9543 160.587 55.555C160.392 55.2479 160.171 54.7781 159.957 54.2561Z" fill="white"/>
<path fill-rule="evenodd" clip-rule="evenodd" d="M160.047 52.173L160.082 52.283C162.572 52.6191 165.068 52.9165 167.508 53.541C168.158 53.7075 168.664 53.8607 169.082 54.0458C169.473 54.2191 169.783 54.4213 170.063 54.6942C170.301 54.9254 171.116 55.9789 171.563 56.6518L171.56 56.6436C171.499 56.4815 171.097 55.7008 170.642 54.9692C170.369 54.5306 170.085 54.1217 169.862 53.9046C169.581 53.6317 169.272 53.4295 168.88 53.2563C168.462 53.0711 167.956 52.918 167.305 52.7514C166.466 52.5366 165.487 52.3366 164.526 52.1618C163.12 51.9068 161.744 51.7053 160.901 51.5901C160.513 51.5373 160.197 51.5343 160.043 51.6325C159.959 51.6897 159.946 51.8511 160.047 52.173Z" fill="white"/>
<path fill-rule="evenodd" clip-rule="evenodd" d="M154.197 65.5272C153.868 69.1175 152.687 71.7747 151.279 71.7747C149.618 71.7747 148.27 68.0692 148.27 63.4989C148.27 60.4953 148.851 57.8655 149.722 56.4157C149.268 57.7838 148.991 59.6023 148.991 61.5993C148.991 65.8498 150.244 69.2952 151.79 69.2952C152.815 69.2944 153.71 67.7829 154.197 65.5272Z" fill="white"/>
<path fill-rule="evenodd" clip-rule="evenodd" d="M205.535 56.4466C205.485 56.4919 205.431 56.5335 205.374 56.57C205.081 56.7536 204.475 56.9075 203.876 57.0235C203.312 57.1335 202.739 57.2138 202.484 57.2495C201.797 57.3447 201.356 57.3633 201.035 57.1685C200.667 56.9462 200.553 56.5566 200.572 55.8607C200.588 55.2711 200.663 54.4317 200.846 53.7157C200.991 53.1537 201.208 52.6563 201.527 52.37C202.156 51.8065 203.429 51.1485 204.063 50.8377C203.188 49.2005 201.898 47.7418 200.122 46.5017L200.142 48.2645C200.177 51.2853 200.208 54.0362 200.21 56.651C200.211 57.2622 200.169 57.7023 200.054 58.0703C200.033 58.138 200.009 58.2034 199.984 58.2659L205.559 57.4294C205.56 57.0971 205.552 56.77 205.535 56.4466Z" fill="white"/>
<path fill-rule="evenodd" clip-rule="evenodd" d="M157.16 69.1773C156.997 70.0227 156.819 70.752 156.634 71.4858C158.647 71.7505 160.089 71.7193 161.705 71.6843H161.716C162.021 71.6777 163.447 71.6516 165.592 71.6122C174.927 71.4412 197.954 71.0189 202.515 70.845C203.06 70.8241 203.379 70.4219 203.573 69.9134V69.9119C203.715 69.5394 203.794 69.1097 203.842 68.7074C203.748 68.7491 203.693 68.7729 203.692 68.7729L203.619 68.8041L202.846 68.8145L202.708 69.4613C202.636 69.8004 202.548 69.9238 202.202 69.9364C199.725 70.0264 197.238 70.0702 194.76 70.1253C190.661 70.2152 186.562 70.297 182.463 70.3766C176.833 70.4858 171.204 70.5899 165.575 70.6933C164.282 70.7171 162.989 70.7379 161.696 70.7654H161.685C160.338 70.7944 159.082 70.7974 157.776 70.6851C157.798 70.5884 157.963 69.8665 158.085 69.332C157.76 69.3037 157.444 69.2561 157.16 69.1773ZM177.692 63.077C177.713 63.4197 177.738 63.9394 177.703 64.1342C177.64 64.477 177.42 64.5722 177.127 64.5736C176.887 64.5744 176.489 64.5699 176.256 64.5543C175.89 64.5298 175.839 64.2019 175.821 63.8673C175.813 63.7164 175.807 63.4525 175.806 63.2473C175.803 62.8316 175.952 62.6956 176.349 62.6963C176.607 62.6971 177.197 62.7053 177.351 62.7053C177.558 62.706 177.679 62.8859 177.692 63.077ZM196.854 62.8443C196.848 63.1685 196.846 63.6614 196.887 63.845C196.977 64.2413 197.243 64.2621 197.564 64.2614C197.765 64.2606 198.025 64.2569 198.211 64.2472C198.61 64.2264 198.654 64.0019 198.658 63.593C198.66 63.4473 198.654 63.1893 198.647 62.9937C198.637 62.7283 198.547 62.4986 198.217 62.4844C198.124 62.4807 197.338 62.4926 197.161 62.4926C196.965 62.4926 196.857 62.6629 196.854 62.8443ZM182.129 64.4108C182.799 64.4056 185.103 64.387 187.477 64.3707C189.834 64.3536 192.234 64.3372 193.072 64.3365C193.797 64.3357 194.205 64.6465 194.173 65.4049C194.165 65.5766 194.146 65.7744 194.097 65.9714C193.889 66.8004 193.339 67.1082 192.562 67.1201C191.186 67.1416 182.472 67.2777 182.122 67.2413C181.911 67.2197 181.626 67.1788 181.372 67.0108C180.848 66.6651 180.852 66.0376 180.848 65.477C180.843 64.6985 181.012 64.4197 182.129 64.4108ZM200.009 68.0673L203.444 68.0242C203.795 67.871 205.314 67.187 205.681 66.6941C205.909 66.3892 205.897 66.0918 205.886 65.8123C205.878 65.5937 205.869 65.3833 205.931 65.1446C206.008 64.848 206.136 64.2874 206.242 63.6354C206.313 63.1982 206.373 62.7216 206.399 62.2607C206.428 61.7595 206.396 61.1201 206.341 60.5447C206.274 59.8518 206.187 59.2793 206.135 59.1878H206.135C206.108 59.1417 205.744 59.0272 205.431 58.9365L200.293 59.7053C200.42 61.1625 200.617 64.6733 200.009 68.0673ZM174.258 68.3907L199.471 68.074C200.086 64.7357 199.894 61.2495 199.768 59.7841L187.286 61.6517L173.85 59.7715C174.062 61.5201 174.509 65.729 174.258 68.3907ZM173.175 59.677L156.812 59.0414C156.704 59.0718 156.419 59.1782 156.478 59.4317C156.725 60.4904 157.049 62.2212 157.21 63.8428C157.306 64.8093 157.344 65.7409 157.273 66.4785C157.16 67.6747 157.946 68.5959 159.185 68.5803L173.725 68.3974C173.992 65.7216 173.51 61.3447 173.308 59.6949L173.175 59.677ZM201.937 64.0881C202.544 63.9223 202.528 63.2755 202.537 62.7655C202.555 61.6882 202.451 61.0027 203.599 60.6584C203.985 60.5425 204.411 60.4934 204.736 60.4778C205.222 60.454 205.7 60.4718 205.828 61.0339C205.945 61.5476 205.935 62.4815 205.865 63.0093C205.743 63.9253 205.318 64.2435 204.396 64.3268C203.335 64.4242 201.643 64.4643 200.782 64.4904L201.937 64.0881ZM173.148 65.1156H165.98C165.363 65.1156 164.934 64.7513 164.642 64.2547C164.231 63.5551 164.099 62.5774 164.086 62.0867C164.058 61.0993 164.719 60.7387 165.624 60.7581C166.308 60.7729 167.696 60.8027 168.551 60.9491C169.524 61.1157 169.918 61.5647 170.165 62.4956C170.342 63.164 170.395 63.8026 170.477 64.4926L173.148 65.1156Z" fill="white"/>
<path fill-rule="evenodd" clip-rule="evenodd" d="M147.069 69.2975H146.466C146.458 68.977 146.442 68.3376 146.435 67.4774L145.453 67.3711C145.463 67.9168 145.482 69.0506 145.49 69.3213L145.494 69.4886L126.865 66.9131L126.834 65.3577L125.877 65.2544L125.893 67.7652L146.457 70.6082L147.069 69.2975Z" fill="white"/>
<path fill-rule="evenodd" clip-rule="evenodd" d="M196.521 37.8861C193.65 35.6913 190.229 33.4965 187.04 31.782C186.562 31.5248 185.912 31.3382 183.95 31.191C175.513 30.5605 159.297 30.8683 155.485 31.0207C159.139 32.1419 171.394 35.9864 173.214 37.8429C180.34 36.5976 189.379 36.7009 196.521 37.8861Z" fill="white"/>
<path fill-rule="evenodd" clip-rule="evenodd" d="M148.78 14.5289C148.529 14.6144 148.446 14.8255 148.53 15.0716L149.061 16.4069C149.104 16.5162 149.208 16.5958 149.446 16.6508C150.09 16.8143 151.269 16.6887 152.026 16.6589C161.63 16.2879 171.248 16.4835 180.838 17.0998C183.265 17.256 184.734 24.0842 185.534 27.8306C185.314 25.9496 184.711 21.4812 183.734 18.5229C182.963 16.1861 182.065 15.088 180.2 14.8865C172.36 14.0374 160.254 13.8902 151.732 14.1482C150.525 14.1854 149.982 14.1601 148.78 14.5289ZM169.633 17.4448C170.37 20.5385 171.317 24.9473 172.14 30.1659C171.871 30.1599 171.601 30.154 171.332 30.148C170.5 24.896 169.544 20.4805 168.811 17.4233C169.085 17.4307 169.359 17.4374 169.633 17.4448Z" fill="white"/>
<path fill-rule="evenodd" clip-rule="evenodd" d="M142.367 19.3726C143.382 19.1272 145.784 18.5689 147.129 18.4387C149.223 18.2358 149.618 20.1621 149.967 21.7993C150.355 23.6134 150.681 25.5502 150.943 27.4334C151.056 28.2424 151.245 29.8773 152.216 30.1249C151.656 27.7137 151.18 24.7294 150.771 22.4238C150.471 20.7354 150.23 19.2677 150.193 18.7547C150.163 18.3369 150.254 17.8298 150.547 17.5176C149.986 17.5265 149.575 17.4967 149.27 17.4261C148.729 17.302 148.468 17.0588 148.325 16.7005L147.794 15.3652C147.531 14.705 147.862 13.9808 148.548 13.7711C149.824 13.3801 150.439 13.3957 151.711 13.357C160.894 13.0789 170.065 12.9303 179.22 13.8336C179.551 13.8663 179.863 13.899 180.157 13.9317C179.29 12.9548 177.922 12.4968 176.654 12.3793C174.694 12.1979 167.521 11.992 160.58 11.8663C154.718 11.76 149.029 11.7117 146.798 11.7845C144.566 11.8567 143.724 12.3169 143.203 13.1488C142.366 14.4834 142.427 17.6506 142.367 19.3726Z" fill="white"/>
<path fill-rule="evenodd" clip-rule="evenodd" d="M142.974 54.8586L144.591 52.7464L135.593 52.8356L136.027 54.8586H142.974ZM132.874 57.6043C132.684 57.9872 132.292 58.8035 132.241 59.1493C132.198 59.4437 132.382 60.7649 132.79 60.8229C132.878 60.8355 133.605 60.8437 133.753 60.8452C134.287 60.8489 134.231 60.6006 134.04 59.8712C133.928 59.4444 133.849 59.1017 134.487 57.7634C134.568 57.5931 134.59 57.4006 134.365 57.3924C134.22 57.3872 133.412 57.3909 133.205 57.3946C133.035 57.3969 132.957 57.4355 132.874 57.6043ZM145.191 66.544C145.189 66.147 145.188 65.7358 145.187 65.312L125.019 63.1314C125.027 63.6578 125.035 64.0868 125.04 64.3648L145.191 66.544ZM145.188 64.5128C145.2 60.8905 145.358 56.5188 146.353 52.7285L145.409 52.7382L142.759 56.1991H124.94C124.942 57.8638 124.977 60.4467 125.006 62.3306L136.293 63.5515C136.038 62.579 135.706 60.5857 135.612 59.8898C135.539 59.356 135.722 58.4318 135.855 57.866C135.948 57.4675 136.139 57.2965 136.574 57.3166C136.763 57.3248 142.753 57.3768 143.178 57.3961C143.602 57.4155 143.68 57.5976 143.62 57.9366C143.56 58.2764 143.336 58.9047 143.359 60.4823L143.417 64.3224L145.188 64.5128ZM139.609 63.9091L140.177 63.9708C140.342 63.9797 140.499 63.9871 140.604 63.9879C140.889 63.9901 140.887 63.7462 140.807 63.5284C140.753 63.3812 140.588 62.9009 140.47 62.4489C140.394 62.1559 140.32 62.1113 140.023 62.0979L139.242 62.0622C138.988 62.0511 138.919 62.208 138.986 62.431C139.119 62.8749 139.303 63.37 139.416 63.6659C139.468 63.7998 139.524 63.8712 139.609 63.9091Z" fill="white"/>
<path fill-rule="evenodd" clip-rule="evenodd" d="M130.255 10.1237C130.397 8.66347 131.014 2.48881 131.38 0.765408C131.448 0.443478 131.547 0.19441 131.677 0.00110335C130.451 -0.00112711 129.426 0.000359863 128.664 0.00259032C127.466 0.00630776 126.652 0.915592 126.588 1.99365L126.014 11.7014C128.156 10.9861 129.985 10.2203 130.255 10.1237ZM152.541 10.9675C152.214 2.82189 139.502 0.103705 133.122 0.00853822C132.373 -0.00261408 132.089 -0.0271492 131.898 0.873213C131.554 2.49401 130.983 8.13634 130.805 9.93186C131.276 9.77126 131.765 9.61439 132.257 9.47089C135.922 8.39804 139.722 8.16682 143.452 11.4441C144.449 11.1586 145.639 11.0315 146.691 10.9958C147.847 10.9556 149.953 10.9497 152.541 10.9675ZM151.183 0.343851C156.715 1.64198 163.643 4.64864 164.114 11.1437C166.908 11.2047 169.59 11.2761 171.793 11.3504C170.241 2.4784 158.593 0.62935 151.183 0.343851ZM159.336 0.795891C165.138 2.1074 171.253 4.82336 172.333 11.369C174.355 11.4404 175.916 11.5147 176.698 11.5854C174.549 2.54532 167.358 1.4286 159.336 0.795891ZM163.583 11.1318C163.01 3.84567 153.715 1.07767 147.683 0.225636C144.71 0.140135 141.735 0.0843739 138.761 0.0486865C144.442 1.21819 152.814 4.03155 153.07 10.9713C155.346 10.9898 157.953 11.0255 160.593 11.0731C161.59 11.0917 162.592 11.111 163.583 11.1318Z" fill="white"/>
<path fill-rule="evenodd" clip-rule="evenodd" d="M196.969 38.765C193.542 38.1569 189.532 37.8223 185.523 37.774C181.385 37.7242 177.253 37.9784 173.767 38.5517C174.241 39.3301 174.473 40.3182 174.575 41.71L175.627 55.866C175.682 56.6206 175.755 56.9775 176.55 57.1358C177.045 57.2347 180.057 57.6682 182.802 58.0429C184.157 58.228 185.447 58.3998 186.332 58.5098C187.497 58.654 187.897 58.7046 189.139 58.4786L198.256 56.8199C199.12 56.663 199.127 56.3277 199.141 55.6325C199.186 53.4995 199.172 51.6207 199.14 49.4876C199.097 46.4423 199.016 43.2572 198.945 41.3717C198.887 39.8319 198.474 39.0319 196.969 38.765ZM175.613 40.6788C175.534 39.9531 176.158 39.9093 176.718 39.9487L179.738 40.1591C180.042 40.1806 180.281 40.4223 180.297 40.7271L181.107 56.4682C181.126 56.8459 181.04 57.0518 180.632 56.9849L178.245 56.5901C176.872 56.3634 176.764 56.4481 176.683 55.2058L175.613 40.6788ZM192.198 57.376L188.637 57.9775C188.043 58.083 187.909 58.002 187.895 57.4124L187.526 41.2513C187.518 40.933 187.761 40.6646 188.08 40.6394L192.381 40.2996C192.73 40.2721 193.026 40.5412 193.03 40.8907L193.207 56.2875C193.217 57.1411 193.233 57.2057 192.198 57.376ZM198.07 41.0267L198.022 55.2942C198.026 56.1753 197.929 56.2912 197.122 56.4875L194.617 56.9069C193.864 57.031 193.873 56.7819 193.865 56.1381L193.688 40.7568C193.685 40.4409 193.926 40.1769 194.243 40.1516L197.092 39.9264C197.872 39.9264 198.097 40.3063 198.07 41.0267ZM182.609 57.3202C182.037 57.2273 181.802 57.0979 181.772 56.5069L180.969 40.9197C180.95 40.5576 181.25 40.2654 181.612 40.2907L186.303 40.6178C186.614 40.6394 186.856 40.8921 186.863 41.2029L187.236 57.5202C187.248 58.0251 187.076 58.086 186.615 58.0057L182.609 57.3202Z" fill="white"/>
<path fill-rule="evenodd" clip-rule="evenodd" d="M144.002 32.229L146.997 36.0446V34.8625L144.055 31.1145C144.047 31.2484 144.043 31.3703 144.04 31.4922C144.032 31.7398 144.024 31.9889 144.002 32.229Z" fill="url(#paint0_linear_202_832)"/>
<path fill-rule="evenodd" clip-rule="evenodd" d="M139.459 23.0398C139.418 23.6703 139.328 25.6152 139.246 27.5305C139.164 29.4464 139.09 31.3349 139.08 31.8776C139.074 32.2293 139.22 32.5044 139.429 32.7081C139.737 33.0077 140.172 33.1676 140.501 33.2048C140.76 33.2345 141.093 33.2635 141.429 33.2732C141.685 33.2799 141.947 33.2761 142.188 33.2531C143.193 33.1564 143.22 32.2955 143.247 31.4434V31.442C143.252 31.2769 143.257 31.1126 143.265 30.9743C143.306 30.3044 143.354 27.9111 143.358 25.8792C143.362 24.4234 143.345 23.1588 143.291 22.8681C143.255 22.6733 143.144 22.532 143.006 22.4324C142.777 22.2666 142.483 22.2056 142.295 22.1989C142.16 22.1945 141.867 22.1974 141.537 22.2034C141.209 22.2093 140.835 22.2183 140.545 22.2257C140.186 22.2346 139.886 22.2465 139.716 22.3484C139.576 22.4331 139.485 22.6301 139.459 23.0398Z" fill="white"/>
<path fill-rule="evenodd" clip-rule="evenodd" d="M34.9237 15.0656L123.247 2.53564L122.973 7.87908L34.9237 15.0656ZM122.87 9.86791L122.584 15.4359L51.2396 19.3786L122.87 9.86791ZM122.482 17.4202L122.196 22.989L68.0602 23.5719L122.482 17.4202Z" fill="white"/>
<path fill-rule="evenodd" clip-rule="evenodd" d="M204.925 52.0377C204.274 52.3649 203.621 52.6898 202.971 53.0191C201.636 53.6957 201.734 53.9537 201.189 55.5165C201.335 54.3009 201.39 52.9648 202.74 52.2585C203.196 52.0199 203.602 51.8124 203.923 51.6504C204.564 51.3277 204.705 51.5269 204.925 52.0377Z" fill="white"/>
<path fill-rule="evenodd" clip-rule="evenodd" d="M147.34 49.7606C147.611 49.1457 147.917 48.5621 148.26 48.0164L144.242 48.0982C144.242 48.0982 147.019 47.6967 148.627 47.4692C149.391 46.4008 150.149 45.835 151.155 45.2618L151.159 44.7978C148.424 44.7294 145.687 44.6625 142.945 44.6134C145.682 44.4023 148.559 44.1897 151.165 43.9845C151.182 41.4165 151.202 36.5793 151.218 34.3585L151.219 34.1734C151.226 32.9295 151.233 31.763 152.167 30.8582C150.443 30.1839 150.462 27.775 150.219 26.2486C149.965 24.6449 149.657 22.8761 149.448 21.9014C149.247 20.9609 149.043 20.1594 148.695 19.6323C148.377 19.152 147.917 18.8955 147.178 18.9669C145.805 19.1 143.251 19.7022 142.348 19.9215C142.333 20.3906 142.316 20.8843 142.3 21.3966L142.321 21.3973C142.446 21.401 142.602 21.4211 142.767 21.462V20.7609C143.994 20.5007 145.243 20.2427 146.485 20.0724C147.15 19.9817 147.815 19.9735 148.301 20.5014C148.589 20.8137 148.837 21.5966 149.037 22.4999C149.339 23.8664 149.546 25.5452 149.593 26.1936C149.593 28.0471 149.703 29.9355 149.726 31.7972C149.737 32.7645 149.51 33.1496 148.376 33.1295C147.919 33.1214 147.17 33.1013 146.647 33.0864L147.574 34.2641H149.037C149.162 34.2641 149.275 34.3147 149.356 34.3957C149.437 34.4767 149.488 34.5898 149.488 34.7132V38.0187C149.488 38.1421 149.437 38.2551 149.356 38.3362C149.275 38.4172 149.162 38.4678 149.037 38.4678H147.448C147.324 38.4678 147.211 38.4172 147.129 38.3362C147.047 38.2551 146.996 38.1421 146.996 38.0187V37.2775L143.758 33.1637C143.527 33.6188 143.092 33.9481 142.262 34.0284C142.142 34.0396 142.019 34.047 141.895 34.0515C141.867 34.8418 141.84 35.5942 141.814 36.2916C141.782 37.1236 141.751 37.8827 141.721 38.5436C141.577 41.7592 141.633 44.1733 141.839 46.0603C142.014 47.661 142.296 48.8766 142.658 49.8818C143.052 49.8796 143.362 49.8788 143.569 49.8788C145.094 49.881 146.477 49.8141 147.34 49.7606ZM142.779 45.2469C142.779 45.2469 143.991 45.2053 144.241 45.2588C144.491 45.3123 144.871 45.5852 144.943 45.9108C145.014 46.2372 145.05 46.8238 145.05 47.0015C145.05 47.1792 144.997 47.2565 144.907 47.2922C144.818 47.3279 143.522 47.4112 143.356 47.4164C143.189 47.4223 142.726 46.9718 142.666 46.7465C142.622 46.5792 142.584 45.974 142.568 45.6737C142.559 45.5108 142.584 45.3086 142.779 45.2469Z" fill="white"/>
<path fill-rule="evenodd" clip-rule="evenodd" d="M31.8198 53.7815H5.14199L7.4126 57.812H32.6845L31.8198 53.7815ZM33.0807 59.6595H10.4475L12.7181 63.69H33.9454L33.0807 59.6595Z" fill="white"/>
<path d="M5.73943 49V33.448H0.154286V29.128H17.1257V33.448H11.5406V49H5.73943ZM17.6107 49V34.3737H23.1958L23.3501 35.5463C23.9467 35.1966 24.7078 34.8777 25.6335 34.5897C26.5592 34.3017 27.4952 34.1269 28.4415 34.0651V38.3851C27.9067 38.4263 27.3204 38.4983 26.6827 38.6011C26.0655 38.704 25.4587 38.8377 24.8621 39.0023C24.2861 39.1463 23.8027 39.3109 23.4118 39.496V49H17.6107ZM34.3617 49.3086C33.436 49.3086 32.572 49.144 31.7697 48.8149C30.988 48.4857 30.3605 47.9714 29.8874 47.272C29.4143 46.5726 29.1777 45.688 29.1777 44.6183C29.1777 43.0754 29.692 41.8823 30.7205 41.0389C31.7491 40.1749 33.3023 39.7429 35.38 39.7429H39.1754V39.4651C39.1754 38.8891 38.9388 38.4674 38.4657 38.2C37.9925 37.9326 37.1594 37.7989 35.9663 37.7989C34.2794 37.7989 32.6131 38.056 30.9674 38.5703V35.0834C31.708 34.7954 32.6337 34.5589 33.7445 34.3737C34.8554 34.168 35.9868 34.0651 37.1388 34.0651C39.4634 34.0651 41.3045 34.5383 42.6623 35.4846C44.02 36.4309 44.6988 37.9326 44.6988 39.9897V49H39.6383L39.3605 47.8274C38.8463 48.28 38.1777 48.64 37.3548 48.9074C36.5525 49.1749 35.5548 49.3086 34.3617 49.3086ZM36.3365 45.9143C36.9948 45.9143 37.5503 45.8011 38.0028 45.5749C38.476 45.3486 38.8668 45.0709 39.1754 44.7417V42.9211H36.3674C35.092 42.9211 34.4543 43.4251 34.4543 44.4331C34.4543 45.4206 35.0817 45.9143 36.3365 45.9143ZM55.9676 49.3086C53.3139 49.3086 51.2156 48.6811 49.6728 47.4263C48.1299 46.1509 47.3585 44.2377 47.3585 41.6869C47.3585 39.9589 47.7185 38.5291 48.4385 37.3977C49.1585 36.2663 50.1665 35.4331 51.4625 34.8983C52.7585 34.3429 54.2705 34.0651 55.9985 34.0651C57.0888 34.0651 58.0659 34.1474 58.9299 34.312C59.7939 34.456 60.6168 34.7131 61.3985 35.0834V39.1566C60.1848 38.5806 58.8065 38.2926 57.2636 38.2926C55.9471 38.2926 54.9493 38.5394 54.2705 39.0331C53.6122 39.5269 53.2831 40.4114 53.2831 41.6869C53.2831 42.88 53.6019 43.744 54.2396 44.2789C54.8773 44.8137 55.8853 45.0811 57.2636 45.0811C58.0042 45.0811 58.7242 44.9989 59.4236 44.8343C60.1231 44.6491 60.7916 44.392 61.4293 44.0629V48.3211C60.6476 48.6709 59.8042 48.9177 58.8991 49.0617C58.0145 49.2263 57.0373 49.3086 55.9676 49.3086ZM64.2279 49V28.2023H70.029V38.4777L74.1021 34.3737H80.6747L74.8427 40.5451L81.0141 49H74.8427L71.2324 43.5691L70.029 44.7726V49H64.2279ZM83.6743 49V34.3737H89.1051L89.2594 35.4846C89.8149 35.1143 90.5451 34.7851 91.4503 34.4971C92.376 34.2091 93.3634 34.0651 94.4126 34.0651C96.2434 34.0651 97.5806 34.5177 98.424 35.4229C99.2674 36.328 99.6891 37.7269 99.6891 39.6194V49H93.888V40.2057C93.888 39.5474 93.744 39.0743 93.456 38.7863C93.168 38.4983 92.664 38.3543 91.944 38.3543C91.512 38.3543 91.0594 38.4571 90.5863 38.6629C90.1337 38.8686 89.7634 39.1154 89.4754 39.4034V49H83.6743ZM113.184 49.3086C109.646 49.3086 106.951 48.4446 105.1 46.7166C103.248 44.968 102.323 42.4789 102.323 39.2491C102.323 35.9166 103.279 33.3451 105.192 31.5349C107.106 29.7246 109.903 28.8194 113.586 28.8194C114.82 28.8194 115.931 28.8914 116.918 29.0354C117.926 29.1794 118.872 29.3954 119.757 29.6834V34.6514C118.852 34.3017 117.916 34.0651 116.949 33.9417C115.982 33.8183 114.995 33.7566 113.987 33.7566C112.074 33.7566 110.634 34.1886 109.667 35.0526C108.72 35.9166 108.247 37.3154 108.247 39.2491C108.247 41.0594 108.659 42.3657 109.482 43.168C110.325 43.9703 111.559 44.3714 113.184 44.3714C113.719 44.3714 114.223 44.3406 114.696 44.2789C115.17 44.1966 115.612 44.0937 116.023 43.9703V41.0697H112.074V37.4903H120.868V47.488C120.107 47.9611 119.088 48.3829 117.813 48.7531C116.558 49.1234 115.015 49.3086 113.184 49.3086ZM131.612 49.3086C128.691 49.3086 126.531 48.6606 125.132 47.3646C123.754 46.0686 123.065 44.176 123.065 41.6869C123.065 39.2183 123.764 37.336 125.163 36.04C126.562 34.7234 128.712 34.0651 131.612 34.0651C134.534 34.0651 136.694 34.7234 138.092 36.04C139.512 37.336 140.222 39.2183 140.222 41.6869C140.222 44.176 139.522 46.0686 138.123 47.3646C136.724 48.6606 134.554 49.3086 131.612 49.3086ZM131.612 45.0811C132.559 45.0811 133.238 44.8137 133.649 44.2789C134.081 43.744 134.297 42.88 134.297 41.6869C134.297 40.5143 134.081 39.6606 133.649 39.1257C133.238 38.5703 132.559 38.2926 131.612 38.2926C130.687 38.2926 130.018 38.5703 129.607 39.1257C129.195 39.6606 128.99 40.5143 128.99 41.6869C128.99 42.88 129.195 43.744 129.607 44.2789C130.018 44.8137 130.687 45.0811 131.612 45.0811Z" fill="white"/>
</g>
<defs>
<linearGradient id="paint0_linear_202_832" x1="145.414" y1="34.9062" x2="145.869" y2="29.5204" gradientUnits="userSpaceOnUse">
<stop stop-color="white"/>
<stop offset="1" stop-color="#828282"/>
</linearGradient>
<clipPath id="clip0_202_832">
<rect width="207" height="72" fill="white"/>
</clipPath>
</defs>
</svg>
