<svg width="161" height="56" viewBox="0 0 161 56" fill="none" xmlns="http://www.w3.org/2000/svg">
<path fill-rule="evenodd" clip-rule="evenodd" d="M135.75 44.9164C135.788 45.1142 135.822 45.3132 135.851 45.5116L146.07 46.9455L155.177 45.5794C155.306 45.4367 155.392 45.2952 155.447 45.1218C155.482 45.0092 155.506 44.881 155.521 44.7285C155.347 44.8375 155.099 44.9205 154.747 44.9849L147.63 46.2831C146.596 46.4716 146.246 46.4351 145.278 46.3156C144.571 46.228 143.555 46.0928 142.491 45.9472C140.325 45.6502 137.954 45.3086 137.571 45.2326C136.432 45.0052 136.222 45.0104 135.75 44.9164Z" fill="#FA6444"/>
<path fill-rule="evenodd" clip-rule="evenodd" d="M135.211 45.4217C134.54 41.2724 131.951 37.2669 128.087 35.4455C124.745 33.87 119.597 33.8798 116.942 36.7895C113.79 40.2445 113.809 47.4218 113.833 51.9841L114.181 52.0218C114.178 49.0947 114.325 43.9599 115.332 40.8698C116.471 37.3771 119.024 37.6051 120.534 40.7445C121.195 42.1187 121.643 43.751 121.885 44.8932L135.12 45.4083L135.211 45.4217ZM124.739 42.3316C124.545 41.8594 124.358 41.3356 124.218 40.8936V40.8924C124.037 40.3181 124.16 39.9672 124.474 39.7647C124.737 39.5959 125.124 39.5797 125.561 39.6395C126.219 39.7294 127.298 39.8871 128.417 40.0902C129.178 40.2282 129.957 40.3872 130.63 40.5595C131.177 40.6993 131.602 40.8286 131.956 40.9847C132.33 41.15 132.629 41.346 132.904 41.614C133.12 41.824 133.373 42.1843 133.608 42.5613C133.981 43.1611 134.323 43.8311 134.379 43.979C134.405 44.0492 134.421 44.1182 134.427 44.1844C134.438 44.3137 134.411 44.4384 134.341 44.5492C134.275 44.6554 134.173 44.7407 134.031 44.7935C133.957 44.8213 133.874 44.8399 133.782 44.8474C133.591 44.8631 132.223 44.7766 130.767 44.6635C129.486 44.5643 128.13 44.4454 127.453 44.3607C126.699 44.2667 126.257 44.1722 125.945 44.0266C125.596 43.863 125.429 43.6565 125.232 43.345C125.08 43.1054 124.907 42.7388 124.739 42.3316Z" fill="#FA6444"/>
<path fill-rule="evenodd" clip-rule="evenodd" d="M124.81 40.7068L124.837 40.7926C126.781 41.0548 128.729 41.2869 130.634 41.7741C131.141 41.9041 131.536 42.0236 131.862 42.168C132.168 42.3032 132.409 42.461 132.628 42.6738C132.814 42.8543 133.45 43.6762 133.799 44.2012L133.797 44.1948C133.749 44.0684 133.435 43.4593 133.08 42.8885C132.867 42.5462 132.646 42.2272 132.471 42.0578C132.252 41.8449 132.011 41.6871 131.705 41.552C131.379 41.4075 130.983 41.288 130.476 41.1581C129.82 40.9905 129.056 40.8344 128.306 40.6981C127.208 40.4991 126.135 40.3419 125.476 40.252C125.174 40.2108 124.927 40.2085 124.807 40.2851C124.741 40.3297 124.731 40.4556 124.81 40.7068Z" fill="#FA6444"/>
<path fill-rule="evenodd" clip-rule="evenodd" d="M120.243 51.1256C119.986 53.9268 119.064 56 117.966 56C116.668 56 115.616 53.1089 115.616 49.5431C115.616 47.1996 116.07 45.1479 116.75 44.0167C116.396 45.0841 116.18 46.5029 116.18 48.061C116.18 51.3773 117.158 54.0654 118.364 54.0654C119.164 54.0649 119.863 52.8856 120.243 51.1256Z" fill="#FA6444"/>
<path fill-rule="evenodd" clip-rule="evenodd" d="M160.317 44.0399C160.278 44.0753 160.236 44.1078 160.191 44.1362C159.963 44.2795 159.49 44.3996 159.022 44.4901C158.582 44.5759 158.134 44.6386 157.936 44.6664C157.399 44.7407 157.055 44.7552 156.805 44.6032C156.517 44.4297 156.428 44.1258 156.443 43.5828C156.456 43.1228 156.514 42.4679 156.657 41.9093C156.77 41.4708 156.939 41.0827 157.189 40.8594C157.68 40.4197 158.673 39.9063 159.168 39.6638C158.485 38.3865 157.478 37.2484 156.092 36.2808L156.108 37.6562C156.134 40.013 156.159 42.1593 156.16 44.1994C156.161 44.6763 156.128 45.0197 156.038 45.3068C156.022 45.3596 156.004 45.4107 155.984 45.4594L160.336 44.8068C160.337 44.5475 160.33 44.2923 160.317 44.0399Z" fill="#FA6444"/>
<path fill-rule="evenodd" clip-rule="evenodd" d="M122.557 53.9732C122.429 54.6328 122.29 55.2018 122.146 55.7744C123.717 55.9809 124.843 55.9565 126.104 55.9292H126.113C126.351 55.924 127.464 55.9037 129.139 55.873C136.425 55.7396 154.4 55.4101 157.959 55.2743C158.385 55.2581 158.634 54.9443 158.786 54.5475V54.5463C158.896 54.2557 158.958 53.9204 158.995 53.6066C158.922 53.6391 158.878 53.6576 158.878 53.6576L158.821 53.682L158.218 53.6901L158.11 54.1948C158.054 54.4593 157.986 54.5556 157.715 54.5655C155.782 54.6357 153.841 54.6699 151.906 54.7128C148.707 54.783 145.507 54.8468 142.307 54.9089C137.913 54.9942 133.519 55.0754 129.125 55.156C128.116 55.1746 127.106 55.1908 126.097 55.2123H126.088C125.037 55.2349 124.057 55.2372 123.037 55.1496C123.055 55.0742 123.184 54.5109 123.278 54.0939C123.025 54.0718 122.778 54.0347 122.557 53.9732ZM138.583 49.2137C138.6 49.4811 138.619 49.8865 138.592 50.0385C138.543 50.3059 138.371 50.3802 138.142 50.3814C137.955 50.3819 137.644 50.3785 137.463 50.3663C137.177 50.3471 137.137 50.0913 137.123 49.8303C137.117 49.7125 137.112 49.5066 137.111 49.3465C137.109 49.0222 137.225 48.9161 137.535 48.9167C137.736 48.9172 138.197 48.9236 138.317 48.9236C138.479 48.9242 138.573 49.0646 138.583 49.2137ZM153.541 49.0321C153.536 49.285 153.534 49.6696 153.567 49.8129C153.637 50.1221 153.844 50.1383 154.095 50.1377C154.252 50.1371 154.455 50.1342 154.6 50.1267C154.911 50.1105 154.946 49.9353 154.949 49.6162C154.95 49.5025 154.946 49.3013 154.94 49.1487C154.933 48.9416 154.863 48.7624 154.604 48.7513C154.532 48.7484 153.918 48.7577 153.78 48.7577C153.627 48.7577 153.544 48.8906 153.541 49.0321ZM142.047 50.2543C142.57 50.2503 144.368 50.2358 146.221 50.223C148.062 50.2097 149.934 50.1969 150.588 50.1963C151.154 50.1957 151.473 50.4382 151.448 51.0299C151.442 51.1639 151.427 51.3182 151.389 51.4719C151.227 52.1187 150.797 52.3588 150.191 52.3681C149.117 52.385 142.314 52.4911 142.042 52.4627C141.877 52.4459 141.654 52.414 141.456 52.2829C141.047 52.0131 141.05 51.5235 141.047 51.0862C141.043 50.4788 141.174 50.2613 142.047 50.2543ZM156.004 53.1072L158.685 53.0735C158.959 52.954 160.145 52.4203 160.431 52.0357C160.609 51.7979 160.6 51.5659 160.591 51.3478C160.585 51.1772 160.578 51.0131 160.626 50.8269C160.686 50.5954 160.786 50.158 160.869 49.6493C160.924 49.3082 160.971 48.9364 160.992 48.5767C161.014 48.1858 160.989 47.6869 160.946 47.2379C160.894 46.6973 160.826 46.2506 160.786 46.1793C160.765 46.1433 160.48 46.054 160.236 45.9832L156.225 46.583C156.324 47.72 156.478 50.4591 156.004 53.1072ZM135.903 53.3595L155.584 53.1124C156.063 50.5078 155.914 47.7878 155.816 46.6445L146.072 48.1016L135.584 46.6346C135.75 47.999 136.099 51.2828 135.903 53.3595ZM135.058 46.5609L122.285 46.065C122.2 46.0888 121.978 46.1717 122.024 46.3695C122.217 47.1956 122.47 48.546 122.596 49.8111C122.67 50.5652 122.7 51.2921 122.645 51.8675C122.556 52.8009 123.17 53.5196 124.137 53.5074L135.487 53.3647C135.695 51.277 135.319 47.8621 135.161 46.5749L135.058 46.5609ZM157.509 50.0026C157.983 49.8732 157.97 49.3685 157.977 48.9706C157.991 48.1301 157.91 47.5952 158.806 47.3267C159.107 47.2362 159.439 47.1979 159.694 47.1857C160.073 47.1671 160.446 47.1811 160.546 47.6196C160.637 48.0204 160.63 48.749 160.575 49.1609C160.479 49.8755 160.148 50.1238 159.428 50.1888C158.6 50.2648 157.279 50.2961 156.607 50.3164L157.509 50.0026ZM135.036 50.8042H129.441C128.959 50.8042 128.625 50.52 128.397 50.1325C128.076 49.5866 127.973 48.8238 127.963 48.441C127.941 47.6706 128.457 47.3893 129.163 47.4044C129.697 47.416 130.78 47.4392 131.448 47.5535C132.207 47.6834 132.515 48.0338 132.708 48.76C132.846 49.2815 132.888 49.7798 132.951 50.3181L135.036 50.8042Z" fill="#FA6444"/>
<path fill-rule="evenodd" clip-rule="evenodd" d="M114.679 54.066H114.208C114.202 53.816 114.19 53.3171 114.184 52.646L113.418 52.563C113.425 52.9888 113.441 53.8734 113.446 54.0846L113.45 54.2151L98.9079 52.2057L98.8841 50.9922L98.1372 50.9115L98.1494 52.8705L114.201 55.0887L114.679 54.066Z" fill="#FA6444"/>
<path fill-rule="evenodd" clip-rule="evenodd" d="M153.281 29.5594C151.039 27.847 148.369 26.1346 145.879 24.797C145.506 24.5962 144.999 24.4506 143.467 24.3358C136.882 23.8439 124.224 24.084 121.249 24.2029C124.1 25.0777 133.666 28.0773 135.087 29.5258C140.65 28.5541 147.705 28.6348 153.281 29.5594Z" fill="#FA6444"/>
<path fill-rule="evenodd" clip-rule="evenodd" d="M116.015 11.3356C115.819 11.4023 115.754 11.5671 115.82 11.7591L116.234 12.8009C116.268 12.8862 116.349 12.9482 116.535 12.9912C117.038 13.1188 117.957 13.0208 118.549 12.9976C126.045 12.7081 133.553 12.8607 141.039 13.3415C142.934 13.4634 144.08 18.7908 144.705 21.7138C144.533 20.2462 144.062 16.7599 143.299 14.4518C142.697 12.6286 141.997 11.7718 140.541 11.6146C134.421 10.9522 124.972 10.8373 118.319 11.0386C117.377 11.0676 116.953 11.0479 116.015 11.3356ZM132.292 13.6107C132.868 16.0244 133.607 19.4643 134.249 23.5359C134.039 23.5312 133.829 23.5266 133.619 23.5219C132.969 19.4243 132.223 15.9792 131.651 13.5939C131.865 13.5997 132.079 13.6049 132.292 13.6107Z" fill="#FA6444"/>
<path fill-rule="evenodd" clip-rule="evenodd" d="M111.009 15.1148C111.802 14.9234 113.677 14.4878 114.726 14.3863C116.361 14.2279 116.669 15.7309 116.942 17.0082C117.245 18.4236 117.499 19.9347 117.704 21.4041C117.791 22.0352 117.939 23.3108 118.697 23.5039C118.26 21.6228 117.888 19.2943 117.569 17.4955C117.335 16.1781 117.147 15.033 117.118 14.6328C117.094 14.3068 117.166 13.9112 117.394 13.6675C116.956 13.6745 116.636 13.6513 116.397 13.5962C115.975 13.4993 115.771 13.3096 115.66 13.03L115.245 11.9882C115.04 11.4731 115.299 10.9081 115.834 10.7445C116.83 10.4394 117.31 10.4516 118.303 10.4214C125.471 10.2045 132.63 10.0884 139.776 10.7932C140.035 10.8188 140.278 10.8443 140.507 10.8698C139.831 10.1076 138.763 9.75026 137.773 9.65861C136.243 9.51707 130.644 9.35639 125.226 9.25835C120.65 9.1754 116.209 9.1377 114.468 9.19454C112.726 9.25081 112.069 9.60988 111.662 10.259C111.008 11.3002 111.056 13.7714 111.009 15.1148Z" fill="#FA6444"/>
<path fill-rule="evenodd" clip-rule="evenodd" d="M111.482 42.8009L112.745 41.1529L105.721 41.2225L106.06 42.8009H111.482ZM103.599 44.9431C103.45 45.2418 103.144 45.8788 103.105 46.1485C103.071 46.3782 103.215 47.409 103.533 47.4543C103.602 47.4641 104.169 47.4705 104.285 47.4717C104.702 47.4746 104.658 47.2808 104.509 46.7118C104.422 46.3788 104.36 46.1114 104.858 45.0672C104.921 44.9344 104.938 44.7842 104.763 44.7778C104.649 44.7737 104.018 44.7766 103.857 44.7795C103.725 44.7813 103.664 44.8114 103.599 44.9431ZM113.214 51.918C113.212 51.6082 113.211 51.2874 113.21 50.9568L97.4675 49.2554C97.4739 49.6661 97.4797 50.0008 97.4837 50.2178L113.214 51.918ZM113.211 50.3332C113.221 47.5071 113.344 44.0962 114.121 41.139L113.384 41.1465L111.315 43.8468H97.4059C97.4071 45.1456 97.4344 47.1608 97.457 48.6307L106.268 49.5832C106.068 48.8244 105.809 47.2692 105.736 46.7263C105.679 46.3098 105.822 45.5887 105.926 45.1473C105.998 44.8364 106.148 44.703 106.487 44.7186C106.635 44.725 111.311 44.7656 111.642 44.7807C111.973 44.7958 112.034 44.9379 111.987 45.2025C111.94 45.4675 111.765 45.9577 111.784 47.1886L111.829 50.1847L113.211 50.3332ZM108.856 49.8622L109.299 49.9103C109.428 49.9173 109.551 49.9231 109.633 49.9237C109.855 49.9254 109.853 49.7351 109.791 49.5652C109.749 49.4503 109.621 49.0756 109.528 48.7229C109.469 48.4944 109.411 48.4596 109.18 48.4491L108.57 48.4213C108.371 48.4126 108.318 48.535 108.369 48.709C108.473 49.0553 108.617 49.4416 108.705 49.6725C108.746 49.7769 108.79 49.8326 108.856 49.8622Z" fill="#FA6444"/>
<path fill-rule="evenodd" clip-rule="evenodd" d="M101.554 7.89864C101.666 6.75937 102.147 1.94181 102.432 0.597183C102.486 0.346008 102.563 0.151682 102.665 0.00086085C101.708 -0.000879389 100.907 0.000280771 100.312 0.00202101C99.3774 0.00492141 98.7419 0.714359 98.692 1.55547L98.244 9.12957C99.916 8.57154 101.344 7.97405 101.554 7.89864ZM118.95 8.55704C118.696 2.20168 108.773 0.0809118 103.793 0.00666165C103.208 -0.00203955 102.986 -0.0211822 102.837 0.681294C102.569 1.94587 102.122 6.34809 101.984 7.74898C102.352 7.62369 102.734 7.50129 103.117 7.38933C105.978 6.55228 108.945 6.37188 111.856 8.92887C112.634 8.70612 113.563 8.60692 114.384 8.57908C115.287 8.54775 116.931 8.54311 118.95 8.55704ZM117.891 0.268278C122.209 1.2811 127.617 3.62694 127.984 8.69452C130.165 8.74208 132.258 8.79777 133.979 8.85578C132.767 1.93369 123.675 0.491028 117.891 0.268278ZM124.255 0.620966C128.783 1.64423 133.557 3.76326 134.4 8.87028C135.979 8.92597 137.197 8.98397 137.807 9.03908C136.13 1.98589 130.517 1.11461 124.255 0.620966ZM127.57 8.68523C127.123 3.00045 119.867 0.840816 115.159 0.176045C112.838 0.109336 110.516 0.0658298 108.194 0.0379859C112.629 0.950451 119.164 3.14547 119.364 8.55994C121.14 8.57444 123.175 8.60228 125.236 8.63941C126.014 8.65391 126.796 8.66899 127.57 8.68523Z" fill="#FA6444"/>
<path fill-rule="evenodd" clip-rule="evenodd" d="M153.63 30.2451C150.955 29.7706 147.825 29.5095 144.696 29.4718C141.466 29.4329 138.24 29.6313 135.519 30.0786C135.889 30.6859 136.07 31.4568 136.15 32.5428L136.971 43.5875C137.014 44.1763 137.071 44.4547 137.691 44.5782C138.078 44.6554 140.429 44.9936 142.571 45.2859C143.629 45.4304 144.636 45.5644 145.327 45.6502C146.236 45.7628 146.549 45.8022 147.518 45.6259L154.635 44.3317C155.31 44.2093 155.315 43.9477 155.326 43.4053C155.361 41.7411 155.35 40.2752 155.325 38.611C155.292 36.235 155.228 33.7499 155.173 32.2788C155.127 31.0775 154.805 30.4533 153.63 30.2451ZM136.96 31.7382C136.898 31.172 137.385 31.1378 137.823 31.1685L140.18 31.3327C140.418 31.3495 140.604 31.5381 140.616 31.7759L141.249 44.0573C141.264 44.352 141.197 44.5127 140.878 44.4605L139.015 44.1525C137.943 43.9755 137.858 44.0417 137.796 43.0724L136.96 31.7382ZM149.906 44.7656L147.127 45.2349C146.663 45.3173 146.558 45.254 146.547 44.794L146.259 32.1848C146.253 31.9366 146.443 31.7272 146.691 31.7074L150.049 31.4423C150.321 31.4209 150.552 31.6309 150.556 31.9035L150.694 43.9164C150.702 44.5823 150.714 44.6328 149.906 44.7656ZM154.49 32.0097L154.452 43.1414C154.455 43.8288 154.379 43.9193 153.75 44.0724L151.794 44.3996C151.206 44.4965 151.213 44.3021 151.208 43.7998L151.07 31.7991C151.067 31.5526 151.255 31.3466 151.502 31.3269L153.726 31.1511C154.335 31.1511 154.51 31.4476 154.49 32.0097ZM142.421 44.7221C141.975 44.6496 141.791 44.5487 141.768 44.0875L141.141 31.9261C141.126 31.6436 141.36 31.4157 141.643 31.4354L145.305 31.6906C145.547 31.7074 145.736 31.9047 145.742 32.1471L146.033 44.8782C146.042 45.272 145.908 45.3196 145.548 45.2569L142.421 44.7221Z" fill="#FA6444"/>
<path fill-rule="evenodd" clip-rule="evenodd" d="M112.285 25.1456L114.623 28.1225V27.2002L112.326 24.276C112.32 24.3805 112.318 24.4756 112.315 24.5707C112.309 24.7639 112.302 24.9582 112.285 25.1456Z" fill="url(#paint0_linear_192_3931)"/>
<path fill-rule="evenodd" clip-rule="evenodd" d="M108.738 17.9752C108.707 18.4671 108.636 19.9846 108.573 21.4789C108.509 22.9737 108.451 24.4472 108.443 24.8706C108.438 25.145 108.552 25.3596 108.715 25.5186C108.956 25.7523 109.295 25.877 109.552 25.9061C109.755 25.9293 110.015 25.9519 110.276 25.9594C110.476 25.9646 110.681 25.9617 110.869 25.9438C111.654 25.8683 111.674 25.1966 111.695 24.5318V24.5307C111.699 24.4019 111.704 24.2737 111.71 24.1658C111.742 23.6432 111.779 21.7759 111.782 20.1905C111.785 19.0547 111.772 18.068 111.73 17.8412C111.702 17.6892 111.615 17.579 111.507 17.5013C111.329 17.3719 111.099 17.3244 110.953 17.3191C110.847 17.3157 110.618 17.318 110.361 17.3226C110.105 17.3273 109.813 17.3342 109.586 17.34C109.306 17.347 109.072 17.3563 108.94 17.4357C108.83 17.5019 108.759 17.6556 108.738 17.9752Z" fill="#FA6444"/>
<path fill-rule="evenodd" clip-rule="evenodd" d="M27.1408 11.7538L96.0845 1.97777L95.8704 6.1468L27.1408 11.7538ZM95.7903 7.69851L95.5668 12.0427L39.8767 15.1189L95.7903 7.69851ZM95.4873 13.591L95.2645 17.9358L53.0066 18.3905L95.4873 13.591Z" fill="#FA6444"/>
<path fill-rule="evenodd" clip-rule="evenodd" d="M159.841 40.6006C159.333 40.8559 158.822 41.1094 158.315 41.3663C157.273 41.8942 157.35 42.0955 156.925 43.3148C157.038 42.3664 157.081 41.324 158.135 40.7729C158.491 40.5867 158.808 40.4249 159.059 40.2984C159.559 40.0466 159.669 40.2021 159.841 40.6006Z" fill="#FA6444"/>
<path fill-rule="evenodd" clip-rule="evenodd" d="M114.891 38.8239C115.103 38.3441 115.341 37.8888 115.609 37.463L112.473 37.5268C112.473 37.5268 114.64 37.2136 115.895 37.0361C116.492 36.2025 117.083 35.761 117.869 35.3138L117.872 34.9518C115.737 34.8985 113.601 34.8462 111.46 34.808C113.597 34.6432 115.842 34.4773 117.877 34.3172C117.89 32.3136 117.905 28.5396 117.918 26.8069L117.919 26.6625C117.924 25.692 117.93 24.7819 118.658 24.0759C117.313 23.5498 117.328 21.6703 117.139 20.4794C116.94 19.2282 116.699 17.8482 116.537 17.0877C116.379 16.3539 116.22 15.7286 115.948 15.3173C115.7 14.9426 115.341 14.7424 114.764 14.7981C113.692 14.9019 111.699 15.3718 110.994 15.5429C110.982 15.909 110.969 16.2941 110.957 16.6938L110.973 16.6944C111.071 16.6973 111.192 16.713 111.321 16.7449V16.1978C112.279 15.9948 113.254 15.7935 114.223 15.6607C114.742 15.5899 115.262 15.5835 115.641 15.9954C115.866 16.239 116.06 16.8499 116.216 17.5547C116.451 18.6208 116.613 19.9307 116.649 20.4365C116.649 21.8826 116.735 23.356 116.753 24.8085C116.762 25.5632 116.585 25.8637 115.7 25.848C115.343 25.8417 114.759 25.826 114.35 25.8144L115.074 26.7333H116.216C116.313 26.7333 116.401 26.7727 116.464 26.8359C116.528 26.8992 116.567 26.9873 116.567 27.0836V29.6627C116.567 29.7589 116.528 29.8471 116.464 29.9103C116.401 29.9736 116.313 30.013 116.216 30.013H114.975C114.878 30.013 114.79 29.9736 114.726 29.9103C114.662 29.8471 114.623 29.7589 114.623 29.6627V29.0843L112.095 25.8747C111.914 26.2297 111.575 26.4867 110.927 26.5494C110.834 26.5581 110.737 26.5639 110.64 26.5673C110.619 27.184 110.598 27.771 110.577 28.3151C110.552 28.9642 110.528 29.5565 110.505 30.0722C110.393 32.581 110.436 34.4646 110.597 35.9368C110.733 37.1857 110.954 38.1341 111.236 38.9184C111.544 38.9167 111.786 38.9161 111.947 38.9161C113.138 38.9178 114.217 38.8656 114.891 38.8239ZM111.33 35.3022C111.33 35.3022 112.277 35.2697 112.472 35.3115C112.667 35.3532 112.963 35.5661 113.02 35.8202C113.076 36.0749 113.103 36.5325 113.103 36.6712C113.103 36.8098 113.062 36.8701 112.992 36.898C112.922 36.9258 111.911 36.9908 111.781 36.9949C111.651 36.9995 111.289 36.648 111.242 36.4722C111.208 36.3417 111.178 35.8695 111.166 35.6352C111.159 35.5081 111.178 35.3503 111.33 35.3022Z" fill="#FA6444"/>
<path fill-rule="evenodd" clip-rule="evenodd" d="M24.7177 41.9608H3.89343L5.66583 45.1054H25.3926L24.7177 41.9608ZM25.702 46.5469H8.03484L9.80724 49.6915H26.3769L25.702 46.5469Z" fill="#FA6444"/>
<path d="M4.35967 38.1195V25.9856H0V22.615H13.2476V25.9856H8.88795V38.1195H4.35967Z" fill="#FA6444"/>
<path d="M13.6262 38.1195V26.7078H17.9858L18.1063 27.6227C18.5719 27.3498 19.1661 27.101 19.8887 26.8763C20.6113 26.6516 21.3419 26.5152 22.0806 26.4671V29.8376C21.6631 29.8697 21.2054 29.9259 20.7076 30.0061C20.2259 30.0864 19.7522 30.1907 19.2865 30.3191C18.8369 30.4314 18.4595 30.5598 18.1544 30.7043V38.1195H13.6262Z" fill="#FA6444"/>
<path d="M26.7017 38.3602C25.9791 38.3602 25.3047 38.2318 24.6785 37.975C24.0683 37.7182 23.5785 37.317 23.2092 36.7712C22.8399 36.2255 22.6552 35.5354 22.6552 34.7008C22.6552 33.497 23.0566 32.5661 23.8595 31.9081C24.6624 31.234 25.8748 30.8969 27.4966 30.8969H30.4592V30.6802C30.4592 30.2308 30.2746 29.9018 29.9053 29.6931C29.5359 29.4845 28.8856 29.3802 27.9542 29.3802C26.6375 29.3802 25.3368 29.5808 24.0522 29.982V27.2615C24.6303 27.0368 25.3529 26.8523 26.22 26.7078C27.0871 26.5473 27.9703 26.4671 28.8695 26.4671C30.6841 26.4671 32.1212 26.8362 33.181 27.5745C34.2408 28.3128 34.7707 29.4845 34.7707 31.0895V38.1195H30.8205L30.6038 37.2046C30.2023 37.5577 29.6804 37.8386 29.0381 38.0472C28.4119 38.2559 27.6331 38.3602 26.7017 38.3602ZM28.2433 35.7119C28.7571 35.7119 29.1907 35.6237 29.544 35.4471C29.9133 35.2706 30.2184 35.0539 30.4592 34.7971V33.3766H28.2674C27.2718 33.3766 26.774 33.7699 26.774 34.5563C26.774 35.3267 27.2638 35.7119 28.2433 35.7119Z" fill="#FA6444"/>
<path d="M43.567 38.3602C41.4955 38.3602 39.8577 37.8707 38.6533 36.8916C37.449 35.8965 36.8468 34.4039 36.8468 32.4136C36.8468 31.0654 37.1278 29.9499 37.6899 29.0672C38.2519 28.1844 39.0387 27.5344 40.0504 27.1171C41.062 26.6837 42.2422 26.4671 43.5911 26.4671C44.4421 26.4671 45.2049 26.5313 45.8793 26.6597C46.5537 26.772 47.196 26.9726 47.8062 27.2615V30.4395C46.8588 29.9901 45.783 29.7654 44.5786 29.7654C43.5509 29.7654 42.7721 29.958 42.2422 30.3432C41.7284 30.7284 41.4715 31.4185 41.4715 32.4136C41.4715 33.3445 41.7203 34.0186 42.2181 34.4359C42.7159 34.8533 43.5028 35.0619 44.5786 35.0619C45.1567 35.0619 45.7187 34.9977 46.2647 34.8693C46.8106 34.7249 47.3325 34.5242 47.8303 34.2674V37.5898C47.2201 37.8627 46.5618 38.0553 45.8552 38.1676C45.1647 38.296 44.402 38.3602 43.567 38.3602Z" fill="#FA6444"/>
<path d="M50.0148 38.1195V21.8928H54.5431V29.9098L57.7225 26.7078H62.8529L58.3006 31.5229L63.1179 38.1195H58.3006L55.4824 33.8822L54.5431 34.8212V38.1195H50.0148Z" fill="#FA6444"/>
<path d="M65.1944 38.1195V26.7078H69.4336L69.554 27.5745C69.9876 27.2856 70.5576 27.0288 71.2642 26.8041C71.9868 26.5794 72.7575 26.4671 73.5765 26.4671C75.0056 26.4671 76.0494 26.8202 76.7077 27.5264C77.3661 28.2326 77.6953 29.324 77.6953 30.8006V38.1195H73.167V31.258C73.167 30.7444 73.0546 30.3753 72.8298 30.1506C72.605 29.9259 72.2116 29.8135 71.6496 29.8135C71.3124 29.8135 70.9591 29.8938 70.5898 30.0543C70.2365 30.2148 69.9474 30.4074 69.7226 30.6321V38.1195H65.1944Z" fill="#FA6444"/>
<path d="M88.2295 38.3602C85.4676 38.3602 83.3641 37.6861 81.9189 36.3379C80.4737 34.9736 79.7511 33.0316 79.7511 30.5117C79.7511 27.9116 80.4977 25.9053 81.9911 24.4929C83.4845 23.0805 85.6683 22.3743 88.5427 22.3743C89.5061 22.3743 90.3732 22.4304 91.144 22.5428C91.9308 22.6551 92.6695 22.8237 93.36 23.0484V26.9245C92.6534 26.6516 91.9228 26.4671 91.1681 26.3708C90.4134 26.2745 89.6426 26.2263 88.8558 26.2263C87.3624 26.2263 86.2384 26.5634 85.4837 27.2375C84.745 27.9116 84.3757 29.003 84.3757 30.5117C84.3757 31.9241 84.6968 32.9433 85.3391 33.5692C85.9975 34.1952 86.961 34.5082 88.2295 34.5082C88.647 34.5082 89.0405 34.4841 89.4098 34.4359C89.7791 34.3717 90.1244 34.2915 90.4455 34.1952V31.9321H87.3624V29.1394H94.2271V36.9398C93.633 37.3089 92.8381 37.638 91.8425 37.9269C90.863 38.2158 89.6587 38.3602 88.2295 38.3602Z" fill="#FA6444"/>
<path d="M102.614 38.3602C100.334 38.3602 98.6478 37.8546 97.5559 36.8435C96.48 35.8323 95.9421 34.3557 95.9421 32.4136C95.9421 30.4876 96.488 29.019 97.58 28.0079C98.6719 26.9807 100.35 26.4671 102.614 26.4671C104.894 26.4671 106.58 26.9807 107.672 28.0079C108.78 29.019 109.334 30.4876 109.334 32.4136C109.334 34.3557 108.788 35.8323 107.696 36.8435C106.604 37.8546 104.91 38.3602 102.614 38.3602ZM102.614 35.0619C103.353 35.0619 103.883 34.8533 104.204 34.4359C104.541 34.0186 104.71 33.3445 104.71 32.4136C104.71 31.4988 104.541 30.8327 104.204 30.4154C103.883 29.982 103.353 29.7654 102.614 29.7654C101.891 29.7654 101.37 29.982 101.048 30.4154C100.727 30.8327 100.567 31.4988 100.567 32.4136C100.567 33.3445 100.727 34.0186 101.048 34.4359C101.37 34.8533 101.891 35.0619 102.614 35.0619Z" fill="#FA6444"/>
<defs>
<linearGradient id="paint0_linear_192_3931" x1="85.1151" y1="43.0685" x2="84.015" y2="-18.5255" gradientUnits="userSpaceOnUse">
<stop stop-color="white"/>
<stop offset="1" stop-color="#828282"/>
</linearGradient>
</defs>
</svg>
