<svg width="48" height="48" viewBox="0 0 48 48" fill="none" xmlns="http://www.w3.org/2000/svg">
<path d="M10.8346 35.8366L10.8826 35.8776C11.3553 36.3557 11.9184 36.735 12.5392 36.9932C13.1599 37.2515 13.8258 37.3837 14.4981 37.382C15.7493 37.3854 16.9582 36.9255 17.8904 36.0909L18.1235 35.8776C18.4621 35.5357 18.8651 35.2644 19.3094 35.0795C19.7536 34.8946 20.2302 34.7998 20.7113 34.8005H20.7156C21.1986 34.7995 21.677 34.8943 22.1232 35.0794C22.5693 35.2645 22.9743 35.5363 23.3147 35.879L23.4249 35.9892C24.3844 36.9467 25.6845 37.4844 27.04 37.4844C28.3955 37.4844 29.6957 36.9467 30.6552 35.9892L30.836 35.8084C31.5241 35.1218 32.4564 34.7363 33.4284 34.7363C34.4004 34.7363 35.3328 35.1218 36.0209 35.8084L36.148 35.9355C36.9917 36.7755 38.1013 37.2958 39.2865 37.4072C40.4718 37.5187 41.6589 37.2144 42.6444 36.5465L41.8294 35.3514C41.1222 35.8301 40.2705 36.048 39.4204 35.9677C38.5702 35.8874 37.7744 35.514 37.1693 34.9114L37.0436 34.7857C36.0845 33.8274 34.7842 33.2891 33.4284 33.2891C32.0726 33.2891 30.7723 33.8274 29.8133 34.7857L29.6325 34.9665C28.9446 35.6535 28.0122 36.0394 27.04 36.0394C26.0679 36.0394 25.1355 35.6535 24.4476 34.9665L24.3374 34.8563C23.8631 34.3788 23.2987 34.0002 22.677 33.7423C22.0553 33.4844 21.3886 33.3525 20.7156 33.3541H20.71C19.4606 33.3519 18.2545 33.8115 17.3233 34.6445L17.0902 34.8578C16.748 35.2018 16.3408 35.4743 15.8922 35.6593C15.4436 35.8444 14.9627 35.9383 14.4775 35.9355C13.9922 35.9327 13.5124 35.8334 13.0659 35.6433C12.6195 35.4531 12.2154 35.176 11.8771 34.8281L11.8277 34.7857C10.9886 33.9474 9.88415 33.4269 8.70348 33.3134C7.52281 33.1998 6.33941 33.5004 5.35596 34.1635L6.16677 35.3613C6.87829 34.8842 7.73412 34.6706 8.58641 34.7573C9.43869 34.8441 10.2339 35.2259 10.8346 35.8366Z" fill="white"/>
<path d="M41.8276 42.1192C41.1214 42.6003 40.2692 42.8195 39.4185 42.7387C38.5678 42.658 37.7721 42.2824 37.169 41.677L37.0432 41.5513C36.0842 40.593 34.7839 40.0547 33.4281 40.0547C32.0723 40.0547 30.772 40.593 29.813 41.5513L29.6322 41.7321C28.9443 42.4191 28.0119 42.805 27.0397 42.805C26.0676 42.805 25.1352 42.4191 24.4473 41.7321L24.3357 41.6205C23.3726 40.6634 22.0694 40.127 20.7116 40.1287C19.3538 40.1304 18.052 40.6701 17.0913 41.6297C16.4031 42.3171 15.47 42.703 14.4974 42.7026C13.5247 42.7022 12.592 42.3155 11.9043 41.6276L11.8274 41.5513C10.9881 40.7119 9.88237 40.1915 8.70067 40.0798C7.51897 39.968 6.33528 40.2718 5.35352 40.939L6.16857 42.134C6.87233 41.6565 7.72062 41.4393 8.56727 41.52C9.41393 41.6007 10.2059 41.9742 10.8068 42.5761L10.8838 42.6524C11.3593 43.1276 11.9238 43.5043 12.5451 43.7611C13.1663 44.018 13.8321 44.1498 14.5044 44.149C15.1766 44.1483 15.8421 44.0151 16.4628 43.7569C17.0836 43.4988 17.6473 43.1208 18.1218 42.6446C18.8117 41.9586 19.7452 41.5736 20.7181 41.5736C21.6911 41.5736 22.6245 41.9586 23.3144 42.6446L23.4246 42.7548C24.3841 43.7123 25.6843 44.25 27.0398 44.25C28.3953 44.25 29.6954 43.7123 30.6549 42.7548L30.8357 42.574C31.5238 41.8875 32.4561 41.5019 33.4281 41.5019C34.4002 41.5019 35.3325 41.8875 36.0206 42.574L36.1463 42.6997C36.9881 43.5442 38.0987 44.0677 39.2858 44.1794C40.4729 44.2911 41.6617 43.984 42.6463 43.3114L41.8276 42.1192Z" fill="white"/>
<path d="M16.152 34.2419C16.2125 34.1971 16.2683 34.1462 16.3183 34.09L16.8535 33.562H16.9331C17.0537 33.4664 17.1793 33.3771 17.3092 33.2944C18.3149 32.6215 19.4984 32.2639 20.7085 32.2674H20.7157C21.5995 32.2642 22.4733 32.4543 23.2759 32.8244V16.4646L10.1853 19.5384L10.1129 20.023C10.0985 20.117 8.89066 28.9044 16.152 34.2419Z" fill="white"/>
<path d="M24.7222 17.9545V33.7428C24.8523 33.8513 24.9825 33.967 25.1055 34.09L25.214 34.1984C25.6991 34.6813 26.3557 34.9524 27.0401 34.9524C27.7246 34.9524 28.3812 34.6813 28.8663 34.1984L29.0471 34.0176C29.8185 33.2401 30.7855 32.6854 31.8461 32.4121C32.3617 32.2691 32.8948 32.1985 33.43 32.2023C33.6425 32.201 33.8549 32.2106 34.0664 32.2313C38.8326 26.9588 37.8996 20.117 37.8851 20.023L37.8128 19.5384L24.7222 16.4646V17.9545ZM29.4883 28.0799H29.1411C28.42 28.0795 27.7286 27.7928 27.2187 27.283C26.7088 26.7731 26.4221 26.0816 26.4217 25.3605H27.8682C27.8681 25.5999 27.936 25.8344 28.0641 26.0367C28.1921 26.239 28.375 26.4008 28.5915 26.5032V23.6102C28.2795 23.4482 28.031 23.1862 27.8856 22.8662C27.7403 22.5461 27.7066 22.1865 27.79 21.8451C27.8734 21.5036 28.069 21.2 28.3454 20.9829C28.6219 20.7658 28.9632 20.6479 29.3147 20.6479C29.6662 20.6479 30.0075 20.7658 30.284 20.9829C30.5604 21.2 30.756 21.5036 30.8394 21.8451C30.9227 22.1865 30.8891 22.5461 30.7438 22.8662C30.5984 23.1862 30.3499 23.4482 30.0379 23.6102V26.5032C30.2544 26.4008 30.4373 26.2391 30.5653 26.0367C30.6934 25.8344 30.7613 25.5999 30.7612 25.3605H32.2077C32.206 26.0812 31.919 26.7719 31.4094 27.2816C30.8998 27.7912 30.2091 28.0782 29.4883 28.0799Z" fill="white"/>
<path d="M23.9991 15.1845L34.3776 17.6145L35.8236 17.9542V11.6985H12.1738V17.9542L13.6206 17.6145L23.9991 15.1845Z" fill="white"/>
<path d="M26.4578 10.6132H27.9045V3.75H20.0933V10.6132H21.54H26.4578Z" fill="white"/>
</svg>
