<svg width="48" height="48" viewBox="0 0 48 48" fill="none" xmlns="http://www.w3.org/2000/svg">
<path fill-rule="evenodd" clip-rule="evenodd" d="M7.52832 32.581C9.43613 32.581 10.2349 33.3291 10.9914 34.0398C11.5183 34.5338 12.0189 35.0035 13.0361 35.0035C14.0533 35.0035 14.5539 34.5338 15.0808 34.0398C15.8374 33.3291 16.6361 32.581 18.5439 32.581C20.4518 32.581 21.2505 33.3291 22.0071 34.0398C22.5339 34.5338 23.0346 35.0035 24.0518 35.0035C25.0689 35.0035 25.5696 34.5338 26.0964 34.0398C26.853 33.3291 27.6518 32.581 29.5596 32.581C31.4674 32.581 32.2661 33.3291 33.0227 34.0398C33.5496 34.5338 34.0502 35.0035 35.0674 35.0035C36.0846 35.0035 36.5852 34.5338 37.1121 34.0398C37.4477 33.7248 37.7927 33.4023 38.238 33.1407L41.7227 25.6745H6.06207V32.7685C6.46801 32.6513 6.94707 32.581 7.52832 32.581ZM7.31645 33.6085H7.31738H7.31832L7.34176 33.6076H7.35301H7.3652L7.3877 33.6066H7.38863L7.42145 33.6057H7.42332H7.43551H7.45894H7.48238H7.49363H7.50582H7.52926C8.28207 33.6057 9.02082 33.7201 9.69582 34.0698C10.2011 34.3313 10.5864 34.682 10.9971 35.0663C11.2596 35.312 11.5183 35.5548 11.8343 35.7329C12.2111 35.9448 12.6068 36.0282 13.0371 36.0282C13.4674 36.0282 13.863 35.9448 14.2399 35.7329C14.5549 35.5548 14.8146 35.3129 15.0771 35.0673C15.4877 34.6829 15.8739 34.3323 16.3783 34.0707C17.0524 33.721 17.7911 33.6066 18.5449 33.6066C19.2977 33.6066 20.0364 33.721 20.7114 34.0707C21.2168 34.3323 21.6021 34.6829 22.0127 35.0673C22.2752 35.3129 22.5349 35.5557 22.8499 35.7338C23.2268 35.9457 23.6224 36.0291 24.0527 36.0291C24.483 36.0291 24.8786 35.9457 25.2555 35.7338C25.5705 35.5566 25.8302 35.3138 26.0927 35.0673C26.5033 34.6829 26.8896 34.3323 27.3939 34.0707C28.068 33.721 28.8068 33.6066 29.5605 33.6066C30.3133 33.6066 31.0521 33.721 31.7271 34.0707C32.2324 34.3323 32.6177 34.6829 33.0283 35.0673C33.2908 35.3129 33.5496 35.5557 33.8655 35.7338C34.2424 35.9457 34.638 36.0291 35.0683 36.0291C35.4986 36.0291 35.8943 35.9457 36.2711 35.7338C36.5861 35.5566 36.8458 35.3138 37.1083 35.0673L37.1252 35.0513L37.1271 35.0495L37.1421 35.0354L37.1468 35.0316L37.1599 35.0195L37.1664 35.0138L37.1768 35.0035L37.1852 34.9951L37.1936 34.9876L37.2039 34.9773L37.2105 34.9716L37.2236 34.9595L37.2274 34.9557L37.2424 34.9416L37.2443 34.9398L37.2611 34.9238L37.278 34.9088L37.2808 34.907L37.2958 34.8938L37.3005 34.8901L37.3127 34.8788L37.3193 34.8732L37.3296 34.8638L37.3464 34.8488L37.3577 34.8385L37.3633 34.8329L37.3764 34.8207L37.3802 34.817L37.3952 34.8029L37.3971 34.801L37.4139 34.786L37.4308 34.771L37.4336 34.7691L37.4477 34.756L37.4524 34.7523L37.4646 34.741L37.4711 34.7354L37.4814 34.726L37.4908 34.7185L37.4993 34.711L37.5105 34.7016L37.5161 34.697L37.5293 34.6857L37.533 34.6829L37.5489 34.6698L37.5508 34.6688L37.5677 34.6538L37.5686 34.6529L37.5855 34.6388L37.5883 34.637L37.6024 34.6248L37.6071 34.621L37.6193 34.6107L37.6268 34.6051L37.6371 34.5966L37.6464 34.5891L37.6549 34.5826L37.6661 34.5732L37.6718 34.5685L37.6858 34.5573L37.6896 34.5545L37.7055 34.5413L37.7074 34.5404L37.7252 34.5263L37.7261 34.5254L37.743 34.5123L37.7458 34.5095L37.7608 34.4982L37.7664 34.4945L37.7786 34.4851L37.7964 34.472L37.8058 34.4645L37.8143 34.4579L37.8171 34.456L37.8321 34.4448L37.8461 34.4335L37.8499 34.4307L37.8668 34.4185L37.8677 34.4176L37.8855 34.4045L37.8864 34.4035L37.9033 34.3913L37.9071 34.3885L37.9221 34.3773L37.9277 34.3735L37.9408 34.3641L37.9493 34.3585L37.9596 34.351L37.9699 34.3435L37.9783 34.3379L37.9914 34.3295L37.9971 34.3257L37.9989 34.3248L38.0158 34.3135L38.0336 34.3013L38.0346 34.3004L38.0533 34.2882L38.0543 34.2873L38.0721 34.276L38.0889 34.2648L38.0908 34.2638L38.0964 34.2601L38.1096 34.2516L38.118 34.246L38.1283 34.2395L38.1396 34.2329L38.148 34.2273L38.1611 34.2188L38.1668 34.2151L38.1827 34.2048L38.1864 34.2029L38.2052 34.1916L38.2061 34.1907L38.2258 34.1785L38.2277 34.1776L38.2464 34.1663L38.2493 34.1645L38.2511 34.1635L38.2521 34.1626L38.2549 34.1607L38.2577 34.1588L38.2605 34.157L38.2652 34.1541L38.268 34.1523L38.2708 34.1504L38.2736 34.1485L38.2746 34.1476L38.2755 34.1466L38.2783 34.1448L38.2811 34.1429L38.2858 34.1401L38.2886 34.1382L38.2914 34.1363L38.2943 34.1345L38.2971 34.1326L38.298 34.1316L38.2999 34.1307L38.3027 34.1288L38.3055 34.127L38.3083 34.1251L38.3111 34.1232L38.3139 34.1213L38.3168 34.1195L38.3196 34.1176L38.3224 34.1157L38.3233 34.1148L38.3252 34.1138L38.328 34.112L38.3308 34.1101L38.3336 34.1082L38.3364 34.1063L38.3393 34.1054L38.3421 34.1035L38.3449 34.1026L38.3477 34.1007H38.3486L38.3505 34.0998L38.3533 34.0979L38.3561 34.096L38.3664 34.0904L38.3693 34.0895L38.3721 34.0876H38.373L38.3749 34.0866L38.3936 34.0773L38.3964 34.0763L38.3993 34.0754L38.4049 34.0726L38.4077 34.0716L38.4105 34.0707L38.4133 34.0698L38.4161 34.0688L38.4189 34.0679L38.4218 34.067C39.0958 33.7173 39.8336 33.6029 40.5864 33.6029C41.3402 33.6029 42.0799 33.7173 42.7539 34.067C43.2593 34.3285 43.6455 34.6791 44.0561 35.0635C44.6899 35.657 45.1596 36.0263 46.0858 36.031V36.0254H46.0961C46.4102 36.0254 46.6661 36.2804 46.6661 36.5945C46.6661 36.9085 46.4111 37.1635 46.0961 37.1635H46.0858L46.0896 37.1579C45.4933 37.1607 44.928 37.0576 44.3974 36.7698C43.9708 36.5373 43.6286 36.2195 43.278 35.8904C42.9574 35.5895 42.6536 35.312 42.2589 35.1057C41.7377 34.8329 41.1705 34.741 40.5874 34.741C40.0052 34.741 39.438 34.8329 38.9186 35.1057C38.5249 35.312 38.2202 35.5895 37.8996 35.8904C37.548 36.2204 37.2058 36.5382 36.7783 36.7716C36.2477 37.0604 35.6824 37.1635 35.0814 37.1635C34.4814 37.1635 33.9152 37.0604 33.3846 36.7716C32.9571 36.5391 32.6149 36.2204 32.2624 35.8904C31.9408 35.5895 31.6371 35.312 31.2433 35.1057C30.723 34.8329 30.1558 34.741 29.5736 34.741C28.9905 34.741 28.4233 34.8329 27.903 35.1057C27.5093 35.312 27.2046 35.5895 26.883 35.8904C26.5314 36.2204 26.1893 36.5382 25.7618 36.7716C25.2311 37.0604 24.6658 37.1635 24.0649 37.1635C23.4649 37.1635 22.8986 37.0604 22.368 36.7716C21.9405 36.5391 21.5983 36.2204 21.2468 35.8904C20.9252 35.5895 20.6214 35.312 20.2277 35.1057C19.7074 34.8329 19.1402 34.741 18.558 34.741C17.9749 34.741 17.4077 34.8329 16.8874 35.1057C16.4927 35.312 16.1889 35.5895 15.8674 35.8904C15.5158 36.2204 15.1736 36.5382 14.7461 36.7716C14.2155 37.0604 13.6493 37.1635 13.0493 37.1635C12.4493 37.1635 11.8839 37.0604 11.3533 36.7716C10.9258 36.5391 10.5827 36.2204 10.2311 35.8904C9.91051 35.5895 9.60582 35.312 9.21207 35.1057C8.69176 34.8329 8.12457 34.741 7.54145 34.741C6.95832 34.741 6.39113 34.8329 5.87082 35.1057C5.47707 35.312 5.17238 35.5895 4.85082 35.8904C4.5002 36.2195 4.15801 36.5373 3.73145 36.7698C3.20176 37.0576 2.63738 37.1607 2.04207 37.1579V37.1635H2.03363C1.71957 37.1635 1.46457 36.9085 1.46457 36.5945C1.46457 36.2804 1.71957 36.0254 2.03363 36.0254H2.04207L2.03832 36.031C2.46488 36.0273 2.85957 35.9429 3.23551 35.731C3.55145 35.5529 3.81113 35.3101 4.07363 35.0635C4.48426 34.6791 4.86957 34.3285 5.37488 34.067L5.40582 34.051H5.40676L5.42832 34.0407L5.43863 34.036H5.43957L5.44332 34.0341L5.46113 34.0257L5.47145 34.021H5.47238L5.47332 34.0201L5.50332 34.006L5.50426 34.0051L5.5352 33.991L5.53613 33.9901L5.5652 33.977L5.56613 33.976L5.56801 33.9751L5.59895 33.962L5.60082 33.961L5.63082 33.9479L5.6327 33.947L5.6627 33.9348L5.66551 33.9338L5.68707 33.9245L5.69551 33.9207L5.69832 33.9198L5.71988 33.9113L5.72738 33.9085L5.7302 33.9076L5.7602 33.8963L5.76301 33.8954L5.7902 33.8851L5.79207 33.8841L5.79582 33.8832L5.81738 33.8748L5.82488 33.872L5.82863 33.871C5.8577 33.8607 5.8877 33.8504 5.91676 33.8401L5.92332 33.8382L5.92801 33.8363L5.95051 33.8288L5.95707 33.827L5.96176 33.8251C5.98051 33.8195 5.99926 33.8138 6.01801 33.8073L6.02363 33.8054L6.02926 33.8035L6.04988 33.797H6.05082L6.05645 33.7951L6.06207 33.7932L6.07332 33.7904L6.08832 33.7857H6.08926L6.11738 33.7782L6.12301 33.7763L6.13051 33.7745L6.15207 33.7688L6.15676 33.7679L6.16238 33.766L6.18488 33.7604L6.19051 33.7585L6.20738 33.7538L6.21207 33.7529L6.22988 33.7482L6.25238 33.7426L6.25801 33.7407L6.26176 33.7398L6.28613 33.7341L6.29176 33.7332L6.29645 33.7323L6.31895 33.7276L6.32551 33.7257L6.33113 33.7248L6.35363 33.7201L6.35926 33.7191L6.36395 33.7182C6.38363 33.7135 6.40332 33.7098 6.42394 33.706L6.4277 33.7051L6.43238 33.7041L6.45488 33.6995L6.46145 33.6985L6.47738 33.6957L6.49613 33.692L6.50082 33.691L6.52332 33.6873L6.53082 33.6863L6.53457 33.6854L6.55895 33.6816L6.56457 33.6807L6.56832 33.6798L6.59082 33.676L6.59832 33.6751L6.60207 33.6741L6.62551 33.6704L6.63301 33.6695L6.63676 33.6685H6.63957L6.66582 33.6648H6.6677L6.6827 33.6629L6.70238 33.6601L6.70613 33.6591L6.72863 33.6563L6.73707 33.6554L6.75207 33.6535L6.77176 33.6507H6.77457L6.79707 33.6479L6.80551 33.647H6.80738L6.83457 33.6441L6.8402 33.6432H6.84301L6.86645 33.6404L6.87488 33.6395L6.90863 33.6357H6.90957H6.91238L6.93582 33.6338L6.9452 33.6329H6.94801L6.97238 33.631L6.98082 33.6301H6.9827L7.00613 33.6282L7.01551 33.6273L7.02957 33.6263L7.05113 33.6245H7.05301L7.06051 33.6235C7.07926 33.6216 7.09895 33.6207 7.1177 33.6198H7.12051H7.12238L7.14582 33.6179L7.15613 33.617L7.16926 33.616L7.19082 33.6151H7.1927L7.21613 33.6141L7.22645 33.6132L7.23957 33.6123L7.26207 33.6113H7.26301C7.27051 33.6095 7.29395 33.6085 7.31645 33.6085ZM32.2539 40.2891C32.9486 40.9407 33.6086 41.5604 35.0674 41.5604C36.5261 41.5604 37.1861 40.9407 37.8808 40.2891C38.478 39.7285 39.108 39.1379 40.5743 39.1379C42.0443 39.1379 42.6724 39.7285 43.2696 40.2891C43.9624 40.9388 44.6214 41.5576 46.0802 41.5585V41.5604H46.0839C46.3943 41.5604 46.6464 41.3091 46.6464 40.9979C46.6464 40.6876 46.3933 40.4354 46.0839 40.4354H46.0802V40.4373C45.0696 40.4373 44.568 39.9666 44.0393 39.4716C43.2808 38.762 42.4849 38.0129 40.5743 38.0129C38.6683 38.0129 37.8686 38.762 37.1121 39.4716C36.5852 39.9657 36.0846 40.4354 35.0674 40.4354C34.0502 40.4354 33.5496 39.9657 33.0227 39.4716C32.2661 38.762 31.4674 38.0129 29.5596 38.0129C27.6518 38.0129 26.853 38.762 26.0964 39.4716C25.5696 39.9657 25.0689 40.4354 24.0518 40.4354C23.0346 40.4354 22.5339 39.9657 22.0071 39.4716C21.2505 38.762 20.4518 38.0129 18.5439 38.0129C16.6361 38.0129 15.8374 38.762 15.0808 39.4716C14.5539 39.9657 14.0533 40.4354 13.0361 40.4354C12.0189 40.4354 11.5183 39.9657 10.9914 39.4716C10.2349 38.762 9.43613 38.0129 7.52832 38.0129C5.62051 38.0129 4.82176 38.762 4.0652 39.4716C3.53738 39.9666 3.03582 40.4373 2.02238 40.4373V40.4354H2.02051C1.7102 40.4354 1.45801 40.6876 1.45801 40.9979C1.45801 41.3091 1.7102 41.5604 2.02051 41.5604H2.02238V41.5585C3.48207 41.5576 4.14113 40.9398 4.83395 40.2891C5.43113 39.7285 6.06113 39.1379 7.52832 39.1379C8.99551 39.1379 9.62551 39.7285 10.2227 40.2891C10.9174 40.9407 11.5783 41.5604 13.0361 41.5604C14.4949 41.5604 15.1549 40.9407 15.8496 40.2891C16.4468 39.7285 17.0768 39.1379 18.5439 39.1379C20.0111 39.1379 20.6411 39.7285 21.2383 40.2891C21.933 40.9407 22.593 41.5604 24.0518 41.5604C25.5105 41.5604 26.1705 40.9407 26.8652 40.2891C27.4624 39.7285 28.0924 39.1379 29.5596 39.1379C31.0268 39.1379 31.6568 39.7295 32.2539 40.2891ZM24.0518 45.962C25.5105 45.962 26.1705 45.3423 26.8652 44.6907C27.4624 44.1301 28.0924 43.5395 29.5596 43.5395C31.0268 43.5395 31.6568 44.1301 32.2539 44.6907C32.9486 45.3423 33.6086 45.962 35.0674 45.962C36.5261 45.962 37.1861 45.3423 37.8808 44.6907C38.478 44.1301 39.108 43.5395 40.5743 43.5395C42.0443 43.5395 42.6724 44.1301 43.2696 44.6907C43.9624 45.3404 44.6214 45.9591 46.0802 45.9591V45.961H46.0839C46.3943 45.961 46.6464 45.7088 46.6464 45.3985C46.6464 45.0882 46.3933 44.836 46.0839 44.836H46.0802V44.8379C45.0696 44.8379 44.568 44.3673 44.0393 43.8723C43.2808 43.1616 42.4849 42.4135 40.5743 42.4135C38.6683 42.4135 37.8686 43.1616 37.1121 43.8723C36.5852 44.3663 36.0846 44.836 35.0674 44.836C34.0502 44.836 33.5496 44.3663 33.0227 43.8723C32.2661 43.1616 31.4674 42.4135 29.5596 42.4135C27.6518 42.4135 26.853 43.1616 26.0964 43.8723C25.5696 44.3663 25.0689 44.836 24.0518 44.836C23.0346 44.836 22.5339 44.3663 22.0071 43.8723C21.2505 43.1616 20.4518 42.4135 18.5439 42.4135C16.6361 42.4135 15.8374 43.1616 15.0808 43.8723C14.5539 44.3663 14.0533 44.836 13.0361 44.836C12.0189 44.836 11.5183 44.3663 10.9914 43.8723C10.2349 43.1616 9.43613 42.4135 7.52832 42.4135C5.62051 42.4135 4.82176 43.1626 4.0652 43.8723C3.53738 44.3673 3.03582 44.8379 2.02238 44.8379V44.836H2.02051C1.7102 44.836 1.45801 45.0882 1.45801 45.3985C1.45801 45.7088 1.7102 45.961 2.02051 45.961H2.02238V45.9591C3.48207 45.9591 4.14113 45.3404 4.83395 44.6907C5.43113 44.1301 6.06113 43.5395 7.52832 43.5395C8.99551 43.5395 9.62551 44.1301 10.2227 44.6907C10.9174 45.3423 11.5783 45.962 13.0361 45.962C14.4949 45.962 15.1549 45.3423 15.8496 44.6907C16.4468 44.1301 17.0768 43.5395 18.5439 43.5395C20.0111 43.5395 20.6411 44.1301 21.2383 44.6907C21.933 45.3432 22.593 45.962 24.0518 45.962ZM11.7405 5.93352C11.7405 5.19102 11.1358 4.58727 10.3933 4.58727H9.84863C9.53832 4.58727 9.28613 4.33508 9.28613 4.02477C9.28613 2.85289 8.3327 1.90039 7.16176 1.90039C5.98988 1.90039 5.03738 2.85289 5.03738 4.02477C5.03738 4.33602 4.7852 4.58727 4.47488 4.58727H3.92926C3.18676 4.58727 2.58301 5.19102 2.58301 5.93352C2.58301 6.67602 3.18676 7.2807 3.92926 7.2807H10.3933C11.1358 7.2807 11.7405 6.67602 11.7405 5.93352ZM36.363 9.15195C36.363 9.89445 36.9677 10.4982 37.7093 10.4982H44.1724C44.9149 10.4982 45.5205 9.89445 45.5205 9.15195C45.5205 8.40945 44.9158 7.80477 44.1724 7.80477H43.6286C43.3183 7.80477 43.0661 7.55352 43.0661 7.24227C43.0661 6.07133 42.1127 5.11789 40.9408 5.11789C39.7708 5.11789 38.8164 6.07133 38.8164 7.24227C38.8164 7.55352 38.5643 7.80477 38.2539 7.80477H37.7083C36.9677 7.8057 36.363 8.40945 36.363 9.15195ZM29.5089 11.7338V16.5732H31.2668V11.7338H29.5089ZM19.5846 11.7338V16.5732H21.3433V11.7338H19.5846ZM11.4189 16.5732V11.7338H9.66113V16.5732H11.4189ZM6.06207 20.5613H34.8658V17.6991H6.06207V20.5613ZM6.06207 24.5485H36.8824V21.6854H6.06207V24.5485Z" fill="white"/>
</svg>
