<svg width="48" height="48" viewBox="0 0 48 48" fill="none" xmlns="http://www.w3.org/2000/svg">
<g clip-path="url(#clip0_193_656)">
<path d="M26.6299 8.07V0.75H21.3799V8.066L23.9999 7.114L26.6299 8.07Z" fill="white"/>
<path d="M38.6401 23.424V14.03L24.0001 8.70996L9.37012 14.03V23.419L24.0001 15.48L38.6401 23.424ZM32.5521 15.541C32.5856 15.4483 32.6371 15.3632 32.7036 15.2905C32.77 15.2178 32.8502 15.1589 32.9395 15.1173C33.0288 15.0756 33.1255 15.0521 33.2239 15.0479C33.3223 15.0437 33.4206 15.059 33.5131 15.093L35.5671 15.84C35.749 15.9116 35.8957 16.0515 35.976 16.2298C36.0563 16.408 36.0637 16.6106 35.9969 16.7943C35.93 16.978 35.794 17.1284 35.6179 17.2133C35.4418 17.2982 35.2395 17.311 35.0541 17.249L33.0001 16.5C32.814 16.4316 32.6624 16.2925 32.5784 16.1128C32.4945 15.9331 32.4851 15.7276 32.5521 15.541ZM28.6101 13.933C28.6436 13.8403 28.6951 13.7552 28.7615 13.6824C28.828 13.6097 28.9082 13.5508 28.9974 13.509C29.0867 13.4673 29.1833 13.4436 29.2818 13.4393C29.3802 13.435 29.4785 13.4502 29.5711 13.484L31.6241 14.231C31.7167 14.2646 31.8017 14.3162 31.8744 14.3828C31.947 14.4493 32.0059 14.5295 32.0475 14.6188C32.0891 14.7081 32.1128 14.8047 32.1171 14.9031C32.1214 15.0016 32.1063 15.0999 32.0726 15.1925C32.0389 15.285 31.9873 15.3701 31.9208 15.4427C31.8542 15.5154 31.774 15.5742 31.6848 15.6158C31.5955 15.6575 31.4989 15.6811 31.4004 15.6855C31.302 15.6898 31.2037 15.6746 31.1111 15.641L29.0581 14.894C28.8713 14.8259 28.7192 14.6864 28.6352 14.5062C28.5512 14.326 28.5422 14.1198 28.6101 13.933ZM14.9281 16.5L12.8751 17.247C12.7819 17.2837 12.6824 17.3014 12.5822 17.299C12.4821 17.2966 12.3835 17.2742 12.2922 17.2331C12.2009 17.1919 12.1187 17.1329 12.0506 17.0596C11.9824 16.9862 11.9296 16.8999 11.8954 16.8058C11.8611 16.7117 11.846 16.6117 11.8511 16.5116C11.8561 16.4116 11.8811 16.3136 11.9246 16.2234C11.9681 16.1332 12.0292 16.0526 12.1044 15.9864C12.1795 15.9202 12.2671 15.8697 12.3621 15.838L14.4161 15.091C14.6011 15.0308 14.8022 15.0448 14.977 15.13C15.1519 15.2153 15.2867 15.3652 15.3532 15.548C15.4196 15.7308 15.4124 15.9323 15.3331 16.1099C15.2538 16.2875 15.1086 16.4274 14.9281 16.5ZM18.8711 14.892L16.8171 15.639C16.735 15.6685 16.6484 15.6837 16.5611 15.684C16.3847 15.684 16.214 15.6218 16.0788 15.5084C15.9437 15.395 15.8529 15.2377 15.8223 15.0639C15.7918 14.8902 15.8234 14.7113 15.9117 14.5585C16 14.4058 16.1393 14.2891 16.3051 14.229L18.3581 13.482C18.5451 13.4139 18.7514 13.423 18.9318 13.5071C19.1121 13.5912 19.2516 13.7435 19.3196 13.9305C19.3876 14.1174 19.3786 14.3238 19.2945 14.5041C19.2104 14.6844 19.0581 14.8239 18.8711 14.892Z" fill="white"/>
<path d="M16.25 47.25H31.75C28.81 47.25 26.262 43.47 24 43.47C21.738 43.47 19.19 47.25 16.25 47.25Z" fill="white"/>
<path d="M0.75 47.25H16.25C13.31 47.25 10.762 43.47 8.5 43.47C6.238 43.47 3.69 47.25 0.75 47.25Z" fill="white"/>
<path d="M39.5 43.47C37.238 43.47 34.69 47.25 31.75 47.25H47.25C44.31 47.25 41.762 43.47 39.5 43.47Z" fill="white"/>
<path d="M8.50012 41.9701C10.0501 41.9701 11.4281 42.9851 12.7591 43.9701C13.9481 44.8471 15.1771 45.7531 16.2501 45.7531C17.3231 45.7531 18.5501 44.8471 19.7411 43.9701C20.7631 43.0929 21.9589 42.4417 23.2501 42.0591V23.6501C23.2501 23.4512 23.3291 23.2604 23.4698 23.1198C23.6104 22.9791 23.8012 22.9001 24.0001 22.9001C24.199 22.9001 24.3898 22.9791 24.5304 23.1198C24.6711 23.2604 24.7501 23.4512 24.7501 23.6501V42.0561C26.0414 42.4387 27.2372 43.0899 28.2591 43.9671C29.4481 44.8441 30.6771 45.7501 31.7501 45.7501C32.8231 45.7501 34.0501 44.8441 35.2411 43.9671C36.5721 42.9851 37.9501 41.9671 39.5001 41.9671C39.6514 41.9695 39.8024 41.9815 39.9521 42.0031L45.8901 29.0601L24.7501 17.6001V20.6301C24.7501 20.829 24.6711 21.0198 24.5304 21.1604C24.3898 21.3011 24.199 21.3801 24.0001 21.3801C23.8012 21.3801 23.6104 21.3011 23.4698 21.1604C23.3291 21.0198 23.2501 20.829 23.2501 20.6301V17.6001L2.12012 29.0601L8.24412 41.9901C8.32912 41.9841 8.41312 41.9701 8.50012 41.9701Z" fill="white"/>
</g>
<defs>
<clipPath id="clip0_193_656">
<rect width="48" height="48" fill="white"/>
</clipPath>
</defs>
</svg>
