<svg width="115" height="40" viewBox="0 0 115 40" fill="none" xmlns="http://www.w3.org/2000/svg">
<path fill-rule="evenodd" clip-rule="evenodd" d="M96.7015 31.9828C96.7284 32.1236 96.7527 32.2653 96.7738 32.4066L104.047 33.4276L110.528 32.4549C110.62 32.3533 110.681 32.2525 110.72 32.129C110.745 32.0489 110.762 31.9576 110.773 31.849C110.649 31.9266 110.473 31.9857 110.222 32.0315L105.157 32.9559C104.421 33.0902 104.171 33.0642 103.483 32.9791C102.98 32.9167 102.257 32.8205 101.499 32.7168C99.9576 32.5053 98.2699 32.262 97.9977 32.2079C97.1868 32.046 97.0377 32.0497 96.7015 31.9828Z" fill="#FA6444"/>
<path fill-rule="evenodd" clip-rule="evenodd" d="M96.3174 32.3426C95.8399 29.3881 93.9973 26.536 91.2472 25.239C88.8685 24.1172 85.2047 24.1242 83.3155 26.196C81.0718 28.6562 81.0854 33.7668 81.1023 37.0154L81.3502 37.0423C81.3481 34.958 81.4526 31.3017 82.1697 29.1014C82.9801 26.6145 84.7971 26.7768 85.8718 29.0122C86.3423 29.9907 86.6607 31.153 86.833 31.9663L96.2525 32.3331L96.3174 32.3426ZM88.8648 30.1423C88.7264 29.8061 88.593 29.4331 88.4938 29.1184V29.1175C88.365 28.7086 88.4521 28.4587 88.676 28.3146C88.8631 28.1944 89.1382 28.1828 89.4496 28.2253C89.918 28.2894 90.6855 28.4017 91.4818 28.5463C92.0237 28.6446 92.5781 28.7578 93.0572 28.8804C93.4463 28.98 93.749 29.0721 94.001 29.1832C94.267 29.3009 94.4797 29.4405 94.6759 29.6314C94.8296 29.7809 95.0097 30.0374 95.177 30.3059C95.4421 30.733 95.6854 31.21 95.7251 31.3154C95.7437 31.3653 95.7556 31.4145 95.7594 31.4616C95.7672 31.5537 95.7482 31.6425 95.6986 31.7214C95.6511 31.797 95.5784 31.8577 95.4777 31.8953C95.4248 31.9151 95.3657 31.9283 95.3005 31.9337C95.1646 31.9448 94.1906 31.8833 93.1547 31.8028C92.2427 31.7321 91.2782 31.6474 90.7958 31.5871C90.2596 31.5202 89.9449 31.4529 89.7231 31.3492C89.4744 31.2327 89.3555 31.0857 89.215 30.8639C89.1068 30.6933 88.9837 30.4323 88.8648 30.1423Z" fill="#FA6444"/>
<path fill-rule="evenodd" clip-rule="evenodd" d="M88.9149 28.985L88.9343 29.0461C90.318 29.2328 91.7046 29.3981 93.0599 29.745C93.4213 29.8375 93.7021 29.9226 93.9343 30.0255C94.152 30.1217 94.3238 30.2341 94.4795 30.3857C94.6117 30.5141 95.0644 31.0994 95.3126 31.4732L95.3114 31.4687C95.2775 31.3786 95.0541 30.9449 94.8013 30.5385C94.6497 30.2948 94.4919 30.0676 94.3676 29.947C94.2118 29.7954 94.04 29.6831 93.8223 29.5868C93.5902 29.484 93.3089 29.3989 92.9475 29.3064C92.4812 29.187 91.9372 29.0759 91.4031 28.9788C90.622 28.8371 89.8579 28.7252 89.3895 28.6612C89.1739 28.6319 88.9984 28.6302 88.9129 28.6847C88.8662 28.7165 88.8587 28.8062 88.9149 28.985Z" fill="#FA6444"/>
<path fill-rule="evenodd" clip-rule="evenodd" d="M85.6652 36.404C85.4822 38.3986 84.8258 39.8748 84.0439 39.8748C83.1208 39.8748 82.3719 37.8162 82.3719 35.2772C82.3719 33.6085 82.6949 32.1475 83.1786 31.3421C82.9267 32.1021 82.773 33.1124 82.773 34.2218C82.773 36.5832 83.469 38.4973 84.3277 38.4973C84.8969 38.4969 85.3942 37.6572 85.6652 36.404Z" fill="#FA6444"/>
<path fill-rule="evenodd" clip-rule="evenodd" d="M114.186 31.3592C114.158 31.3844 114.129 31.4075 114.097 31.4278C113.934 31.5298 113.597 31.6153 113.264 31.6797C112.951 31.7408 112.632 31.7855 112.491 31.8053C112.11 31.8582 111.865 31.8685 111.686 31.7603C111.482 31.6368 111.418 31.4203 111.429 31.0337C111.438 30.7062 111.479 30.2398 111.581 29.8421C111.661 29.5298 111.782 29.2535 111.96 29.0944C112.309 28.7814 113.016 28.4158 113.368 28.2432C112.882 27.3336 112.166 26.5232 111.179 25.8343L111.19 26.8136C111.209 28.4918 111.226 30.0201 111.228 31.4728C111.228 31.8123 111.205 32.0568 111.141 32.2613C111.129 32.2989 111.116 32.3352 111.102 32.3699L114.2 31.9052C114.2 31.7206 114.195 31.5389 114.186 31.3592Z" fill="#FA6444"/>
<path fill-rule="evenodd" clip-rule="evenodd" d="M87.3114 38.4318C87.2205 38.9015 87.1218 39.3067 87.0189 39.7144C88.137 39.8614 88.9384 39.8441 89.8359 39.8246H89.8421C90.0119 39.8209 90.8037 39.8065 91.9957 39.7846C97.1816 39.6896 109.974 39.455 112.508 39.3583C112.811 39.3468 112.988 39.1233 113.096 38.8408V38.8399C113.175 38.633 113.219 38.3943 113.245 38.1708C113.193 38.1939 113.163 38.2072 113.162 38.2072L113.121 38.2245L112.692 38.2303L112.616 38.5896C112.575 38.778 112.527 38.8466 112.334 38.8536C110.958 38.9036 109.577 38.9279 108.2 38.9585C105.923 39.0085 103.645 39.0539 101.368 39.0981C98.2406 39.1588 95.1134 39.2166 91.9862 39.2741C91.2679 39.2873 90.5492 39.2988 89.8309 39.3141H89.8248C89.0767 39.3302 88.3791 39.3319 87.6534 39.2695C87.6657 39.2158 87.7574 38.8147 87.8248 38.5178C87.6447 38.5021 87.4687 38.4756 87.3114 38.4318ZM98.7177 35.0428C98.7297 35.2332 98.7433 35.5219 98.7239 35.6301C98.6888 35.8206 98.5665 35.8734 98.4038 35.8743C98.2703 35.8747 98.0494 35.8722 97.9201 35.8635C97.7169 35.8499 97.6884 35.6677 97.6784 35.4819C97.6739 35.398 97.6706 35.2514 97.6698 35.1374C97.6681 34.9065 97.7511 34.8309 97.9717 34.8313C98.115 34.8317 98.443 34.8363 98.5285 34.8363C98.6433 34.8367 98.7107 34.9366 98.7177 35.0428ZM109.363 34.9135C109.36 35.0936 109.359 35.3674 109.382 35.4695C109.432 35.6896 109.579 35.7012 109.758 35.7008C109.87 35.7004 110.014 35.6983 110.117 35.6929C110.339 35.6814 110.364 35.5566 110.366 35.3294C110.366 35.2485 110.363 35.1052 110.359 34.9965C110.354 34.8491 110.304 34.7214 110.12 34.7136C110.069 34.7115 109.632 34.7181 109.534 34.7181C109.425 34.7181 109.365 34.8127 109.363 34.9135ZM101.183 35.7838C101.555 35.7809 102.835 35.7706 104.154 35.7615C105.464 35.752 106.796 35.7429 107.262 35.7425C107.665 35.7421 107.891 35.9147 107.874 36.336C107.87 36.4315 107.859 36.5413 107.832 36.6508C107.716 37.1113 107.411 37.2823 106.979 37.2889C106.215 37.3009 101.373 37.3765 101.179 37.3563C101.062 37.3443 100.904 37.3216 100.762 37.2282C100.471 37.0362 100.473 36.6875 100.471 36.3761C100.468 35.9436 100.562 35.7888 101.183 35.7838ZM111.116 37.8152L113.024 37.7912C113.219 37.7061 114.063 37.3261 114.267 37.0523C114.394 36.8829 114.387 36.7177 114.381 36.5624C114.377 36.441 114.372 36.3241 114.406 36.1915C114.449 36.0267 114.52 35.7152 114.579 35.353C114.618 35.1101 114.652 34.8454 114.666 34.5893C114.682 34.3109 114.664 33.9556 114.634 33.6359C114.597 33.251 114.548 32.9329 114.52 32.8821H114.519C114.504 32.8565 114.302 32.7929 114.129 32.7425L111.274 33.1696C111.344 33.9792 111.454 35.9296 111.116 37.8152ZM96.8098 37.9948L110.817 37.8189C111.159 35.9643 111.052 34.0275 110.982 33.2134L104.048 34.251L96.583 33.2064C96.7012 34.1779 96.9494 36.5161 96.8098 37.9948ZM96.2084 33.1539L87.1176 32.8008C87.0577 32.8177 86.8995 32.8768 86.9322 33.0176C87.0693 33.6058 87.2494 34.5674 87.339 35.4682C87.3923 36.0052 87.4134 36.5227 87.3741 36.9325C87.3109 37.5971 87.7479 38.1088 88.4361 38.1002L96.5141 37.9986C96.6619 36.512 96.3947 34.0804 96.2819 33.1638L96.2084 33.1539ZM112.187 35.6045C112.525 35.5124 112.516 35.1531 112.521 34.8697C112.53 34.2712 112.473 33.8904 113.111 33.6991C113.325 33.6347 113.561 33.6074 113.742 33.5988C114.012 33.5856 114.278 33.5955 114.349 33.9077C114.414 34.1931 114.409 34.7119 114.369 35.0052C114.302 35.5141 114.066 35.6909 113.554 35.7371C112.964 35.7912 112.024 35.8135 111.546 35.828L112.187 35.6045ZM96.1931 36.1754H92.2113C91.8681 36.1754 91.6302 35.973 91.4679 35.6971C91.2394 35.3084 91.1663 34.7652 91.1589 34.4926C91.1432 33.9441 91.5104 33.7438 92.0135 33.7545C92.3935 33.7628 93.1642 33.7793 93.6393 33.8606C94.1799 33.9532 94.3988 34.2026 94.536 34.7198C94.6343 35.0911 94.664 35.4459 94.7095 35.8292L96.1931 36.1754Z" fill="#FA6444"/>
<path fill-rule="evenodd" clip-rule="evenodd" d="M81.705 38.4986H81.37C81.3654 38.3206 81.3568 37.9654 81.3526 37.4875L80.8074 37.4284C80.8128 37.7316 80.8235 38.3615 80.8276 38.5118L80.8301 38.6048L70.4804 37.174L70.4634 36.3099L69.9318 36.2524L69.9405 37.6473L81.365 39.2268L81.705 38.4986Z" fill="#FA6444"/>
<path fill-rule="evenodd" clip-rule="evenodd" d="M109.179 21.0478C107.583 19.8285 105.683 18.6092 103.911 17.6567C103.645 17.5138 103.284 17.4101 102.194 17.3283C97.5071 16.978 88.4985 17.149 86.3808 17.2337C88.4105 17.8566 95.2188 19.9925 96.2299 21.0238C100.189 20.332 105.21 20.3894 109.179 21.0478Z" fill="#FA6444"/>
<path fill-rule="evenodd" clip-rule="evenodd" d="M82.6555 8.0716C82.5159 8.1191 82.4701 8.2364 82.5168 8.37312L82.8117 9.11496C82.8356 9.17568 82.8935 9.21987 83.0256 9.25044C83.3833 9.34131 84.038 9.2715 84.4589 9.25498C89.7943 9.04887 95.1379 9.1575 100.465 9.49992C101.814 9.58666 102.63 13.3801 103.075 15.4614C102.952 14.4164 102.617 11.934 102.074 10.2905C101.646 8.99228 101.147 8.38221 100.111 8.27027C95.7554 7.79857 89.0301 7.71679 84.2953 7.86012C83.625 7.88077 83.3234 7.86673 82.6555 8.0716ZM94.2403 9.69157C94.6501 11.4103 95.1759 13.8596 95.6331 16.7588C95.4836 16.7555 95.3341 16.7522 95.1845 16.7489C94.7219 13.8311 94.1912 11.378 93.7839 9.6796C93.9363 9.68373 94.0883 9.68744 94.2403 9.69157Z" fill="#FA6444"/>
<path fill-rule="evenodd" clip-rule="evenodd" d="M79.0925 10.7625C79.6567 10.6262 80.9913 10.316 81.7381 10.2437C82.9016 10.131 83.121 11.2012 83.3151 12.1107C83.5307 13.1186 83.7116 14.1945 83.8574 15.2408C83.9198 15.6902 84.0251 16.5985 84.5646 16.736C84.2531 15.3965 83.9888 13.7385 83.7616 12.4577C83.5951 11.5196 83.4613 10.7043 83.4407 10.4193C83.4237 10.1872 83.4745 9.90545 83.6373 9.73197C83.3254 9.73693 83.0974 9.72041 82.9277 9.68117C82.627 9.61219 82.482 9.47712 82.4027 9.27803L82.1078 8.5362C81.9615 8.16941 82.1458 7.7671 82.5266 7.65062C83.2358 7.43336 83.5774 7.44203 84.2837 7.42056C89.3852 7.26608 94.4806 7.18347 99.5665 7.68532C99.7507 7.70349 99.9238 7.72167 100.087 7.73984C99.6057 7.1971 98.8453 6.94266 98.141 6.8774C97.0522 6.77661 93.0672 6.6622 89.2109 6.59239C85.9545 6.53333 82.7938 6.50648 81.5543 6.54696C80.3143 6.58702 79.8467 6.8427 79.5572 7.3049C79.0921 8.04632 79.126 9.80591 79.0925 10.7625Z" fill="#FA6444"/>
<path fill-rule="evenodd" clip-rule="evenodd" d="M79.4298 30.477L80.3286 29.3035L75.3294 29.3531L75.5707 30.477H79.4298ZM73.8189 32.0024C73.7132 32.2151 73.4955 32.6686 73.4674 32.8607C73.4435 33.0243 73.5455 33.7582 73.7723 33.7905C73.821 33.7975 74.225 33.802 74.3072 33.8029C74.6037 33.8049 74.5727 33.667 74.4666 33.2618C74.4046 33.0247 74.3609 32.8343 74.7148 32.0908C74.7599 31.9962 74.7722 31.8892 74.6475 31.8847C74.5665 31.8818 74.1176 31.8838 74.0027 31.8859C73.9086 31.8871 73.8652 31.9086 73.8189 32.0024ZM80.6619 36.9689C80.6607 36.7483 80.6598 36.5199 80.6594 36.2845L69.4551 35.073C69.4596 35.3654 69.4638 35.6037 69.4666 35.7582L80.6619 36.9689ZM80.6598 35.8404C80.6669 33.8281 80.7544 31.3993 81.3075 29.2936L80.7829 29.299L79.3104 31.2217H69.4113C69.4121 32.1465 69.4315 33.5815 69.4476 34.6281L75.7185 35.3064C75.5765 34.7661 75.3922 33.6587 75.3398 33.2721C75.2993 32.9755 75.4013 32.4621 75.4748 32.1478C75.5265 31.9264 75.633 31.8314 75.8747 31.8425C75.9796 31.8471 79.3075 31.876 79.5434 31.8867C79.7788 31.8975 79.8222 31.9987 79.7891 32.187C79.7557 32.3758 79.6309 32.7248 79.6442 33.6013L79.6764 35.7347L80.6598 35.8404ZM77.5607 35.505L77.8759 35.5393C77.9676 35.5443 78.0552 35.5484 78.1134 35.5488C78.2716 35.5501 78.2704 35.4146 78.2262 35.2935C78.196 35.2118 78.1047 34.9449 78.039 34.6938C77.9965 34.5311 77.9556 34.5063 77.7908 34.4988L77.3567 34.479C77.2154 34.4728 77.1774 34.56 77.2142 34.6839C77.2881 34.9305 77.3906 35.2056 77.4533 35.37C77.4823 35.4443 77.5132 35.484 77.5607 35.505Z" fill="#FA6444"/>
<path fill-rule="evenodd" clip-rule="evenodd" d="M72.3636 5.62426C72.4429 4.81304 72.7854 1.38267 72.9886 0.425227C73.0266 0.246377 73.0815 0.108006 73.1538 0.000612972C72.4727 -0.000626172 71.9031 0.000199924 71.4797 0.00143907C70.8143 0.00350431 70.362 0.508662 70.3265 1.10758L70.0076 6.50075C71.1976 6.1034 72.2137 5.67796 72.3636 5.62426ZM84.7448 6.09307C84.5634 1.56772 77.5011 0.0576136 73.9568 0.00474345C73.5404 -0.00145227 73.3826 -0.0150829 73.2765 0.485119C73.0857 1.38556 72.768 4.52019 72.6693 5.5177C72.9312 5.42848 73.203 5.34133 73.476 5.26161C75.5123 4.66558 77.6234 4.53712 79.6957 6.35784C80.2496 6.19923 80.9104 6.1286 81.4949 6.10877C82.1372 6.08647 83.3074 6.08316 84.7448 6.09307ZM83.9905 0.191028C87.0636 0.91221 90.9128 2.58258 91.1743 6.19097C92.7265 6.22484 94.2164 6.26449 95.4406 6.30579C94.5782 1.37689 88.1074 0.349639 83.9905 0.191028ZM88.52 0.442162C91.743 1.17078 95.1404 2.67964 95.7405 6.31612C96.864 6.35577 97.731 6.39708 98.1655 6.43632C96.9718 1.41406 92.9768 0.793666 88.52 0.442162ZM90.8794 6.18436C90.5613 2.13649 85.3974 0.598707 82.0463 0.125354C80.3945 0.077853 78.7415 0.0468744 77.0893 0.0270481C80.2454 0.676773 84.8968 2.23975 85.0389 6.09514C86.3032 6.10547 87.7518 6.12529 89.2185 6.15173C89.7724 6.16205 90.3288 6.17279 90.8794 6.18436Z" fill="#FA6444"/>
<path fill-rule="evenodd" clip-rule="evenodd" d="M109.427 21.5361C107.523 21.1983 105.296 21.0124 103.068 20.9855C100.769 20.9579 98.4737 21.0991 96.5369 21.4176C96.8005 21.8501 96.9293 22.399 96.9859 23.1722L97.5704 31.0367C97.601 31.4559 97.6414 31.6542 98.083 31.7421C98.3581 31.7971 100.032 32.0379 101.556 32.2461C102.309 32.3489 103.026 32.4443 103.518 32.5055C104.165 32.5856 104.387 32.6137 105.077 32.4881L110.142 31.5666C110.622 31.4794 110.626 31.2932 110.634 30.907C110.659 29.7219 110.651 28.6782 110.633 27.4931C110.61 25.8013 110.564 24.0318 110.525 22.9843C110.493 22.1289 110.263 21.6844 109.427 21.5361ZM97.5625 22.5993C97.5188 22.1962 97.8653 22.1718 98.1767 22.1937L99.8541 22.3106C100.023 22.3226 100.156 22.4568 100.165 22.6262L100.615 31.3712C100.626 31.5811 100.578 31.6955 100.351 31.6583L99.0251 31.439C98.2622 31.313 98.2019 31.3601 98.1573 30.6699L97.5625 22.5993ZM106.776 31.8756L104.798 32.2097C104.468 32.2684 104.394 32.2233 104.386 31.8958L104.181 22.9174C104.177 22.7406 104.312 22.5915 104.489 22.5774L106.878 22.3887C107.072 22.3734 107.237 22.5229 107.239 22.717L107.337 31.2709C107.343 31.745 107.352 31.781 106.776 31.8756ZM110.039 22.7926L110.012 30.719C110.014 31.2085 109.96 31.2729 109.512 31.382L108.12 31.6149C107.702 31.6839 107.707 31.5455 107.703 31.1878L107.605 22.6427C107.603 22.4671 107.737 22.3205 107.913 22.3065L109.496 22.1813C109.929 22.1813 110.054 22.3924 110.039 22.7926ZM101.449 31.8446C101.132 31.793 101.001 31.7211 100.984 31.3927L100.538 22.7331C100.528 22.532 100.694 22.3697 100.895 22.3837L103.502 22.5655C103.674 22.5774 103.809 22.7179 103.813 22.8905L104.02 31.9557C104.026 32.2362 103.931 32.27 103.675 32.2254L101.449 31.8446Z" fill="#FA6444"/>
<path fill-rule="evenodd" clip-rule="evenodd" d="M80.001 17.905L81.6652 20.0248V19.368L80.0303 17.2859C80.0262 17.3602 80.0241 17.4279 80.0221 17.4957C80.0179 17.6332 80.0134 17.7716 80.001 17.905Z" fill="url(#paint0_linear_4227_2122)"/>
<path fill-rule="evenodd" clip-rule="evenodd" d="M77.477 12.7999C77.4542 13.1502 77.4043 14.2307 77.3588 15.2947C77.3134 16.3591 77.2721 17.4083 77.2667 17.7098C77.2634 17.9052 77.3444 18.058 77.4604 18.1712C77.6314 18.3376 77.8731 18.4264 78.0561 18.4471C78.2002 18.4636 78.3853 18.4797 78.5715 18.4851C78.7136 18.4888 78.8594 18.4867 78.9933 18.4739C79.5517 18.4202 79.5666 17.9419 79.5814 17.4686V17.4678C79.5843 17.3761 79.5872 17.2848 79.5918 17.2079C79.6145 16.8358 79.6409 15.5062 79.6434 14.3773C79.6455 13.5686 79.636 12.866 79.6062 12.7045C79.5864 12.5963 79.5244 12.5178 79.4476 12.4624C79.3204 12.3703 79.1572 12.3365 79.0527 12.3327C78.9776 12.3303 78.8148 12.3319 78.6319 12.3352C78.4497 12.3385 78.2415 12.3435 78.0804 12.3476C77.8809 12.3526 77.7145 12.3592 77.6203 12.4158C77.5422 12.4628 77.4918 12.5723 77.477 12.7999Z" fill="#FA6444"/>
<path fill-rule="evenodd" clip-rule="evenodd" d="M19.4021 8.36979L68.4706 1.40869L68.3182 4.37727L19.4021 8.36979ZM68.2612 5.48217L68.1021 8.57549L28.4664 10.7659L68.2612 5.48217ZM68.0456 9.67792L67.8869 12.7716L37.8113 13.0955L68.0456 9.67792Z" fill="#FA6444"/>
<path fill-rule="evenodd" clip-rule="evenodd" d="M113.847 28.9098C113.486 29.0916 113.123 29.2721 112.762 29.4551C112.02 29.8309 112.074 29.9743 111.772 30.8425C111.853 30.1672 111.883 29.4249 112.633 29.0325C112.887 28.8999 113.112 28.7847 113.291 28.6946C113.647 28.5154 113.725 28.6261 113.847 28.9098Z" fill="#FA6444"/>
<path fill-rule="evenodd" clip-rule="evenodd" d="M81.8555 27.6448C82.0062 27.3032 82.176 26.979 82.3668 26.6758L80.1343 26.7212C80.1343 26.7212 81.677 26.4982 82.5705 26.3718C82.9951 25.7782 83.416 25.4639 83.9748 25.1454L83.9773 24.8877C82.4577 24.8497 80.9373 24.8125 79.414 24.7853C80.9344 24.668 82.5325 24.5498 83.9806 24.4358C83.9897 23.0092 84.0009 20.3219 84.0099 19.0881L84.0108 18.9852C84.0145 18.2942 84.0182 17.6461 84.537 17.1435C83.5791 16.7688 83.5899 15.4305 83.4552 14.5826C83.314 13.6916 83.1425 12.709 83.0269 12.1675C82.9149 11.645 82.8018 11.1997 82.6081 10.9068C82.4317 10.64 82.176 10.4975 81.7654 10.5372C81.0025 10.6111 79.5837 10.9457 79.0823 11.0675C79.0736 11.3281 79.0645 11.6024 79.0554 11.887L79.067 11.8874C79.1368 11.8895 79.2231 11.9006 79.3148 11.9233V11.5338C79.9968 11.3893 80.6903 11.246 81.3805 11.1514C81.7497 11.101 82.1194 11.0964 82.3896 11.3897C82.5494 11.5632 82.6874 11.9981 82.7985 12.5C82.9662 13.2591 83.081 14.1918 83.107 14.552C83.107 15.5817 83.1681 16.6309 83.181 17.6651C83.1871 18.2025 83.0612 18.4165 82.4313 18.4053C82.1772 18.4008 81.7613 18.3896 81.4705 18.3814L81.9856 19.0356H82.7985C82.8674 19.0356 82.9302 19.0637 82.9753 19.1087C83.0207 19.1538 83.0488 19.2165 83.0488 19.2851V21.1215C83.0488 21.1901 83.0207 21.2529 82.9753 21.2979C82.9302 21.3429 82.8674 21.371 82.7985 21.371H81.9154C81.8464 21.371 81.7836 21.3429 81.7382 21.2979C81.6927 21.2529 81.6647 21.1901 81.6647 21.1215V20.7097L79.8654 18.4243C79.737 18.6771 79.4957 18.8601 79.0344 18.9047C78.9679 18.9109 78.8993 18.915 78.8303 18.9175C78.815 19.3566 78.8002 19.7746 78.7853 20.162C78.7675 20.6242 78.7506 21.0459 78.7341 21.4131C78.6539 23.1996 78.6849 24.5407 78.7993 25.589C78.8964 26.4783 79.0534 27.1537 79.2545 27.7121C79.4734 27.7109 79.6457 27.7105 79.7605 27.7105C80.6077 27.7117 81.3759 27.6745 81.8555 27.6448ZM79.3214 25.1372C79.3214 25.1372 79.9951 25.114 80.1339 25.1438C80.2727 25.1735 80.4837 25.3251 80.5238 25.506C80.5635 25.6874 80.5833 26.0132 80.5833 26.112C80.5833 26.2107 80.554 26.2536 80.504 26.2735C80.4544 26.2933 79.7345 26.3396 79.642 26.3424C79.5494 26.3458 79.2921 26.0954 79.2586 25.9703C79.2343 25.8774 79.2132 25.5411 79.2041 25.3743C79.1992 25.2838 79.2132 25.1715 79.3214 25.1372Z" fill="#FA6444"/>
<defs>
<linearGradient id="paint0_linear_4227_2122" x1="80.7854" y1="19.3923" x2="81.0382" y2="16.4002" gradientUnits="userSpaceOnUse">
<stop stop-color="white"/>
<stop offset="1" stop-color="#828282"/>
</linearGradient>
</defs>
</svg>
