<svg width="161" height="56" viewBox="0 0 161 56" fill="none" xmlns="http://www.w3.org/2000/svg">
<g clip-path="url(#clip0_6029_1059)">
<path fill-rule="evenodd" clip-rule="evenodd" d="M135.75 44.9164C135.788 45.1142 135.822 45.3132 135.851 45.5116L146.07 46.9455L155.177 45.5794C155.306 45.4367 155.392 45.2952 155.447 45.1218C155.482 45.0092 155.506 44.881 155.521 44.7285C155.347 44.8375 155.099 44.9205 154.747 44.9849L147.63 46.2831C146.596 46.4716 146.246 46.4351 145.278 46.3156C144.571 46.228 143.555 46.0928 142.491 45.9472C140.325 45.6502 137.954 45.3086 137.571 45.2326C136.432 45.0052 136.222 45.0104 135.75 44.9164Z" fill="#FA6444"/>
<path fill-rule="evenodd" clip-rule="evenodd" d="M135.211 45.4218C134.54 41.2725 131.951 37.267 128.087 35.4456C124.745 33.8701 119.597 33.8799 116.942 36.7896C113.79 40.2446 113.809 47.4219 113.833 51.9842L114.181 52.0219C114.178 49.0948 114.325 43.96 115.332 40.8699C116.471 37.3772 119.024 37.6052 120.534 40.7446C121.195 42.1188 121.643 43.7511 121.885 44.8933L135.12 45.4084L135.211 45.4218ZM124.739 42.3317C124.545 41.8595 124.358 41.3357 124.218 40.8937V40.8925C124.037 40.3182 124.16 39.9673 124.474 39.7648C124.737 39.596 125.124 39.5798 125.561 39.6396C126.219 39.7295 127.298 39.8872 128.417 40.0903C129.178 40.2283 129.957 40.3873 130.63 40.5596C131.177 40.6994 131.602 40.8287 131.956 40.9848C132.33 41.1501 132.629 41.3461 132.904 41.6141C133.12 41.8241 133.373 42.1844 133.608 42.5614C133.981 43.1612 134.323 43.8312 134.379 43.9791C134.405 44.0493 134.421 44.1183 134.427 44.1845C134.438 44.3138 134.411 44.4385 134.341 44.5493C134.275 44.6555 134.173 44.7408 134.031 44.7936C133.957 44.8214 133.874 44.84 133.782 44.8475C133.591 44.8632 132.223 44.7767 130.767 44.6636C129.486 44.5644 128.13 44.4455 127.453 44.3608C126.699 44.2668 126.257 44.1723 125.945 44.0267C125.596 43.8631 125.429 43.6566 125.232 43.3451C125.08 43.1055 124.907 42.7389 124.739 42.3317Z" fill="#FA6444"/>
<path fill-rule="evenodd" clip-rule="evenodd" d="M124.81 40.7068L124.837 40.7926C126.781 41.0548 128.729 41.2869 130.634 41.7741C131.141 41.9041 131.536 42.0236 131.862 42.168C132.168 42.3032 132.409 42.461 132.628 42.6738C132.814 42.8543 133.45 43.6762 133.799 44.2012L133.797 44.1948C133.749 44.0684 133.435 43.4593 133.08 42.8885C132.867 42.5462 132.646 42.2272 132.471 42.0578C132.252 41.8449 132.011 41.6871 131.705 41.552C131.379 41.4075 130.983 41.288 130.476 41.1581C129.82 40.9905 129.056 40.8344 128.306 40.6981C127.208 40.4991 126.135 40.3419 125.476 40.252C125.174 40.2108 124.927 40.2085 124.807 40.2851C124.741 40.3297 124.731 40.4556 124.81 40.7068Z" fill="#FA6444"/>
<path fill-rule="evenodd" clip-rule="evenodd" d="M120.243 51.1255C119.986 53.9267 119.064 55.9999 117.966 55.9999C116.668 55.9999 115.616 53.1088 115.616 49.543C115.616 47.1995 116.07 45.1478 116.75 44.0166C116.396 45.084 116.18 46.5028 116.18 48.0609C116.18 51.3772 117.158 54.0653 118.364 54.0653C119.164 54.0648 119.863 52.8855 120.243 51.1255Z" fill="#FA6444"/>
<path fill-rule="evenodd" clip-rule="evenodd" d="M160.317 44.0399C160.278 44.0753 160.236 44.1078 160.191 44.1362C159.963 44.2795 159.49 44.3996 159.022 44.4901C158.582 44.5759 158.134 44.6386 157.936 44.6664C157.399 44.7407 157.055 44.7552 156.805 44.6032C156.517 44.4297 156.428 44.1258 156.443 43.5828C156.456 43.1228 156.514 42.4679 156.657 41.9093C156.77 41.4708 156.939 41.0827 157.189 40.8594C157.68 40.4197 158.673 39.9063 159.168 39.6638C158.485 38.3865 157.478 37.2484 156.092 36.2808L156.108 37.6562C156.134 40.013 156.159 42.1593 156.16 44.1994C156.161 44.6763 156.128 45.0197 156.038 45.3068C156.022 45.3596 156.004 45.4107 155.984 45.4594L160.336 44.8068C160.337 44.5475 160.33 44.2923 160.317 44.0399Z" fill="#FA6444"/>
<path fill-rule="evenodd" clip-rule="evenodd" d="M122.557 53.9732C122.429 54.6328 122.29 55.2018 122.146 55.7744C123.717 55.9809 124.843 55.9565 126.104 55.9292H126.113C126.351 55.924 127.464 55.9037 129.139 55.873C136.425 55.7396 154.4 55.4101 157.959 55.2743C158.385 55.2581 158.634 54.9443 158.786 54.5475V54.5463C158.896 54.2557 158.958 53.9204 158.995 53.6066C158.922 53.6391 158.878 53.6576 158.878 53.6576L158.821 53.682L158.218 53.6901L158.11 54.1948C158.054 54.4593 157.986 54.5556 157.715 54.5655C155.782 54.6357 153.841 54.6699 151.906 54.7128C148.707 54.783 145.507 54.8468 142.307 54.9089C137.913 54.9942 133.519 55.0754 129.125 55.156C128.116 55.1746 127.106 55.1908 126.097 55.2123H126.088C125.037 55.2349 124.057 55.2372 123.037 55.1496C123.055 55.0742 123.184 54.5109 123.278 54.0939C123.025 54.0718 122.778 54.0347 122.557 53.9732ZM138.583 49.2137C138.6 49.4811 138.619 49.8865 138.592 50.0385C138.543 50.3059 138.371 50.3802 138.142 50.3814C137.955 50.3819 137.644 50.3785 137.463 50.3663C137.177 50.3471 137.137 50.0913 137.123 49.8303C137.117 49.7125 137.112 49.5066 137.111 49.3465C137.109 49.0222 137.225 48.9161 137.535 48.9167C137.736 48.9172 138.197 48.9236 138.317 48.9236C138.479 48.9242 138.573 49.0646 138.583 49.2137ZM153.541 49.0321C153.536 49.285 153.534 49.6696 153.567 49.8129C153.637 50.1221 153.844 50.1383 154.095 50.1377C154.252 50.1371 154.455 50.1342 154.6 50.1267C154.911 50.1105 154.946 49.9353 154.949 49.6162C154.95 49.5025 154.946 49.3013 154.94 49.1487C154.933 48.9416 154.863 48.7624 154.604 48.7513C154.532 48.7484 153.918 48.7577 153.78 48.7577C153.627 48.7577 153.544 48.8906 153.541 49.0321ZM142.047 50.2543C142.57 50.2503 144.368 50.2358 146.221 50.223C148.062 50.2097 149.934 50.1969 150.588 50.1963C151.154 50.1957 151.473 50.4382 151.448 51.0299C151.442 51.1639 151.427 51.3182 151.389 51.4719C151.227 52.1187 150.797 52.3588 150.191 52.3681C149.117 52.385 142.314 52.4911 142.042 52.4627C141.877 52.4459 141.654 52.414 141.456 52.2829C141.047 52.0131 141.05 51.5235 141.047 51.0862C141.043 50.4788 141.174 50.2613 142.047 50.2543ZM156.004 53.1072L158.685 53.0735C158.959 52.954 160.145 52.4203 160.431 52.0357C160.609 51.7979 160.6 51.5659 160.591 51.3478C160.585 51.1772 160.578 51.0131 160.626 50.8269C160.686 50.5954 160.786 50.158 160.869 49.6493C160.924 49.3082 160.971 48.9364 160.992 48.5767C161.014 48.1858 160.989 47.6869 160.946 47.2379C160.894 46.6973 160.826 46.2506 160.786 46.1793C160.765 46.1433 160.48 46.054 160.236 45.9832L156.225 46.583C156.324 47.72 156.478 50.4591 156.004 53.1072ZM135.903 53.3595L155.584 53.1124C156.063 50.5078 155.914 47.7878 155.816 46.6445L146.072 48.1016L135.584 46.6346C135.75 47.999 136.099 51.2828 135.903 53.3595ZM135.058 46.5609L122.285 46.065C122.2 46.0888 121.978 46.1717 122.024 46.3695C122.217 47.1956 122.47 48.546 122.596 49.8111C122.67 50.5652 122.7 51.2921 122.645 51.8675C122.556 52.8009 123.17 53.5196 124.137 53.5074L135.487 53.3647C135.695 51.277 135.319 47.8621 135.161 46.5749L135.058 46.5609ZM157.509 50.0026C157.983 49.8732 157.97 49.3685 157.977 48.9706C157.991 48.1301 157.91 47.5952 158.806 47.3267C159.107 47.2362 159.439 47.1979 159.694 47.1857C160.073 47.1671 160.446 47.1811 160.546 47.6196C160.637 48.0204 160.63 48.749 160.575 49.1609C160.479 49.8755 160.148 50.1238 159.428 50.1888C158.6 50.2648 157.279 50.2961 156.607 50.3164L157.509 50.0026ZM135.036 50.8042H129.441C128.959 50.8042 128.625 50.52 128.397 50.1325C128.076 49.5866 127.973 48.8238 127.963 48.441C127.941 47.6706 128.457 47.3893 129.163 47.4044C129.697 47.416 130.78 47.4392 131.448 47.5535C132.207 47.6834 132.515 48.0338 132.708 48.76C132.846 49.2815 132.888 49.7798 132.951 50.3181L135.036 50.8042Z" fill="#FA6444"/>
<path fill-rule="evenodd" clip-rule="evenodd" d="M114.679 54.0661H114.208C114.202 53.8161 114.19 53.3172 114.184 52.6461L113.418 52.5631C113.425 52.9889 113.441 53.8735 113.446 54.0847L113.45 54.2152L98.9079 52.2058L98.8841 50.9923L98.1372 50.9116L98.1494 52.8706L114.201 55.0888L114.679 54.0661Z" fill="#FA6444"/>
<path fill-rule="evenodd" clip-rule="evenodd" d="M153.281 29.5594C151.039 27.847 148.369 26.1346 145.879 24.797C145.506 24.5962 144.999 24.4506 143.467 24.3358C136.882 23.8439 124.224 24.084 121.249 24.2029C124.1 25.0777 133.666 28.0773 135.087 29.5258C140.65 28.5541 147.705 28.6348 153.281 29.5594Z" fill="#FA6444"/>
<path fill-rule="evenodd" clip-rule="evenodd" d="M116.015 11.3357C115.819 11.4024 115.754 11.5672 115.82 11.7592L116.234 12.801C116.268 12.8863 116.349 12.9483 116.535 12.9913C117.038 13.1189 117.957 13.0209 118.549 12.9977C126.045 12.7082 133.553 12.8608 141.039 13.3416C142.934 13.4635 144.08 18.7909 144.705 21.7139C144.533 20.2463 144.062 16.76 143.299 14.4519C142.697 12.6287 141.997 11.7719 140.541 11.6147C134.421 10.9523 124.972 10.8374 118.319 11.0387C117.377 11.0677 116.953 11.048 116.015 11.3357ZM132.292 13.6108C132.868 16.0245 133.607 19.4644 134.249 23.536C134.039 23.5313 133.829 23.5267 133.619 23.522C132.969 19.4244 132.223 15.9793 131.651 13.594C131.865 13.5998 132.079 13.605 132.292 13.6108Z" fill="#FA6444"/>
<path fill-rule="evenodd" clip-rule="evenodd" d="M111.009 15.1149C111.802 14.9235 113.677 14.4879 114.726 14.3864C116.361 14.228 116.669 15.731 116.942 17.0083C117.245 18.4237 117.499 19.9348 117.704 21.4042C117.791 22.0353 117.939 23.3109 118.697 23.504C118.26 21.6229 117.888 19.2944 117.569 17.4956C117.335 16.1782 117.147 15.0331 117.118 14.6329C117.094 14.3069 117.166 13.9113 117.394 13.6676C116.956 13.6746 116.636 13.6514 116.397 13.5963C115.975 13.4994 115.771 13.3097 115.66 13.0301L115.245 11.9883C115.04 11.4732 115.299 10.9082 115.834 10.7446C116.83 10.4395 117.31 10.4517 118.303 10.4215C125.471 10.2046 132.63 10.0885 139.776 10.7933C140.035 10.8189 140.278 10.8444 140.507 10.8699C139.831 10.1077 138.763 9.75036 137.773 9.65871C136.243 9.51717 130.644 9.35649 125.226 9.25845C120.65 9.1755 116.209 9.1378 114.468 9.19464C112.726 9.25091 112.069 9.60998 111.662 10.2591C111.008 11.3003 111.056 13.7715 111.009 15.1149Z" fill="#FA6444"/>
<path fill-rule="evenodd" clip-rule="evenodd" d="M111.482 42.8008L112.745 41.1528L105.721 41.2224L106.06 42.8008H111.482ZM103.599 44.943C103.45 45.2417 103.144 45.8787 103.105 46.1484C103.071 46.3781 103.215 47.4089 103.533 47.4542C103.602 47.464 104.169 47.4704 104.285 47.4716C104.702 47.4745 104.658 47.2807 104.509 46.7117C104.422 46.3787 104.36 46.1113 104.858 45.0671C104.921 44.9343 104.938 44.7841 104.763 44.7777C104.649 44.7736 104.018 44.7765 103.857 44.7794C103.725 44.7812 103.664 44.8113 103.599 44.943ZM113.214 51.9179C113.212 51.6081 113.211 51.2873 113.21 50.9567L97.4675 49.2553C97.4739 49.666 97.4797 50.0007 97.4837 50.2177L113.214 51.9179ZM113.211 50.3331C113.221 47.507 113.344 44.0961 114.121 41.1389L113.384 41.1464L111.315 43.8467H97.4059C97.4071 45.1455 97.4344 47.1607 97.457 48.6306L106.268 49.5831C106.068 48.8243 105.809 47.2691 105.736 46.7262C105.679 46.3097 105.822 45.5886 105.926 45.1472C105.998 44.8363 106.148 44.7029 106.487 44.7185C106.635 44.7249 111.311 44.7655 111.642 44.7806C111.973 44.7957 112.034 44.9378 111.987 45.2023C111.94 45.4674 111.765 45.9576 111.784 47.1885L111.829 50.1846L113.211 50.3331ZM108.856 49.8621L109.299 49.9102C109.428 49.9172 109.551 49.923 109.633 49.9236C109.855 49.9253 109.853 49.735 109.791 49.5651C109.749 49.4502 109.621 49.0755 109.528 48.7228C109.469 48.4943 109.411 48.4595 109.18 48.449L108.57 48.4212C108.371 48.4125 108.318 48.5349 108.369 48.7089C108.473 49.0552 108.617 49.4415 108.705 49.6724C108.746 49.7768 108.79 49.8325 108.856 49.8621Z" fill="#FA6444"/>
<path fill-rule="evenodd" clip-rule="evenodd" d="M101.554 7.89864C101.666 6.75937 102.147 1.94181 102.432 0.597183C102.486 0.346008 102.563 0.151682 102.665 0.00086085C101.708 -0.000879389 100.907 0.000280771 100.312 0.00202101C99.3774 0.00492141 98.7419 0.714359 98.692 1.55547L98.244 9.12957C99.916 8.57154 101.344 7.97405 101.554 7.89864ZM118.95 8.55704C118.696 2.20168 108.773 0.0809118 103.793 0.00666165C103.208 -0.00203955 102.986 -0.0211822 102.837 0.681294C102.569 1.94587 102.122 6.34809 101.984 7.74898C102.352 7.62369 102.734 7.50129 103.117 7.38933C105.978 6.55228 108.945 6.37188 111.856 8.92887C112.634 8.70612 113.563 8.60692 114.384 8.57908C115.287 8.54775 116.931 8.54311 118.95 8.55704ZM117.891 0.268278C122.209 1.2811 127.617 3.62694 127.984 8.69452C130.165 8.74208 132.258 8.79777 133.979 8.85578C132.767 1.93369 123.675 0.491028 117.891 0.268278ZM124.255 0.620966C128.783 1.64423 133.557 3.76326 134.4 8.87028C135.979 8.92597 137.197 8.98397 137.807 9.03908C136.13 1.98589 130.517 1.11461 124.255 0.620966ZM127.57 8.68523C127.123 3.00045 119.867 0.840816 115.159 0.176045C112.838 0.109336 110.516 0.0658298 108.194 0.0379859C112.629 0.950451 119.164 3.14547 119.364 8.55994C121.14 8.57444 123.175 8.60228 125.236 8.63941C126.014 8.65391 126.796 8.66899 127.57 8.68523Z" fill="#FA6444"/>
<path fill-rule="evenodd" clip-rule="evenodd" d="M153.63 30.2451C150.955 29.7706 147.825 29.5095 144.696 29.4718C141.466 29.4329 138.24 29.6313 135.519 30.0786C135.889 30.6859 136.07 31.4568 136.15 32.5428L136.971 43.5875C137.014 44.1763 137.071 44.4547 137.691 44.5782C138.078 44.6554 140.429 44.9936 142.571 45.2859C143.629 45.4304 144.636 45.5644 145.327 45.6502C146.236 45.7628 146.549 45.8022 147.518 45.6259L154.635 44.3317C155.31 44.2093 155.315 43.9477 155.326 43.4053C155.361 41.7411 155.35 40.2752 155.325 38.611C155.292 36.235 155.228 33.7499 155.173 32.2788C155.127 31.0775 154.805 30.4533 153.63 30.2451ZM136.96 31.7382C136.898 31.172 137.385 31.1378 137.823 31.1685L140.18 31.3327C140.418 31.3495 140.604 31.5381 140.616 31.7759L141.249 44.0573C141.264 44.352 141.197 44.5127 140.878 44.4605L139.015 44.1525C137.943 43.9755 137.858 44.0417 137.796 43.0724L136.96 31.7382ZM149.906 44.7656L147.127 45.2349C146.663 45.3173 146.558 45.254 146.547 44.794L146.259 32.1848C146.253 31.9366 146.443 31.7272 146.691 31.7074L150.049 31.4423C150.321 31.4209 150.552 31.6309 150.556 31.9035L150.694 43.9164C150.702 44.5823 150.714 44.6328 149.906 44.7656ZM154.49 32.0097L154.452 43.1414C154.455 43.8288 154.379 43.9193 153.75 44.0724L151.794 44.3996C151.206 44.4965 151.213 44.3021 151.208 43.7998L151.07 31.7991C151.067 31.5526 151.255 31.3466 151.502 31.3269L153.726 31.1511C154.335 31.1511 154.51 31.4476 154.49 32.0097ZM142.421 44.7221C141.975 44.6496 141.791 44.5487 141.768 44.0875L141.141 31.9261C141.126 31.6436 141.36 31.4157 141.643 31.4354L145.305 31.6906C145.547 31.7074 145.736 31.9047 145.742 32.1471L146.033 44.8782C146.042 45.272 145.908 45.3196 145.548 45.2569L142.421 44.7221Z" fill="#FA6444"/>
<path fill-rule="evenodd" clip-rule="evenodd" d="M112.285 25.1455L114.623 28.1224V27.2001L112.326 24.2759C112.32 24.3804 112.318 24.4755 112.315 24.5706C112.309 24.7638 112.302 24.9581 112.285 25.1455Z" fill="url(#paint0_linear_6029_1059)"/>
<path fill-rule="evenodd" clip-rule="evenodd" d="M108.738 17.9751C108.707 18.467 108.636 19.9845 108.573 21.4788C108.509 22.9736 108.451 24.4471 108.443 24.8705C108.438 25.1449 108.552 25.3595 108.715 25.5185C108.956 25.7522 109.295 25.8769 109.552 25.906C109.755 25.9292 110.015 25.9518 110.276 25.9593C110.476 25.9645 110.681 25.9616 110.869 25.9437C111.654 25.8682 111.674 25.1965 111.695 24.5317V24.5306C111.699 24.4018 111.704 24.2736 111.71 24.1657C111.742 23.6431 111.779 21.7758 111.782 20.1904C111.785 19.0546 111.772 18.0679 111.73 17.8411C111.702 17.6891 111.615 17.5789 111.507 17.5012C111.329 17.3718 111.099 17.3243 110.953 17.319C110.847 17.3156 110.618 17.3179 110.361 17.3225C110.105 17.3272 109.813 17.3341 109.586 17.3399C109.306 17.3469 109.072 17.3562 108.94 17.4356C108.83 17.5018 108.759 17.6555 108.738 17.9751Z" fill="#FA6444"/>
<path fill-rule="evenodd" clip-rule="evenodd" d="M27.1408 11.7538L96.0845 1.97778L95.8704 6.14681L27.1408 11.7538ZM95.7903 7.69852L95.5668 12.0427L39.8767 15.1189L95.7903 7.69852ZM95.4873 13.591L95.2645 17.9358L53.0066 18.3905L95.4873 13.591Z" fill="#FA6444"/>
<path fill-rule="evenodd" clip-rule="evenodd" d="M159.841 40.6006C159.333 40.8559 158.822 41.1094 158.315 41.3663C157.273 41.8942 157.35 42.0955 156.925 43.3148C157.038 42.3664 157.081 41.324 158.135 40.7729C158.491 40.5867 158.808 40.4249 159.059 40.2984C159.559 40.0466 159.669 40.2021 159.841 40.6006Z" fill="#FA6444"/>
<path fill-rule="evenodd" clip-rule="evenodd" d="M114.891 38.8238C115.103 38.344 115.341 37.8887 115.609 37.4629L112.473 37.5267C112.473 37.5267 114.64 37.2135 115.895 37.036C116.492 36.2025 117.083 35.7609 117.869 35.3137L117.872 34.9517C115.737 34.8984 113.601 34.8461 111.46 34.8079C113.597 34.6431 115.842 34.4772 117.877 34.3171C117.89 32.3135 117.905 28.5395 117.918 26.8068L117.919 26.6624C117.924 25.6919 117.93 24.7818 118.658 24.0758C117.313 23.5497 117.328 21.6702 117.139 20.4793C116.94 19.2281 116.699 17.8481 116.537 17.0876C116.379 16.3538 116.22 15.7285 115.948 15.3172C115.7 14.9425 115.341 14.7423 114.764 14.798C113.692 14.9018 111.699 15.3717 110.994 15.5428C110.982 15.9089 110.969 16.294 110.957 16.6937L110.973 16.6943C111.071 16.6972 111.192 16.7129 111.321 16.7448V16.1977C112.279 15.9947 113.254 15.7934 114.223 15.6606C114.742 15.5898 115.262 15.5834 115.641 15.9953C115.866 16.2389 116.06 16.8498 116.216 17.5546C116.451 18.6207 116.613 19.9306 116.649 20.4364C116.649 21.8825 116.735 23.3559 116.753 24.8084C116.762 25.5631 116.585 25.8636 115.7 25.8479C115.343 25.8416 114.759 25.8259 114.35 25.8143L115.074 26.7332H116.216C116.313 26.7332 116.401 26.7726 116.464 26.8358C116.528 26.8991 116.567 26.9872 116.567 27.0835V29.6626C116.567 29.7588 116.528 29.847 116.464 29.9102C116.401 29.9735 116.313 30.0129 116.216 30.0129H114.975C114.878 30.0129 114.79 29.9735 114.726 29.9102C114.662 29.847 114.623 29.7588 114.623 29.6626V29.0842L112.095 25.8746C111.914 26.2296 111.575 26.4866 110.927 26.5493C110.834 26.558 110.737 26.5638 110.64 26.5672C110.619 27.1839 110.598 27.7709 110.577 28.315C110.552 28.9641 110.528 29.5564 110.505 30.0721C110.393 32.5809 110.436 34.4645 110.597 35.9367C110.733 37.1856 110.954 38.134 111.236 38.9183C111.544 38.9166 111.786 38.916 111.947 38.916C113.138 38.9177 114.217 38.8655 114.891 38.8238ZM111.33 35.3021C111.33 35.3021 112.277 35.2696 112.472 35.3114C112.667 35.3531 112.963 35.566 113.02 35.8201C113.076 36.0748 113.103 36.5324 113.103 36.6711C113.103 36.8097 113.062 36.87 112.992 36.8979C112.922 36.9257 111.911 36.9907 111.781 36.9948C111.651 36.9994 111.289 36.6479 111.242 36.4721C111.208 36.3416 111.178 35.8694 111.166 35.6351C111.159 35.508 111.178 35.3502 111.33 35.3021Z" fill="#FA6444"/>
<path fill-rule="evenodd" clip-rule="evenodd" d="M24.7177 41.9607H3.89343L5.66583 45.1053H25.3926L24.7177 41.9607ZM25.702 46.5468H8.03484L9.80724 49.6914H26.3769L25.702 46.5468Z" fill="#FA6444"/>
<path d="M4.35967 38.1195V25.9856H0V22.615H13.2476V25.9856H8.88795V38.1195H4.35967Z" fill="#FA6444"/>
<path d="M13.6262 38.1194V26.7077H17.9858L18.1063 27.6226C18.5719 27.3497 19.1661 27.1009 19.8887 26.8762C20.6113 26.6515 21.3419 26.5151 22.0806 26.467V29.8375C21.6631 29.8696 21.2054 29.9258 20.7076 30.006C20.2259 30.0863 19.7522 30.1906 19.2865 30.319C18.8369 30.4313 18.4595 30.5597 18.1544 30.7042V38.1194H13.6262Z" fill="#FA6444"/>
<path d="M26.7017 38.3601C25.9791 38.3601 25.3047 38.2317 24.6785 37.9749C24.0683 37.7181 23.5785 37.3169 23.2092 36.7711C22.8399 36.2254 22.6552 35.5353 22.6552 34.7007C22.6552 33.4969 23.0566 32.566 23.8595 31.908C24.6624 31.2339 25.8748 30.8968 27.4966 30.8968H30.4592V30.6801C30.4592 30.2307 30.2746 29.9017 29.9053 29.693C29.5359 29.4844 28.8856 29.3801 27.9542 29.3801C26.6375 29.3801 25.3368 29.5807 24.0522 29.9819V27.2614C24.6303 27.0367 25.3529 26.8522 26.22 26.7077C27.0871 26.5472 27.9703 26.467 28.8695 26.467C30.6841 26.467 32.1212 26.8361 33.181 27.5744C34.2408 28.3127 34.7707 29.4844 34.7707 31.0894V38.1194H30.8205L30.6038 37.2045C30.2023 37.5576 29.6804 37.8385 29.0381 38.0471C28.4119 38.2558 27.6331 38.3601 26.7017 38.3601ZM28.2433 35.7118C28.7571 35.7118 29.1907 35.6236 29.544 35.447C29.9133 35.2705 30.2184 35.0538 30.4592 34.797V33.3765H28.2674C27.2718 33.3765 26.774 33.7698 26.774 34.5562C26.774 35.3266 27.2638 35.7118 28.2433 35.7118Z" fill="#FA6444"/>
<path d="M43.567 38.3601C41.4955 38.3601 39.8577 37.8706 38.6533 36.8915C37.449 35.8964 36.8468 34.4038 36.8468 32.4135C36.8468 31.0653 37.1278 29.9498 37.6899 29.0671C38.2519 28.1843 39.0387 27.5343 40.0504 27.117C41.062 26.6836 42.2422 26.467 43.5911 26.467C44.4421 26.467 45.2049 26.5312 45.8793 26.6596C46.5537 26.7719 47.196 26.9725 47.8062 27.2614V30.4394C46.8588 29.99 45.783 29.7653 44.5786 29.7653C43.5509 29.7653 42.7721 29.9579 42.2422 30.3431C41.7284 30.7283 41.4715 31.4184 41.4715 32.4135C41.4715 33.3444 41.7203 34.0185 42.2181 34.4358C42.7159 34.8532 43.5028 35.0618 44.5786 35.0618C45.1567 35.0618 45.7187 34.9976 46.2647 34.8692C46.8106 34.7248 47.3325 34.5241 47.8303 34.2673V37.5897C47.2201 37.8626 46.5618 38.0552 45.8552 38.1675C45.1647 38.2959 44.402 38.3601 43.567 38.3601Z" fill="#FA6444"/>
<path d="M50.0148 38.1195V21.8928H54.5431V29.9098L57.7225 26.7078H62.8529L58.3006 31.5229L63.1179 38.1195H58.3006L55.4824 33.8822L54.5431 34.8212V38.1195H50.0148Z" fill="#FA6444"/>
<path d="M65.1944 38.1194V26.7077H69.4336L69.554 27.5744C69.9876 27.2855 70.5576 27.0287 71.2642 26.804C71.9868 26.5793 72.7575 26.467 73.5765 26.467C75.0056 26.467 76.0494 26.8201 76.7077 27.5263C77.3661 28.2325 77.6953 29.3239 77.6953 30.8005V38.1194H73.167V31.2579C73.167 30.7443 73.0546 30.3752 72.8298 30.1505C72.605 29.9258 72.2116 29.8134 71.6496 29.8134C71.3124 29.8134 70.9591 29.8937 70.5898 30.0542C70.2365 30.2147 69.9474 30.4073 69.7226 30.632V38.1194H65.1944Z" fill="#FA6444"/>
<path d="M88.2295 38.3602C85.4676 38.3602 83.3641 37.6861 81.9189 36.3379C80.4737 34.9736 79.7511 33.0316 79.7511 30.5117C79.7511 27.9116 80.4977 25.9053 81.9911 24.4929C83.4845 23.0805 85.6683 22.3743 88.5427 22.3743C89.5061 22.3743 90.3732 22.4304 91.144 22.5428C91.9308 22.6551 92.6695 22.8237 93.36 23.0484V26.9245C92.6534 26.6516 91.9228 26.4671 91.1681 26.3708C90.4134 26.2745 89.6426 26.2263 88.8558 26.2263C87.3624 26.2263 86.2384 26.5634 85.4837 27.2375C84.745 27.9116 84.3757 29.003 84.3757 30.5117C84.3757 31.9241 84.6968 32.9433 85.3391 33.5692C85.9975 34.1952 86.961 34.5082 88.2295 34.5082C88.647 34.5082 89.0405 34.4841 89.4098 34.4359C89.7791 34.3717 90.1244 34.2915 90.4455 34.1952V31.9321H87.3624V29.1394H94.2271V36.9398C93.633 37.3089 92.8381 37.638 91.8425 37.9269C90.863 38.2158 89.6587 38.3602 88.2295 38.3602Z" fill="#FA6444"/>
<path d="M102.614 38.3601C100.334 38.3601 98.6478 37.8545 97.5559 36.8434C96.48 35.8322 95.9421 34.3556 95.9421 32.4135C95.9421 30.4875 96.488 29.0189 97.58 28.0078C98.6719 26.9806 100.35 26.467 102.614 26.467C104.894 26.467 106.58 26.9806 107.672 28.0078C108.78 29.0189 109.334 30.4875 109.334 32.4135C109.334 34.3556 108.788 35.8322 107.696 36.8434C106.604 37.8545 104.91 38.3601 102.614 38.3601ZM102.614 35.0618C103.353 35.0618 103.883 34.8532 104.204 34.4358C104.541 34.0185 104.71 33.3444 104.71 32.4135C104.71 31.4987 104.541 30.8326 104.204 30.4153C103.883 29.9819 103.353 29.7653 102.614 29.7653C101.891 29.7653 101.37 29.9819 101.048 30.4153C100.727 30.8326 100.567 31.4987 100.567 32.4135C100.567 33.3444 100.727 34.0185 101.048 34.4358C101.37 34.8532 101.891 35.0618 102.614 35.0618Z" fill="#FA6444"/>
</g>
<defs>
<linearGradient id="paint0_linear_6029_1059" x1="85.1152" y1="43.0684" x2="84.0151" y2="-18.5256" gradientUnits="userSpaceOnUse">
<stop stop-color="white"/>
<stop offset="1" stop-color="#828282"/>
</linearGradient>
<clipPath id="clip0_6029_1059">
<rect width="161" height="56" fill="white"/>
</clipPath>
</defs>
</svg>
