<svg width="40" height="40" viewBox="0 0 40 40" fill="none" xmlns="http://www.w3.org/2000/svg">
<path fill-rule="evenodd" clip-rule="evenodd" d="M13.2 0C8.64919 0 4.95999 3.68918 4.95999 8.24V31.76C4.95999 36.3108 8.64919 40 13.2 40H20.5487C18.2246 37.5361 16.8 34.2144 16.8 30.56C16.8 22.9606 22.9606 16.8 30.56 16.8C32.1285 16.8 33.6356 17.0624 35.04 17.5458V8.24C35.04 3.68918 31.3508 0 26.8 0H13.2ZM10.8 8.96C10.8 7.76706 11.767 6.8 12.96 6.8H24C25.193 6.8 26.16 7.76706 26.16 8.96C26.16 10.153 25.193 11.12 24 11.12H12.96C11.767 11.12 10.8 10.153 10.8 8.96ZM12.96 14C11.767 14 10.8 14.967 10.8 16.16C10.8 17.353 11.767 18.32 12.96 18.32H16C17.193 18.32 18.16 17.353 18.16 16.16C18.16 14.967 17.193 14 16 14H12.96Z" fill="#FA6444"/>
<path fill-rule="evenodd" clip-rule="evenodd" d="M30.56 40.0001C29.8933 40.0001 29.2427 39.931 28.6151 39.7996C24.3346 38.903 21.12 35.107 21.12 30.5601C21.12 25.3465 25.3464 21.1201 30.56 21.1201C32.1813 21.1201 33.707 21.5288 35.04 22.2488C37.9934 23.8442 40 26.9678 40 30.5601C40 35.7737 35.7736 40.0001 30.56 40.0001ZM28.7274 29.0762C27.8838 28.2327 26.5162 28.2327 25.6726 29.0762C24.8291 29.9197 24.8291 31.2874 25.6726 32.1309L28.0767 34.5349C28.9202 35.3784 30.2878 35.3784 31.1314 34.5349L35.7349 29.9315C36.5784 29.088 36.5784 27.7203 35.7349 26.8768C34.8914 26.0332 33.5237 26.0332 32.6802 26.8768L29.6041 29.9529L28.7274 29.0762Z" fill="#FA6444"/>
</svg>
