<svg width="40" height="40" viewBox="0 0 40 40" fill="none" xmlns="http://www.w3.org/2000/svg">
<path fill-rule="evenodd" clip-rule="evenodd" d="M2.69745 26.5095C2.92491 26.5095 3.11126 26.718 3.11126 26.9795V28.9527C3.11126 29.2141 2.92491 29.4227 2.69745 29.4227H1.17651V26.5095H2.69745ZM1.17651 25.2546V22.9645C1.17651 22.7621 1.21385 22.591 1.29165 22.4043L3.99008 16.0519C4.24844 15.4418 4.86161 15.059 5.57746 15.059H12.6233V31.8441H10.9015C10.9015 29.9803 9.38883 28.4715 7.52891 28.4715C5.66514 28.4715 4.15636 29.9803 4.15636 31.8441H2.19738C1.63714 31.8441 1.17651 31.3866 1.17651 30.8232V30.6776H2.69745C3.56922 30.6776 4.36616 29.9547 4.36616 28.9527V26.9795C4.36616 25.9774 3.56922 25.2546 2.69745 25.2546H1.17651ZM4.2453 21.9561H10.2989V17.6516H6.07542L4.2453 21.9561ZM7.52891 29.7264C8.69675 29.7264 9.64655 30.6738 9.64655 31.8441C9.64655 33.0144 8.69675 33.9617 7.52891 33.9617C6.35863 33.9617 5.41126 33.0144 5.41126 31.8441C5.41126 30.6738 6.35863 29.7264 7.52891 29.7264ZM26.7043 29.7264C27.8746 29.7264 28.8219 30.6738 28.8219 31.8441C28.8219 33.0144 27.8746 33.9617 26.7043 33.9617C25.534 33.9617 24.5866 33.0144 24.5866 31.8441C24.5866 30.6738 25.534 29.7264 26.7043 29.7264ZM23.3317 31.8441H13.8782V12.0525C13.8782 11.3055 14.4882 10.6923 15.2382 10.6923H23.8024V14.3216C23.8024 18.9581 27.162 22.9802 31.7106 23.8229C31.8617 23.8509 32.0167 23.8509 32.1677 23.8229C33.1444 23.6421 34.0662 23.3148 34.9117 22.8665V30.484C34.9117 31.2341 34.2985 31.8441 33.5515 31.8441H30.0768C30.0768 29.9803 28.568 28.4715 26.7043 28.4715C24.8405 28.4715 23.3317 29.9803 23.3317 31.8441ZM31.9393 5.43555L38.8236 8.38323V14.3216C38.8236 18.3562 35.8998 21.8557 31.9393 22.589C27.9811 21.8557 25.0573 18.3562 25.0573 14.3216V8.38323L31.9393 5.43555ZM27.8736 14.6178L30.1334 16.8776C30.5275 17.2741 31.1677 17.2741 31.5618 16.8776C33.5015 14.9403 34.0819 14.3336 36.0097 12.3868C36.4014 11.9926 36.4014 11.3548 36.0049 10.9606C35.6107 10.569 34.9729 10.5713 34.5812 10.9654L30.8476 14.7348L29.3021 13.1894C28.9056 12.7952 28.2678 12.7952 27.8736 13.1894C27.4771 13.5835 27.4771 14.2237 27.8736 14.6178Z" fill="#FA6444"/>
</svg>
