<svg width="40" height="40" viewBox="0 0 40 40" fill="none" xmlns="http://www.w3.org/2000/svg">
<path d="M7.39515 23.8455C9.95176 23.8455 12.0435 25.9373 12.0435 28.4164H27.7369C27.7369 25.8598 29.8287 23.8455 32.3853 23.8455C34.9419 23.8455 37.0337 25.9373 37.0337 28.4164L37.561 28.4164C38.3299 28.4164 38.9513 27.7852 38.9393 27.0164C38.833 20.187 39.4959 18.842 38.0408 16.9504L33.7024 11.8372C33.0051 11.0625 32.0754 10.5977 31.0683 10.5977H27.1014C26.3399 10.5977 25.7226 11.2149 25.7226 11.9764V22.451H1.79654C1.35662 22.451 1 22.8076 1 23.2476V27.0377C1 27.7991 1.61729 28.4164 2.37875 28.4164H2.82425C2.82425 25.9373 4.91602 23.8455 7.39515 23.8455ZM27.2721 12.2246H31.0683C31.6106 12.2246 32.1529 12.457 32.5403 12.9218L36.8787 17.9576C37.1886 18.3449 37.3436 18.8873 37.4211 19.4296H27.2721V12.2246Z" fill="#FA6444"/>
<path d="M7.3952 31.438C9.06398 31.438 10.4168 30.0852 10.4168 28.4164C10.4168 26.7476 9.06398 25.3948 7.3952 25.3948C5.72641 25.3948 4.3736 26.7476 4.3736 28.4164C4.3736 30.0852 5.72641 31.438 7.3952 31.438Z" fill="#FA6444"/>
<path d="M29.2864 28.4165C29.2864 30.1209 30.6809 31.5154 32.3853 31.5154C34.0897 31.5154 35.4842 30.1209 35.4842 28.4165C35.4842 26.7121 34.0897 25.395 32.3853 25.395C30.6809 25.395 29.2864 26.7895 29.2864 28.4165Z" fill="#FA6444"/>
<path d="M1 19.4761V9.8924C1 9.1149 1.63029 8.48462 2.40778 8.48462H22.7477C23.5252 8.48462 24.1555 9.1149 24.1555 9.8924V19.4761C24.1555 20.2536 23.5252 20.8839 22.7477 20.8839H2.40778C1.63029 20.8839 1 20.2536 1 19.4761Z" fill="#FA6444"/>
</svg>
