<svg width="44" height="44" viewBox="0 0 44 44" fill="none" xmlns="http://www.w3.org/2000/svg">
<path d="M15.2994 16.8708L21.3839 15.2805L22.1257 13.4137C22.1634 13.3194 22.2388 13.2502 22.3394 13.2251L29.0588 11.4777C29.1845 11.4462 29.3165 11.4902 29.3919 11.5971C29.4674 11.704 29.4737 11.8422 29.4045 11.9491L28.4742 13.4451L40.5679 10.296C41.0394 10.1702 41.4354 9.87482 41.6679 9.46625C41.9131 9.05139 41.9822 8.56111 41.8628 8.09596C41.6114 7.13425 40.6245 6.55596 39.6565 6.80111L39.4114 6.87025L37.8525 7.27882C37.4628 7.37939 37.0731 7.42968 36.6897 7.42968C35.4074 7.42968 34.1754 6.89539 33.3017 5.90853L33.0879 5.66968L25.9599 7.51768C25.9537 7.51768 25.9537 7.51768 25.9474 7.52396L6.10967 12.6908C5.65709 12.8102 5.26738 13.0994 5.02852 13.508C4.78967 13.9102 4.72681 14.388 4.83995 14.8405C5.02852 15.5445 5.61309 16.0662 6.33595 16.1605L13.1622 17.0091C13.8788 17.0971 14.5954 17.0531 15.2994 16.8708ZM28.4302 9.07025L29.8005 8.71196C29.9639 8.66796 30.1399 8.76853 30.1839 8.93825C30.2279 9.10796 30.1274 9.27768 29.9577 9.32168L28.5874 9.67996C28.5622 9.68625 28.5371 9.69253 28.5057 9.69253C28.3674 9.69253 28.2417 9.59825 28.2039 9.45996C28.1662 9.29025 28.2668 9.11425 28.4302 9.07025ZM24.1497 10.1891L25.5199 9.83082C25.6897 9.78682 25.8594 9.88739 25.9034 10.0571C25.9474 10.2268 25.8468 10.3965 25.6771 10.4405L24.3068 10.7988C24.2817 10.8051 24.2565 10.8114 24.2251 10.8114C24.0868 10.8114 23.9611 10.7171 23.9234 10.5788C23.8857 10.4028 23.9862 10.2331 24.1497 10.1891ZM19.8691 11.3017L21.2394 10.9434C21.4028 10.8994 21.5788 11 21.6228 11.1697C21.6668 11.3394 21.5662 11.5091 21.3965 11.5531L20.0262 11.9114C20.0011 11.9177 19.9759 11.924 19.9445 11.924C19.8062 11.924 19.6805 11.8297 19.6428 11.6914C19.6051 11.5154 19.7057 11.3457 19.8691 11.3017ZM15.5885 12.4205L16.9588 12.0622C17.1222 12.0182 17.2982 12.1188 17.3422 12.2885C17.3862 12.4582 17.2857 12.628 17.1159 12.672L15.7457 13.0302C15.7205 13.0365 15.6954 13.0428 15.6639 13.0428C15.5257 13.0428 15.4 12.9485 15.3622 12.8102C15.3245 12.6342 15.4251 12.4582 15.5885 12.4205Z" fill="white"/>
<path d="M4.68908 5.61939C4.55708 5.5251 4.39994 5.50624 4.26166 5.5691L2.33823 6.41767C2.21251 6.47424 2.12451 6.5811 2.09308 6.7131C2.06166 6.85139 2.09308 6.98967 2.18737 7.09653L6.31708 11.9868L11.4965 10.6354L4.68908 5.61939Z" fill="white"/>
<path d="M27.525 13.7782L28.4553 12.2822L22.6536 13.7908L21.9119 15.6577L20.353 19.5862C20.2336 19.8817 20.2902 20.1959 20.5039 20.4348C20.7176 20.6737 21.0256 20.7679 21.3336 20.6862L23.2759 20.1834C23.477 20.1268 23.653 20.0011 23.7662 19.8188L27.525 13.7782Z" fill="white"/>
<path d="M7.73768 19.1462L8.87539 17.1096L7.06511 16.8833L6.25425 19.1713C6.20397 19.3159 6.27311 19.4164 6.31082 19.4542C6.34854 19.4919 6.44282 19.5799 6.59368 19.5359L7.56797 19.2782C7.65597 19.2656 7.71254 19.1902 7.73768 19.1462Z" fill="white"/>
<path d="M37.6891 6.6627L38.5502 6.43642L38.4245 6.36099C38.4119 6.3547 38.3994 6.34842 38.3931 6.34213C38.1794 6.21013 37.9594 6.09699 37.7394 5.99013C37.6639 5.95242 37.5885 5.92099 37.5131 5.88956C37.3056 5.80156 37.0919 5.71985 36.8782 5.65699C36.8405 5.64442 36.8091 5.63185 36.7714 5.61927C36.5262 5.55013 36.2685 5.49985 36.0171 5.45585C35.9479 5.44327 35.8725 5.43699 35.8034 5.42442C35.5645 5.39299 35.3256 5.37413 35.0868 5.37413C35.0616 5.37413 35.0365 5.36785 35.0051 5.37413C34.7662 5.37413 34.5211 5.39299 34.2822 5.41813C34.2194 5.42442 34.1565 5.43699 34.0936 5.44956C33.9931 5.46213 33.8925 5.48727 33.7856 5.50613C34.7662 6.59356 36.2622 7.03356 37.6891 6.6627Z" fill="white"/>
<path d="M16.3805 5.78904L19.7119 8.49819L25.0296 7.11533L19.253 3.92218C19.0645 3.81533 18.8507 3.79019 18.6433 3.84676L16.701 4.34961C16.393 4.43133 16.1667 4.6639 16.1039 4.97819C16.0285 5.2799 16.1353 5.5879 16.3805 5.78904Z" fill="white"/>
<path d="M14.3314 28.845C14.3879 28.845 14.4445 28.8576 14.4948 28.8953L15.9531 29.8005V26.6702H12.7034V29.8005L14.1617 28.8953C14.2182 28.8576 14.2748 28.845 14.3314 28.845Z" fill="white"/>
<path d="M21.4719 40.1906C21.8679 40.1906 22.1885 39.87 22.1885 39.4803V37.934C22.1885 37.9278 22.1885 37.9215 22.1885 37.9152V27.3678C22.1822 26.978 21.8679 26.6638 21.4719 26.6638H16.5879V30.3598C16.5879 30.4729 16.525 30.5798 16.4245 30.6363C16.3742 30.6615 16.3239 30.674 16.2736 30.674C16.217 30.674 16.1605 30.6552 16.1102 30.6238L14.3376 29.5238L12.565 30.6238C12.4708 30.6866 12.345 30.6866 12.2445 30.63C12.1439 30.5735 12.081 30.4729 12.081 30.3535V26.6575H7.19075C6.80104 26.6575 6.48047 26.978 6.48047 27.3678V39.474C6.48047 39.8638 6.80104 40.1843 7.19075 40.1843H21.4719V40.1906ZM8.19018 36.6329H12.0245C12.2005 36.6329 12.3388 36.7712 12.3388 36.9472C12.3388 37.1232 12.2005 37.2615 12.0245 37.2615H8.19018C8.01418 37.2615 7.8759 37.1232 7.8759 36.9472C7.8759 36.7712 8.02047 36.6329 8.19018 36.6329ZM8.19018 38.242H10.3085C10.4845 38.242 10.6228 38.3803 10.6228 38.5563C10.6228 38.7323 10.4845 38.8706 10.3085 38.8706H8.19018C8.01418 38.8706 7.8759 38.7323 7.8759 38.5563C7.8759 38.3803 8.02047 38.242 8.19018 38.242Z" fill="white"/>
<path d="M5.85185 27.3804C5.85185 26.6387 6.45528 26.0416 7.19071 26.0416H12.3953H16.2736H20.6233V25.8153C20.6233 25.4256 20.3027 25.105 19.9067 25.105H5.62557C5.24214 25.105 4.91528 25.4318 4.91528 25.8153V37.9153C4.91528 38.305 5.23585 38.6256 5.62557 38.6256H5.85185V27.3804Z" fill="white"/>
<path d="M37.8083 25.105H23.5272C23.1438 25.105 22.8169 25.4318 22.8169 25.8153V27.3616V27.3804V37.9216C22.8232 38.3113 23.1375 38.6256 23.5272 38.6256H23.7535V27.3804C23.7535 26.6387 24.3569 26.0416 25.0923 26.0416H30.2969H34.1752H38.5312V25.8153C38.5312 25.4193 38.2043 25.105 37.8083 25.105Z" fill="white"/>
<path d="M39.3735 26.6701H34.4895V30.3661C34.4895 30.4792 34.4267 30.5861 34.3261 30.6427C34.2758 30.6678 34.2255 30.6804 34.1752 30.6804C34.1186 30.6804 34.0621 30.6615 34.0118 30.6301L32.2392 29.5301L30.4667 30.6301C30.3724 30.693 30.2467 30.693 30.1461 30.6364C30.0455 30.5798 29.9827 30.4792 29.9827 30.3598V26.6638H25.0924C24.7026 26.6638 24.3821 26.9844 24.3821 27.3741V39.4741C24.3821 39.8638 24.7026 40.1844 25.0924 40.1844H39.3735C39.7695 40.1844 40.0901 39.8638 40.0901 39.4741V27.3804C40.0901 26.9907 39.7695 26.6701 39.3735 26.6701ZM28.2667 38.8707H26.1484C25.9724 38.8707 25.8341 38.7324 25.8341 38.5564C25.8341 38.3804 25.9724 38.2421 26.1484 38.2421H28.2667C28.4427 38.2421 28.5809 38.3804 28.5809 38.5564C28.5809 38.7261 28.4364 38.8707 28.2667 38.8707ZM29.9827 37.2615H26.1484C25.9724 37.2615 25.8341 37.1232 25.8341 36.9472C25.8341 36.7712 25.9724 36.633 26.1484 36.633H29.9827C30.1587 36.633 30.2969 36.7712 30.2969 36.9472C30.2969 37.117 30.1587 37.2615 29.9827 37.2615Z" fill="white"/>
<path d="M32.2393 28.845C32.2959 28.845 32.3525 28.8576 32.4028 28.8953L33.861 29.8005V26.6702H30.6113V29.8005L32.0696 28.8953C32.1199 28.8576 32.1765 28.845 32.2393 28.845Z" fill="white"/>
</svg>
