<svg width="38" height="40" viewBox="0 0 38 40" fill="none" xmlns="http://www.w3.org/2000/svg">
<path d="M29.2375 23.2375L25.425 11.5875C25.395 11.497 25.3908 11.4 25.4128 11.3072C25.4349 11.2145 25.4824 11.1297 25.55 11.0625L29.375 7.2375C31.9875 4.5375 32.4375 2.375 32.3625 0.9875C32.3389 0.727197 32.2223 0.484124 32.034 0.302779C31.8458 0.121434 31.5986 0.0139483 31.3375 0L31.0625 0C29.8125 0 27.7 0.525 25.125 3.0125L21.375 6.825C21.3255 6.87352 21.2669 6.91176 21.2025 6.9375C21.1382 6.96325 21.0694 6.97599 21 6.975H20.85L2.18755 0.8625L1.05005 2.5L14.5125 12.575C14.5722 12.6164 14.622 12.6702 14.6587 12.7328C14.6954 12.7954 14.7181 12.8653 14.725 12.9375C14.7311 13.0072 14.7231 13.0773 14.7016 13.1439C14.6802 13.2104 14.6456 13.272 14.6 13.325L14.525 13.4C13.1125 14.9625 8.40005 20.2625 7.02505 23.025C6.98371 23.1097 6.91984 23.1813 6.84045 23.232C6.76107 23.2827 6.66923 23.3106 6.57505 23.3125H6.50005L0.662549 22.325L0.175049 23.75L5.72505 26.3875C5.83072 26.4409 5.91464 26.5292 5.96255 26.6375L8.61255 32.1875L10.025 31.7625L9.00005 25.9375C8.98002 25.8316 8.99475 25.722 9.04206 25.6252C9.08936 25.5283 9.1667 25.4493 9.26255 25.4C12.5 23.75 19 17.8375 19 17.7875C19.1059 17.6921 19.2453 17.6427 19.3875 17.65C19.4604 17.6561 19.5312 17.677 19.5957 17.7114C19.6601 17.7457 19.7169 17.7929 19.7626 17.85L23.7875 23.2375H29.2375Z" fill="white"/>
<path d="M37.475 24.2625H32.0375V28.575C32.0355 28.6676 32.0089 28.758 31.9607 28.837C31.9124 28.916 31.844 28.9809 31.7625 29.025C31.685 29.0644 31.5995 29.0858 31.5125 29.0875C31.4135 29.0913 31.3162 29.0603 31.2375 29L29 27.5L26.625 29C26.5455 29.0585 26.4488 29.0893 26.35 29.0875C26.2631 29.0858 26.1776 29.0644 26.1 29.025C26.0192 28.9813 25.9519 28.9162 25.9056 28.8368C25.8593 28.7575 25.8357 28.6668 25.8375 28.575V24.2625H20.4C20.3093 24.2624 20.2222 24.2975 20.1569 24.3605C20.0916 24.4235 20.0533 24.5093 20.05 24.6V39.6C20.05 39.6928 20.0869 39.7818 20.1526 39.8474C20.2182 39.9131 20.3072 39.95 20.4 39.95H37.475C37.5669 39.9468 37.6541 39.909 37.7191 39.844C37.7841 39.779 37.8219 39.6918 37.825 39.6V24.6C37.8218 24.5093 37.7835 24.4235 37.7182 24.3605C37.6529 24.2975 37.5658 24.2624 37.475 24.2625ZM26.35 37.5H22.925C22.7891 37.5 22.6588 37.446 22.5627 37.3498C22.4665 37.2537 22.4125 37.1234 22.4125 36.9875C22.4125 36.8515 22.4665 36.7212 22.5627 36.6251C22.6588 36.5289 22.7891 36.475 22.925 36.475H26.35C26.485 36.4781 26.6135 36.5331 26.7089 36.6286C26.8044 36.724 26.8594 36.8525 26.8625 36.9875C26.8625 37.1234 26.8086 37.2537 26.7124 37.3498C26.6163 37.446 26.486 37.5 26.35 37.5ZM26.35 35.3375H22.925C22.7901 35.3343 22.6616 35.2793 22.5662 35.1838C22.4707 35.0884 22.4157 34.9599 22.4125 34.825C22.4125 34.689 22.4665 34.5587 22.5627 34.4626C22.6588 34.3664 22.7891 34.3125 22.925 34.3125H26.35C26.486 34.3125 26.6163 34.3664 26.7124 34.4626C26.8086 34.5587 26.8625 34.689 26.8625 34.825C26.8532 34.9555 26.7955 35.0778 26.7007 35.168C26.6059 35.2581 26.4809 35.3097 26.35 35.3125V35.3375Z" fill="white"/>
<path d="M26.8625 27.6125L28.65 26.3625C28.7349 26.305 28.835 26.2742 28.9375 26.2742C29.04 26.2742 29.1402 26.305 29.225 26.3625L31 27.6125V24.2625H26.8625V27.6125Z" fill="white"/>
</svg>
