<svg width="48" height="48" viewBox="0 0 48 48" fill="none" xmlns="http://www.w3.org/2000/svg">
<path d="M33.3824 11.595V16.5375C32.6624 17.3025 31.7999 18.24 30.8174 19.305H30.8099V19.3125L30.5024 19.65C28.6274 21.69 26.3399 24.1725 23.9399 26.8275C22.9874 27.8775 22.0199 28.95 21.0449 30.0375V18.7125L33.3824 11.595Z" fill="white"/>
<path d="M38.7915 31.2901L38.2312 31.8503C38.2612 31.9328 38.2897 32.0131 38.3205 32.0971C38.5357 32.6866 38.754 33.2633 38.9722 33.8318L40.152 32.6513C40.3342 32.4691 40.4347 32.2276 40.4347 31.9703C40.4347 31.7131 40.3342 31.4723 40.152 31.2908C39.792 30.9301 39.1515 30.9293 38.7915 31.2901Z" fill="white"/>
<path d="M14.2891 13.9447L20.2988 17.4142L32.6311 10.2944L26.6236 6.82568L14.2891 13.9447Z" fill="white"/>
<path d="M7.11377 25.4294L19.0208 32.3039C19.1955 32.1074 19.3718 31.9117 19.5465 31.7152V18.7124L13.5383 15.2437V18.0487C13.5383 18.4627 13.203 18.7987 12.7883 18.7987C12.3735 18.7987 12.0383 18.4627 12.0383 18.0487V14.3782L7.11377 11.5349V25.4302V25.4294Z" fill="white"/>
<path d="M37.9852 35.4419C37.6342 34.5389 37.266 33.5849 36.9127 32.6159C36.8377 32.4157 36.7665 32.2154 36.6952 32.0159L36.657 31.9087C35.5245 28.5869 35.2177 25.7639 35.1352 24.3757C35.1352 24.3682 35.1382 24.3614 35.1382 24.3539C35.1352 24.2759 35.1487 24.2017 35.1697 24.1259C35.175 24.1072 35.1765 24.0869 35.1832 24.0689C35.208 24.0014 35.2485 23.9414 35.2935 23.8822C35.3085 23.8627 35.3197 23.8409 35.3362 23.8229C35.349 23.8087 35.355 23.7907 35.3685 23.7779C38.1577 21.1972 39.849 19.6027 40.113 19.3387C41.1457 18.3067 41.145 16.6222 40.1115 15.5842C39.6105 15.0832 38.9407 14.8057 38.2282 14.8049H38.226C37.5142 14.8049 36.8475 15.0802 36.348 15.5797C36.1935 15.7349 35.5882 16.3724 34.6792 17.3444C34.6672 17.3572 34.6567 17.3699 34.644 17.3819C33.9142 18.1627 32.9962 19.1504 31.9297 20.3069C31.9102 20.3294 31.8922 20.3512 31.8712 20.3707L31.6035 20.6609C29.7285 22.7002 27.4477 25.1804 25.0492 27.8377C22.6507 30.4949 25.0492 27.8392 25.0477 27.8399C25.0432 27.8444 25.0387 27.8497 25.0342 27.8549C25.0297 27.8602 25.0252 27.8654 25.0207 27.8699C23.2785 29.7854 21.4725 31.7977 19.7047 33.7882C19.7017 33.7912 19.6972 33.7927 19.6942 33.7957C19.5502 33.9562 19.3485 34.0604 19.128 34.0439L13.2315 33.8894L11.376 35.7457L17.4795 37.7339C17.4982 37.7399 17.5102 37.7542 17.5282 37.7609C17.577 37.7812 17.6205 37.8074 17.664 37.8374C17.7022 37.8637 17.739 37.8892 17.7712 37.9214C17.805 37.9544 17.8305 37.9927 17.8575 38.0324C17.8867 38.0752 17.9122 38.1172 17.9317 38.1644C17.9392 38.1824 17.9535 38.1952 17.9602 38.2147L19.9477 44.3182L21.804 42.4627L21.6495 36.5662C21.6495 36.5587 21.6532 36.5527 21.6532 36.5452C21.654 36.4972 21.6675 36.4529 21.678 36.4057C21.6892 36.3502 21.6967 36.2947 21.7192 36.2444C21.7237 36.2347 21.7312 36.2264 21.7365 36.2174C21.78 36.1312 21.837 36.0562 21.9082 35.9932C23.9062 34.2179 25.9207 32.3999 27.8475 30.6472C27.9622 30.5429 28.1017 30.4949 28.245 30.4739C28.4827 30.4387 28.7317 30.5032 28.9065 30.6937C32.5125 34.6064 37.0012 40.9822 38.5005 43.1504L40.2855 41.3662C39.9082 40.4234 39.0007 38.1359 37.983 35.4442L37.9852 35.4419Z" fill="white"/>
<path d="M7.86523 10.236L12.789 13.0785L25.1235 5.95946L20.1982 3.11621L7.86523 10.236Z" fill="white"/>
</svg>
