<svg width="64" height="64" viewBox="0 0 64 64" fill="none" xmlns="http://www.w3.org/2000/svg">
<g clip-path="url(#clip0_193_493)">
<path d="M39.0713 20.2988C38.9907 20.1514 38.8719 20.0285 38.7274 19.9429C38.5829 19.8574 38.418 19.8123 38.2501 19.8125H28.2501C28.07 19.8126 27.8938 19.8646 27.7424 19.9621C27.591 20.0596 27.4709 20.1986 27.3963 20.3625L21.1463 34.1125C21.0815 34.2553 21.0535 34.4121 21.065 34.5685C21.0765 34.7249 21.127 34.876 21.2119 35.0078C21.2969 35.1396 21.4135 35.248 21.5512 35.3231C21.6889 35.3982 21.8433 35.4375 22.0001 35.4375H26.7501C27.7496 35.4402 28.7334 35.1893 29.6096 34.7084C30.4858 34.2274 31.2257 33.5321 31.7601 32.6875L39.0413 21.25C39.1308 21.1086 39.1807 20.9457 39.186 20.7785C39.1913 20.6112 39.1517 20.4456 39.0713 20.2988Z" fill="white"/>
<path d="M50.125 19.8125H57.2812L54.5625 16.1875C54.2423 15.7606 53.8271 15.4141 53.3498 15.1754C52.8725 14.9367 52.3462 14.8125 51.8125 14.8125H49.1875V18.875C49.1875 19.1236 49.2863 19.3621 49.4621 19.5379C49.6379 19.7137 49.8764 19.8125 50.125 19.8125Z" fill="white"/>
<path d="M61.5 21.6875H50.125C49.3791 21.6875 48.6637 21.3912 48.1363 20.8637C47.6088 20.3363 47.3125 19.6209 47.3125 18.875V14.8125H0V19.5487C0.000149691 20.0642 0.116159 20.573 0.339449 21.0375C0.562739 21.502 0.887597 21.9104 1.29 22.2325L5.915 25.9338C6.52493 26.4203 7.28228 26.6848 8.0625 26.6838H22.4613L25.69 19.5825C25.9146 19.0921 26.2752 18.6765 26.729 18.3849C27.1827 18.0933 27.7106 17.938 28.25 17.9375H38.1875C38.6283 17.9326 39.0643 18.0292 39.4618 18.2197C39.8593 18.4102 40.2077 18.6896 40.48 19.0362C40.8323 19.4937 41.0352 20.0485 41.0611 20.6252C41.0871 21.202 40.9348 21.7728 40.625 22.26L37.805 26.6875H61.5C62.163 26.6875 62.7989 26.4241 63.2678 25.9553C63.7366 25.4864 64 24.8505 64 24.1875C64 23.5245 63.7366 22.8886 63.2678 22.4197C62.7989 21.9509 62.163 21.6875 61.5 21.6875Z" fill="white"/>
<path d="M28.5625 50.5387C28.5578 50.7658 28.6335 50.9872 28.7762 51.1637C28.91 51.3266 29.0946 51.4398 29.3004 51.4852C29.5063 51.5305 29.7214 51.5054 29.9112 51.4137L32.0525 50.37L34.0725 51.405C34.2053 51.4705 34.3519 51.5031 34.5 51.5C34.6289 51.5 34.7565 51.4735 34.8748 51.4221C34.9931 51.3707 35.0995 51.2955 35.1875 51.2012C35.3521 51.0188 35.4414 50.7807 35.4375 50.535V39.625H28.5625V50.5387Z" fill="white"/>
<path d="M45.75 39.625H37.3125V44.625H46.6875V40.5625C46.6875 40.3139 46.5887 40.0754 46.4129 39.8996C46.2371 39.7238 45.9986 39.625 45.75 39.625Z" fill="white"/>
<path d="M26.6875 39.625H18.25C18.0014 39.625 17.7629 39.7238 17.5871 39.8996C17.4113 40.0754 17.3125 40.3139 17.3125 40.5625V44.625H26.6875V39.625Z" fill="white"/>
<path d="M37.3125 50.535C37.3173 51.0192 37.1969 51.4964 36.9631 51.9205C36.7294 52.3446 36.3901 52.7011 35.9781 52.9555C35.5661 53.21 35.0954 53.3538 34.6115 53.3729C34.1277 53.3921 33.6471 53.286 33.2163 53.065L32.0312 52.4575L30.7325 53.09C30.302 53.3003 29.8249 53.3971 29.3464 53.3711C28.868 53.3452 28.4042 53.1974 27.9989 52.9418C27.5937 52.6862 27.2605 52.3313 27.0309 51.9107C26.8014 51.4901 26.6832 51.0179 26.6875 50.5387V46.5H19.3125V63.0625C19.3125 63.3111 19.4113 63.5496 19.5871 63.7254C19.7629 63.9012 20.0014 64 20.25 64H44C44.2486 64 44.4871 63.9012 44.6629 63.7254C44.8387 63.5496 44.9375 63.3111 44.9375 63.0625V46.5H37.3125V50.535ZM22.125 57.3037H26.0537C26.3024 57.3037 26.5408 57.4025 26.7167 57.5783C26.8925 57.7542 26.9912 57.9926 26.9912 58.2412C26.9912 58.4899 26.8925 58.7283 26.7167 58.9042C26.5408 59.08 26.3024 59.1787 26.0537 59.1787H22.125C21.8764 59.1787 21.6379 59.08 21.4621 58.9042C21.2863 58.7283 21.1875 58.4899 21.1875 58.2412C21.1875 57.9926 21.2863 57.7542 21.4621 57.5783C21.6379 57.4025 21.8764 57.3037 22.125 57.3037ZM28.0175 62.125H22.125C21.8764 62.125 21.6379 62.0262 21.4621 61.8504C21.2863 61.6746 21.1875 61.4361 21.1875 61.1875C21.1875 60.9389 21.2863 60.7004 21.4621 60.5246C21.6379 60.3488 21.8764 60.25 22.125 60.25H28.0175C28.2661 60.25 28.5046 60.3488 28.6804 60.5246C28.8562 60.7004 28.955 60.9389 28.955 61.1875C28.955 61.4361 28.8562 61.6746 28.6804 61.8504C28.5046 62.0262 28.2661 62.125 28.0175 62.125Z" fill="white"/>
<path d="M25.6114 12.9375H37.0264L31.7414 3.125C31.2341 2.18008 30.48 1.39043 29.5595 0.840134C28.6389 0.289833 27.5864 -0.000516292 26.5139 6.89177e-07H22.0001C21.848 2.08239e-05 21.6982 0.0370535 21.5636 0.107903C21.429 0.178753 21.3136 0.281291 21.2275 0.40667C21.1414 0.532048 21.0871 0.676501 21.0692 0.827564C21.0514 0.978626 21.0706 1.13176 21.1251 1.27375L25.6114 12.9375Z" fill="white"/>
<path d="M6.14625 9.6625C5.91851 8.97781 5.48086 8.38226 4.89544 7.96041C4.31001 7.53857 3.60658 7.31187 2.885 7.3125H0.9375C0.68886 7.3125 0.450403 7.41127 0.274587 7.58709C0.098772 7.7629 0 8.00136 0 8.25L0 12.9375H7.23875L6.14625 9.6625Z" fill="white"/>
<path d="M15.1887 28.5625H13.21L16.3112 37.75H18.29L15.1887 28.5625Z" fill="white"/>
<path d="M45.71 37.75H47.6887L50.79 28.5625H48.8112L45.71 37.75Z" fill="white"/>
</g>
<defs>
<clipPath id="clip0_193_493">
<rect width="64" height="64" fill="white"/>
</clipPath>
</defs>
</svg>
