<svg width="64" height="64" viewBox="0 0 64 64" fill="none" xmlns="http://www.w3.org/2000/svg">
<g opacity="0.8">
<path d="M62.0001 29.2501L60.8801 28.6901C59.3621 27.894 57.6536 27.5333 55.9434 27.648C54.2332 27.7627 52.5881 28.3484 51.1901 29.3401L48.8201 31.0001L41.4301 28.9501C39.9721 28.5346 38.4441 28.4249 36.9418 28.628C35.4395 28.8311 33.9954 29.3424 32.7001 30.1301L31.7001 30.7301C31.6024 30.8094 31.5257 30.9114 31.4766 31.0271C31.4275 31.1429 31.4075 31.269 31.4184 31.3942C31.4292 31.5195 31.4706 31.6403 31.5389 31.7459C31.6072 31.8515 31.7003 31.9388 31.8101 32.0001L41.0601 36.4701L31.1801 42.4701L27.8601 39.4701C27.3142 38.924 26.6521 38.5082 25.9231 38.2537C25.1942 37.9992 24.4172 37.9125 23.6501 38.0001L22.4601 38.1901C22.0401 38.2501 21.8601 38.8501 22.1301 39.2701L27.8801 48.2701C29.3301 50.5501 31.8801 51.2701 33.8101 49.8401L42.6101 43.4401L43.7401 57.6501C43.7401 58.1201 44.1801 58.4301 44.5301 58.2601C45.6724 57.6331 46.6379 56.7279 47.3371 55.6283C48.0364 54.5288 48.4467 53.2705 48.5301 51.9701L49.9201 39.5301L62.1901 31.6901C62.3683 31.5332 62.5076 31.3371 62.597 31.1171C62.6863 30.8971 62.7232 30.6593 62.7048 30.4226C62.6864 30.1859 62.6131 29.9567 62.4908 29.7532C62.3685 29.5497 62.2005 29.3774 62.0001 29.2501Z" fill="white"/>
<path d="M42.46 5.99998C41.8715 5.44569 41.2468 4.93121 40.59 4.45998L37.9 5.38998C36.4969 4.57539 34.9753 3.98494 33.39 3.63998L32 1.10998C30.3923 0.931488 28.7679 0.968481 27.17 1.21998L25.94 3.77998C24.371 4.21114 22.8795 4.88603 21.52 5.77998L18.78 4.96998C18.1553 5.45669 17.5609 5.98099 17 6.53998C16.4457 7.12842 15.9312 7.75314 15.46 8.40998L16.39 11.1C15.5754 12.503 14.9849 14.0247 14.64 15.61L12.11 17C11.9315 18.6077 11.9685 20.2321 12.22 21.83L14.78 23.09C15.2111 24.6589 15.886 26.1504 16.78 27.51L15.97 30.25C16.4576 30.8644 16.9819 31.4488 17.54 32C18.1284 32.5543 18.7531 33.0687 19.41 33.54L22.1 32.61C23.503 33.4246 25.0247 34.015 26.61 34.36L28 36.89C29.6077 37.0685 31.2321 37.0315 32.83 36.78L33.67 35.07L30.97 33.77C30.5334 33.5525 30.1637 33.2213 29.8997 32.8112C29.6356 32.4011 29.4872 31.9274 29.47 31.44C29.4331 30.962 29.526 30.4829 29.739 30.0534C29.952 29.6239 30.2771 29.2599 30.68 29L31.68 28.4C33.2121 27.4712 34.919 26.8676 36.6944 26.6268C38.4698 26.3859 40.2758 26.513 42 27L43.87 27.52L43.66 26.9C44.4746 25.4969 45.065 23.9753 45.41 22.39L47.89 21C48.0685 19.3923 48.0315 17.7679 47.78 16.17L45.22 14.91C44.8044 13.344 44.1464 11.8527 43.27 10.49L44.08 7.74998C43.5762 7.13414 43.0352 6.54972 42.46 5.99998ZM29.5 24.5L21.63 21.13V12.13L29.5 15.5V24.5ZM29.98 14.5L22.1 11.13L30 7.74998L37.87 11.13L29.98 14.5ZM38.38 21.13L30.5 24.5V15.5L38.38 12.12V21.13Z" fill="white"/>
<path d="M20.5001 50H16.1701L11.3401 48H4.45009C3.46365 48.0767 2.54751 48.5402 1.90129 49.2895C1.25507 50.0387 0.931146 51.013 1.00009 52V62.5C1.00009 62.6326 1.05277 62.7598 1.14654 62.8536C1.2403 62.9473 1.36748 63 1.50009 63H11.5001C11.6327 63 11.7599 62.9473 11.8536 62.8536C11.9474 62.7598 12.0001 62.6326 12.0001 62.5V53L16.1401 54L20.5701 53.08C20.683 53.0569 20.7845 52.9956 20.8574 52.9063C20.9303 52.817 20.9701 52.7053 20.9701 52.59V50.5C20.9703 50.3724 20.9218 50.2496 20.8344 50.1566C20.747 50.0637 20.6274 50.0077 20.5001 50Z" fill="white"/>
<path d="M7.53989 40H7.38989C7.24223 40.0062 7.09519 40.0229 6.94989 40.05L6.56989 40.13H6.49989C6.03097 40.2746 5.59747 40.5157 5.22721 40.8377C4.85695 41.1598 4.55812 41.5557 4.34989 42C4.24559 42.2219 4.1619 42.4528 4.09989 42.69C4.03803 42.9557 4.00451 43.2272 3.99989 43.5C3.93359 44.4283 4.23875 45.3448 4.84824 46.0481C5.45773 46.7514 6.32163 47.1837 7.24989 47.25C8.17815 47.3163 9.09473 47.0111 9.79799 46.4016C10.5012 45.7922 10.9336 44.9283 10.9999 44H13.9999V42H10.6899C10.4079 41.4027 9.96221 40.8977 9.40461 40.5437C8.84701 40.1897 8.20039 40.0011 7.53989 40Z" fill="white"/>
</g>
</svg>
