<svg width="64" height="64" viewBox="0 0 64 64" fill="none" xmlns="http://www.w3.org/2000/svg">
<g opacity="0.8">
<path fill-rule="evenodd" clip-rule="evenodd" d="M51.2876 58.0669C51.4517 57.9028 51.6742 57.8106 51.9063 57.8106C52.1384 57.8106 52.361 57.9028 52.5251 58.0669C52.6892 58.231 52.7814 58.4536 52.7814 58.6857C52.7814 58.9178 52.6892 59.1403 52.5251 59.3044L49.9074 61.9219C49.7433 62.086 49.5208 62.1782 49.2887 62.1782C49.0566 62.1782 48.8341 62.086 48.6699 61.9219C48.5058 61.7578 48.4137 61.5353 48.4137 61.3032C48.4137 61.0711 48.5058 60.8485 48.6699 60.6844L51.2876 58.0669ZM13.9954 50.0044C14.5534 50.5624 15.3677 50.8606 16.0749 50.5108L30.1624 43.5436L58.3124 15.3936C59.3257 14.404 60.0538 13.1598 60.4201 11.7917L61.6406 7.43607C61.8481 6.73309 61.8597 5.98677 61.6742 5.27768C61.4886 4.56858 61.1129 3.92363 60.5876 3.41244C60.0765 2.88716 59.4316 2.51142 58.7226 2.32579C58.0136 2.14015 57.2674 2.15166 56.5644 2.35907L52.2083 3.57994C50.8403 3.94627 49.5961 4.67426 48.6066 5.68744L20.4566 33.8374L13.4889 47.9249C13.1389 48.6322 13.4373 49.4464 13.9953 50.0044H13.9954ZM57.8681 11.0749C57.8055 11.2979 57.6569 11.487 57.455 11.6004C57.2531 11.7139 57.0144 11.7424 56.7914 11.6799C56.5684 11.6173 56.3794 11.4687 56.2659 11.2668C56.1525 11.0649 56.1239 10.8262 56.1864 10.6032C56.2942 10.2166 56.2972 9.80834 56.1953 9.42019C56.0934 9.03204 55.8901 8.67795 55.6063 8.39417C55.3226 8.1104 54.9685 7.90715 54.5803 7.80521C54.1922 7.70328 53.7839 7.70634 53.3973 7.81407C53.2865 7.84652 53.1703 7.85665 53.0555 7.84388C52.9407 7.83112 52.8295 7.7957 52.7285 7.73969C52.6275 7.68367 52.5386 7.60817 52.467 7.51756C52.3953 7.42695 52.3424 7.32303 52.3112 7.21181C52.28 7.1006 52.2712 6.9843 52.2853 6.86965C52.2993 6.755 52.336 6.64428 52.3931 6.54391C52.4503 6.44353 52.5268 6.35549 52.6182 6.28488C52.7096 6.21427 52.8141 6.1625 52.9257 6.13257C53.6109 5.93998 54.335 5.93335 55.0237 6.11337C55.7123 6.29339 56.3405 6.65356 56.8438 7.15684C57.3471 7.66013 57.7073 8.28838 57.8873 8.97699C58.0673 9.66561 58.0607 10.3897 57.8681 11.0749ZM16.8426 37.1966L13.3402 44.2784L4.20345 39.4949C4.02913 39.4046 3.87864 39.2743 3.76423 39.1147C3.64982 38.9551 3.57473 38.7707 3.54509 38.5766C3.51544 38.3825 3.53208 38.1842 3.59363 37.9977C3.65519 37.8113 3.75993 37.642 3.89932 37.5037L6.4512 34.9518C6.60626 34.7924 6.80188 34.6784 7.01699 34.622C7.23209 34.5656 7.45851 34.569 7.67182 34.6318L16.8426 37.1966ZM19.7216 50.6598L26.8034 47.1576L29.3682 56.3283C29.431 56.5416 29.4344 56.768 29.378 56.9831C29.3216 57.1982 29.2076 57.3938 29.0482 57.5488L26.4963 60.1007C26.358 60.2401 26.1888 60.3448 26.0023 60.4064C25.8158 60.4679 25.6175 60.4846 25.4234 60.4549C25.2293 60.4253 25.0449 60.3502 24.8853 60.2358C24.7257 60.1214 24.5955 59.9709 24.5051 59.7966L19.7216 50.6598ZM40.0611 11.7574L30.8634 20.9551L9.47432 10.2608C9.29658 10.1728 9.1424 10.0437 9.02459 9.88414C8.90678 9.72459 8.82875 9.53924 8.79696 9.34347C8.76518 9.1477 8.78057 8.94718 8.84185 8.75855C8.90314 8.56993 9.00855 8.39865 9.14932 8.25894L12.3118 5.09644C12.4646 4.9394 12.6568 4.82635 12.8683 4.76917C13.0798 4.71199 13.3027 4.71277 13.5138 4.77144L40.0611 11.7574ZM43.0449 33.1366L52.2426 23.9389L59.2283 50.4864C59.287 50.6975 59.2878 50.9205 59.2306 51.1319C59.1734 51.3434 59.0604 51.5356 58.9033 51.6883L55.7408 54.8508C55.6011 54.9916 55.4299 55.0971 55.2412 55.1584C55.0526 55.2197 54.8521 55.2351 54.6563 55.2033C54.4605 55.1715 54.2751 55.0934 54.1156 54.9756C53.956 54.8578 53.8269 54.7036 53.7389 54.5258L43.0449 33.1366ZM61.8126 35.6438C62.0464 35.8785 62.1777 36.1964 62.1777 36.5277C62.1777 36.859 62.0464 37.1769 61.8126 37.4116L58.4751 40.7491L56.3352 32.6169L56.6766 32.2756C56.9113 32.0418 57.2291 31.9105 57.5604 31.9105C57.8918 31.9105 58.2096 32.0418 58.4443 32.2756L61.8126 35.6438ZM28.3562 2.18744L31.7251 5.55519C31.9589 5.78991 32.0903 6.10774 32.0903 6.43907C32.0903 6.7704 31.9589 7.08823 31.7251 7.32294L31.3837 7.66444L23.2511 5.52494L26.5886 2.18744C26.8233 1.95358 27.1411 1.82227 27.4724 1.82227C27.8038 1.82227 28.1216 1.95358 28.3563 2.18744H28.3562ZM4.69582 11.4749C4.85993 11.3108 5.0825 11.2186 5.31457 11.2186C5.54665 11.2186 5.76922 11.3108 5.93332 11.4749C6.09742 11.639 6.18962 11.8616 6.18962 12.0937C6.18962 12.3258 6.09742 12.5483 5.93332 12.7124L3.31582 15.3301C3.15172 15.4942 2.92915 15.5864 2.69707 15.5864C2.465 15.5864 2.24242 15.4942 2.07832 15.3301C1.91422 15.166 1.82203 14.9434 1.82203 14.7113C1.82203 14.4792 1.91422 14.2567 2.07832 14.0926L4.69582 11.4749ZM15.6979 16.9759C15.862 16.8118 16.0846 16.7197 16.3167 16.7197C16.5488 16.7197 16.7713 16.8118 16.9354 16.9759C17.0996 17.14 17.1917 17.3626 17.1917 17.5947C17.1917 17.8268 17.0996 18.0493 16.9354 18.2134L3.31557 31.8332C3.15147 31.9973 2.9289 32.0895 2.69682 32.0895C2.46475 32.0895 2.24217 31.9973 2.07807 31.8332C1.91397 31.6691 1.82178 31.4465 1.82178 31.2144C1.82178 30.9824 1.91397 30.7598 2.07807 30.5957L15.6979 16.9763V16.9759ZM45.7864 47.0648C45.8677 46.9836 45.9642 46.9191 46.0703 46.8751C46.1765 46.8312 46.2903 46.8085 46.4052 46.8085C46.5201 46.8085 46.6339 46.8312 46.7401 46.8751C46.8462 46.9191 46.9427 46.9836 47.0239 47.0648C47.1052 47.1461 47.1697 47.2425 47.2136 47.3487C47.2576 47.4549 47.2802 47.5687 47.2802 47.6836C47.2802 47.7985 47.2576 47.9123 47.2136 48.0184C47.1697 48.1246 47.1052 48.2211 47.0239 48.3023L33.4041 61.9217C33.24 62.0858 33.0174 62.178 32.7853 62.178C32.5532 62.178 32.3307 62.0858 32.1666 61.9217C32.0025 61.7576 31.9103 61.535 31.9103 61.3029C31.9103 61.0709 32.0025 60.8483 32.1666 60.6842L45.7864 47.0648Z" fill="white"/>
</g>
</svg>
