<svg width="264" height="112" viewBox="0 0 264 112" fill="none" xmlns="http://www.w3.org/2000/svg">
<rect width="264" height="112" fill="#FA6444"/>
<path fill-rule="evenodd" clip-rule="evenodd" d="M180.357 70.4998C180.389 70.6693 180.419 70.8399 180.444 71.0099L189.203 72.239L197.009 71.0681C197.119 70.9458 197.193 70.8245 197.24 70.6758C197.27 70.5793 197.291 70.4695 197.304 70.3387C197.154 70.4322 196.942 70.5033 196.64 70.5585L190.54 71.6712C189.653 71.8328 189.353 71.8015 188.524 71.6991C187.918 71.624 187.047 71.5081 186.135 71.3833C184.278 71.1288 182.246 70.8359 181.918 70.7708C180.942 70.5759 180.762 70.5803 180.357 70.4998Z" fill="white"/>
<path fill-rule="evenodd" clip-rule="evenodd" d="M179.895 70.9329C179.32 67.3763 177.101 63.9431 173.789 62.3818C170.924 61.0314 166.512 61.0399 164.236 63.5339C161.534 66.4953 161.551 72.6473 161.571 76.5578L161.869 76.5901C161.867 74.0812 161.993 69.6799 162.856 67.0313C163.832 64.0375 166.021 64.233 167.315 66.9239C167.882 68.1017 168.265 69.5009 168.473 70.4799L179.817 70.9214L179.895 70.9329ZM170.92 68.2842C170.753 67.8795 170.592 67.4305 170.473 67.0516V67.0507C170.318 66.5584 170.423 66.2576 170.692 66.0841C170.918 65.9394 171.249 65.9255 171.624 65.9767C172.188 66.0537 173.112 66.189 174.071 66.363C174.724 66.4813 175.392 66.6176 175.969 66.7652C176.437 66.8851 176.802 66.996 177.105 67.1297C177.426 67.2714 177.682 67.4395 177.918 67.6692C178.103 67.8492 178.32 68.1579 178.521 68.4811C178.841 68.9952 179.134 69.5695 179.182 69.6963C179.204 69.7565 179.218 69.8156 179.223 69.8723C179.232 69.9832 179.209 70.0901 179.15 70.1851C179.093 70.2761 179.005 70.3491 178.884 70.3944C178.82 70.4183 178.749 70.4342 178.67 70.4406C178.507 70.4541 177.334 70.38 176.086 70.283C174.988 70.198 173.826 70.0961 173.245 70.0235C172.599 69.9429 172.22 69.8619 171.953 69.7371C171.654 69.5969 171.51 69.4199 171.341 69.1529C171.211 68.9475 171.063 68.6333 170.92 68.2842Z" fill="white"/>
<path fill-rule="evenodd" clip-rule="evenodd" d="M170.98 66.8915L171.003 66.9651C172.67 67.1899 174.339 67.3888 175.972 67.8064C176.407 67.9178 176.745 68.0202 177.025 68.144C177.287 68.2599 177.494 68.3951 177.681 68.5776C177.84 68.7322 178.386 69.4368 178.685 69.8867L178.683 69.8813C178.642 69.7729 178.373 69.2508 178.069 68.7616C177.886 68.4682 177.696 68.1947 177.546 68.0495C177.359 67.8671 177.152 67.7318 176.89 67.616C176.61 67.4922 176.272 67.3897 175.836 67.2784C175.275 67.1347 174.62 67.0009 173.976 66.8841C173.036 66.7135 172.115 66.5788 171.551 66.5017C171.292 66.4664 171.08 66.4644 170.977 66.5301C170.921 66.5684 170.912 66.6762 170.98 66.8915Z" fill="white"/>
<path fill-rule="evenodd" clip-rule="evenodd" d="M167.066 75.8219C166.845 78.223 166.055 80 165.113 80C164.002 80 163.1 77.5219 163.1 74.4655C163.1 72.4568 163.489 70.6982 164.071 69.7286C163.768 70.6435 163.583 71.8597 163.583 73.1952C163.583 76.0377 164.421 78.3418 165.455 78.3418C166.141 78.3413 166.739 77.3305 167.066 75.8219Z" fill="white"/>
<path fill-rule="evenodd" clip-rule="evenodd" d="M201.414 69.7485C201.381 69.7788 201.345 69.8067 201.307 69.831C201.111 69.9539 200.706 70.0568 200.305 70.1343C199.927 70.2079 199.544 70.2616 199.373 70.2855C198.914 70.3491 198.619 70.3616 198.404 70.2313C198.158 70.0826 198.081 69.8221 198.094 69.3567C198.105 68.9624 198.155 68.4011 198.278 67.9223C198.374 67.5464 198.519 67.2137 198.733 67.0223C199.154 66.6454 200.005 66.2054 200.43 65.9976C199.844 64.9027 198.981 63.9272 197.793 63.0978L197.806 64.2767C197.829 66.2969 197.85 68.1366 197.852 69.8852C197.852 70.2939 197.824 70.5883 197.747 70.8344C197.733 70.8797 197.717 70.9234 197.701 70.9652L201.431 70.4058C201.431 70.1836 201.426 69.9648 201.414 69.7485Z" fill="white"/>
<path fill-rule="evenodd" clip-rule="evenodd" d="M169.049 78.2628C168.939 78.8281 168.82 79.3158 168.696 79.8066C170.043 79.9836 171.008 79.9627 172.089 79.9393H172.096C172.301 79.9349 173.255 79.9175 174.69 79.8911C180.936 79.7768 196.342 79.4943 199.394 79.378C199.758 79.3641 199.972 79.0951 200.102 78.755V78.754C200.197 78.5049 200.25 78.2175 200.282 77.9485C200.219 77.9764 200.181 77.9923 200.181 77.9923L200.133 78.0131L199.616 78.0201L199.523 78.4527C199.475 78.6794 199.416 78.762 199.184 78.7704C197.527 78.8306 195.863 78.8599 194.205 78.8967C191.463 78.9569 188.72 79.0116 185.978 79.0648C182.211 79.1378 178.445 79.2075 174.679 79.2766C173.814 79.2925 172.948 79.3064 172.083 79.3248H172.076C171.175 79.3442 170.335 79.3462 169.461 79.2711C169.475 79.2065 169.586 78.7237 169.667 78.3662C169.45 78.3473 169.238 78.3155 169.049 78.2628ZM182.786 74.1831C182.8 74.4123 182.816 74.7599 182.793 74.8902C182.751 75.1194 182.604 75.183 182.408 75.184C182.247 75.1845 181.981 75.1815 181.825 75.1711C181.58 75.1547 181.546 74.9354 181.534 74.7117C181.529 74.6107 181.525 74.4342 181.524 74.297C181.522 74.0191 181.622 73.9281 181.887 73.9286C182.06 73.9291 182.455 73.9345 182.558 73.9345C182.696 73.935 182.777 74.0554 182.786 74.1831ZM195.606 74.0275C195.602 74.2443 195.601 74.5739 195.629 74.6968C195.689 74.9618 195.866 74.9757 196.081 74.9752C196.216 74.9747 196.39 74.9722 196.514 74.9657C196.781 74.9518 196.811 74.8017 196.814 74.5282C196.815 74.4307 196.811 74.2582 196.806 74.1274C196.8 73.9499 196.739 73.7963 196.518 73.7869C196.456 73.7844 195.93 73.7923 195.812 73.7923C195.68 73.7923 195.609 73.9062 195.606 74.0275ZM185.754 75.0751C186.203 75.0717 187.744 75.0592 189.332 75.0483C190.91 75.0368 192.515 75.0259 193.076 75.0254C193.561 75.0249 193.834 75.2327 193.812 75.7399C193.808 75.8548 193.795 75.987 193.762 76.1188C193.623 76.6732 193.255 76.879 192.735 76.887C191.814 76.9014 185.984 76.9924 185.75 76.968C185.609 76.9536 185.418 76.9263 185.248 76.8139C184.897 76.5827 184.9 76.163 184.897 75.7881C184.894 75.2676 185.007 75.0811 185.754 75.0751ZM197.717 77.5204L200.016 77.4916C200.25 77.3892 201.267 76.9317 201.512 76.6021C201.665 76.3982 201.657 76.1993 201.65 76.0124C201.644 75.8662 201.638 75.7255 201.68 75.5659C201.731 75.3675 201.817 74.9926 201.888 74.5565C201.935 74.2642 201.976 73.9455 201.993 73.6372C202.012 73.3021 201.99 72.8745 201.954 72.4896C201.909 72.0262 201.851 71.6434 201.816 71.5822C201.798 71.5514 201.554 71.4748 201.345 71.4142L197.907 71.9283C197.992 72.9028 198.124 75.2506 197.717 77.5204ZM180.488 77.7367L197.357 77.5249C197.769 75.2924 197.64 72.961 197.556 71.981L189.205 73.23L180.215 71.9725C180.357 73.142 180.656 75.9567 180.488 77.7367ZM179.764 71.9094L168.815 71.4843C168.743 71.5047 168.553 71.5758 168.592 71.7453C168.757 72.4533 168.974 73.6108 169.082 74.6953C169.146 75.3416 169.172 75.9646 169.124 76.4579C169.048 77.2579 169.574 77.8739 170.403 77.8635L180.132 77.7412C180.31 75.9517 179.988 73.0246 179.852 71.9213L179.764 71.9094ZM199.007 74.8593C199.414 74.7485 199.403 74.3159 199.409 73.9748C199.421 73.2543 199.352 72.7959 200.12 72.5657C200.378 72.4881 200.662 72.4553 200.88 72.4449C201.206 72.429 201.525 72.4409 201.611 72.8168C201.689 73.1604 201.683 73.7849 201.635 74.1379C201.554 74.7505 201.27 74.9633 200.653 75.0189C199.943 75.0841 198.81 75.1109 198.235 75.1283L199.007 74.8593ZM179.745 75.5465H174.95C174.536 75.5465 174.25 75.3029 174.054 74.9707C173.779 74.5028 173.691 73.849 173.682 73.5209C173.663 72.8606 174.106 72.6194 174.712 72.6323C175.169 72.6423 176.097 72.6622 176.669 72.7601C177.321 72.8715 177.584 73.1718 177.749 73.7943C177.868 74.2413 177.904 74.6684 177.958 75.1298L179.745 75.5465Z" fill="white"/>
<path fill-rule="evenodd" clip-rule="evenodd" d="M162.296 78.3423H161.893C161.887 78.128 161.877 77.7004 161.872 77.1251L161.215 77.054C161.222 77.419 161.235 78.1772 161.24 78.3582L161.243 78.4701L148.778 76.7478L148.758 75.7076L148.118 75.6385L148.128 77.3176L161.887 79.2189L162.296 78.3423Z" fill="white"/>
<path fill-rule="evenodd" clip-rule="evenodd" d="M195.383 57.3366C193.462 55.8689 191.174 54.4011 189.04 53.2545C188.72 53.0825 188.285 52.9577 186.972 52.8592C181.327 52.4376 170.478 52.6435 167.927 52.7454C170.372 53.4952 178.571 56.0663 179.789 57.3078C184.557 56.475 190.604 56.5441 195.383 57.3366Z" fill="white"/>
<path fill-rule="evenodd" clip-rule="evenodd" d="M163.441 41.7162C163.273 41.7734 163.218 41.9146 163.274 42.0792L163.629 42.9722C163.658 43.0453 163.728 43.0985 163.887 43.1353C164.318 43.2447 165.106 43.1606 165.613 43.1408C172.039 42.8926 178.474 43.0234 184.89 43.4356C186.514 43.54 187.497 48.1064 188.033 50.6119C187.885 49.3539 187.481 46.3657 186.828 44.3873C186.312 42.8245 185.712 42.0902 184.463 41.9554C179.218 41.3876 171.119 41.2891 165.416 41.4617C164.609 41.4865 164.246 41.4696 163.441 41.7162ZM177.393 43.6663C177.887 45.7352 178.52 48.6837 179.071 52.1736C178.891 52.1696 178.711 52.1656 178.53 52.1617C177.973 48.6494 177.334 45.6964 176.844 43.6519C177.027 43.6569 177.21 43.6613 177.393 43.6663Z" fill="white"/>
<path fill-rule="evenodd" clip-rule="evenodd" d="M159.15 44.9556C159.83 44.7915 161.437 44.4181 162.337 44.3311C163.738 44.1953 164.002 45.4836 164.236 46.5785C164.496 47.7917 164.713 49.0869 164.889 50.3463C164.964 50.8873 165.091 51.9807 165.741 52.1462C165.366 50.5338 165.047 48.538 164.774 46.9961C164.573 45.867 164.412 44.8855 164.387 44.5424C164.367 44.263 164.428 43.9239 164.624 43.715C164.248 43.721 163.974 43.7011 163.769 43.6539C163.407 43.5708 163.232 43.4083 163.137 43.1686L162.782 42.2756C162.606 41.8341 162.828 41.3498 163.286 41.2096C164.14 40.9481 164.552 40.9585 165.402 40.9326C171.546 40.7467 177.683 40.6472 183.808 41.2514C184.03 41.2732 184.238 41.2951 184.435 41.317C183.855 40.6636 182.939 40.3574 182.091 40.2788C180.78 40.1575 175.981 40.0198 171.336 39.9357C167.415 39.8646 163.608 39.8323 162.115 39.881C160.622 39.9293 160.059 40.237 159.71 40.7934C159.15 41.6859 159.191 43.804 159.15 44.9556Z" fill="white"/>
<path fill-rule="evenodd" clip-rule="evenodd" d="M159.556 68.6865L160.639 67.2739L154.618 67.3336L154.909 68.6865H159.556ZM152.799 70.5227C152.672 70.7787 152.41 71.3247 152.376 71.5559C152.347 71.7528 152.47 72.6363 152.743 72.6751C152.802 72.6835 153.288 72.689 153.387 72.69C153.744 72.6925 153.707 72.5264 153.579 72.0387C153.504 71.7533 153.452 71.5241 153.878 70.6291C153.932 70.5152 153.947 70.3864 153.797 70.381C153.699 70.3775 153.159 70.38 153.02 70.3825C152.907 70.3839 152.855 70.4098 152.799 70.5227ZM161.04 76.5011C161.039 76.2356 161.038 75.9607 161.037 75.6773L147.544 74.2189C147.549 74.571 147.554 74.8579 147.557 75.0438L161.04 76.5011ZM161.038 75.1428C161.046 72.7203 161.152 69.7967 161.818 67.262L161.186 67.2684L159.413 69.5829H147.491C147.492 70.6962 147.515 72.4235 147.535 73.6834L155.087 74.4999C154.916 73.8495 154.694 72.5165 154.631 72.0511C154.582 71.6941 154.705 71.0761 154.793 70.6977C154.855 70.4312 154.984 70.3168 155.275 70.3302C155.401 70.3357 159.409 70.3705 159.693 70.3834C159.977 70.3964 160.029 70.5182 159.989 70.7449C159.949 70.9721 159.799 71.3923 159.815 72.4474L159.853 75.0155L161.038 75.1428ZM157.305 74.739L157.685 74.7803C157.795 74.7863 157.901 74.7912 157.971 74.7917C158.162 74.7932 158.16 74.6301 158.107 74.4844C158.07 74.386 157.961 74.0648 157.881 73.7625C157.83 73.5666 157.781 73.5368 157.582 73.5278L157.06 73.5039C156.89 73.4965 156.844 73.6014 156.888 73.7506C156.977 74.0474 157.1 74.3785 157.176 74.5764C157.211 74.6659 157.248 74.7137 157.305 74.739Z" fill="white"/>
<path fill-rule="evenodd" clip-rule="evenodd" d="M151.047 38.7703C151.142 37.7937 151.554 33.6644 151.799 32.5119C151.845 32.2966 151.911 32.13 151.998 32.0007C151.178 31.9992 150.492 32.0002 149.982 32.0017C149.181 32.0042 148.636 32.6123 148.593 33.3333L148.209 39.8253C149.642 39.347 150.866 38.8349 151.047 38.7703ZM165.958 39.3346C165.739 33.8872 157.234 32.0694 152.965 32.0057C152.464 31.9983 152.274 31.9818 152.146 32.584C151.916 33.6679 151.534 37.4412 151.415 38.642C151.73 38.5346 152.057 38.4297 152.386 38.3337C154.839 37.6162 157.381 37.4616 159.877 39.6533C160.544 39.4624 161.34 39.3774 162.044 39.3535C162.817 39.3266 164.226 39.3227 165.958 39.3346ZM165.049 32.23C168.75 33.0981 173.386 35.1088 173.701 39.4524C175.57 39.4932 177.364 39.5409 178.839 39.5907C177.8 33.6574 170.007 32.4209 165.049 32.23ZM170.504 32.5323C174.386 33.4093 178.477 35.2256 179.2 39.6031C180.553 39.6508 181.597 39.7005 182.121 39.7478C180.683 33.7022 175.872 32.9554 170.504 32.5323ZM173.346 39.4445C172.963 34.5718 166.743 32.7207 162.708 32.1509C160.718 32.0937 158.728 32.0564 156.738 32.0326C160.539 32.8147 166.141 34.6961 166.312 39.3371C167.834 39.3495 169.579 39.3734 171.345 39.4052C172.012 39.4176 172.682 39.4306 173.346 39.4445Z" fill="white"/>
<path fill-rule="evenodd" clip-rule="evenodd" d="M195.683 57.9243C193.39 57.5176 190.707 57.2939 188.025 57.2616C185.256 57.2282 182.492 57.3983 180.159 57.7816C180.476 58.3022 180.632 58.963 180.7 59.8938L181.404 69.3607C181.441 69.8654 181.489 70.104 182.021 70.2099C182.352 70.2761 184.368 70.5659 186.204 70.8165C187.111 70.9403 187.974 71.0552 188.566 71.1288C189.345 71.2252 189.613 71.259 190.444 71.1079L196.544 69.9986C197.122 69.8937 197.127 69.6695 197.136 69.2046C197.167 67.7781 197.157 66.5216 197.136 65.0951C197.107 63.0585 197.053 60.9285 197.005 59.6676C196.966 58.6378 196.69 58.1028 195.683 57.9243ZM181.394 59.2042C181.342 58.7189 181.759 58.6895 182.134 58.7159L184.154 58.8566C184.358 58.871 184.518 59.0326 184.528 59.2365L185.07 69.7634C185.083 70.016 185.026 70.1537 184.753 70.109L183.156 69.845C182.237 69.6933 182.164 69.75 182.111 68.9192L181.394 59.2042ZM192.491 70.3705L190.108 70.7728C189.711 70.8434 189.621 70.7892 189.612 70.3949L189.365 59.587C189.36 59.3742 189.523 59.1947 189.735 59.1778L192.613 58.9506C192.847 58.9322 193.045 59.1122 193.048 59.3459L193.166 69.6426C193.173 70.2134 193.184 70.2567 192.491 70.3705ZM196.42 59.4368L196.388 68.9783C196.39 69.5675 196.325 69.6451 195.785 69.7764L194.109 70.0568C193.606 70.1398 193.612 69.9733 193.607 69.5427L193.488 59.2564C193.486 59.045 193.647 58.8685 193.859 58.8516L195.765 58.701C196.287 58.701 196.438 58.9551 196.42 59.4368ZM186.075 70.3332C185.693 70.2711 185.535 70.1846 185.515 69.7893L184.978 59.3652C184.965 59.1231 185.166 58.9277 185.408 58.9446L188.547 59.1634C188.755 59.1778 188.917 59.3469 188.922 59.5547L189.171 70.467C189.179 70.8046 189.064 70.8454 188.755 70.7917L186.075 70.3332Z" fill="white"/>
<path fill-rule="evenodd" clip-rule="evenodd" d="M160.244 53.5534L162.249 56.105V55.3145L160.28 52.808C160.275 52.8975 160.272 52.9791 160.27 53.0606C160.265 53.2262 160.259 53.3928 160.244 53.5534Z" fill="url(#paint0_linear_192_2462)"/>
<path fill-rule="evenodd" clip-rule="evenodd" d="M157.204 47.4073C157.177 47.829 157.117 49.1297 157.062 50.4105C157.007 51.6918 156.958 52.9547 156.951 53.3177C156.947 53.5528 157.045 53.7368 157.185 53.8731C157.39 54.0734 157.681 54.1803 157.902 54.2052C158.075 54.2251 158.298 54.2445 158.523 54.2509C158.694 54.2554 158.869 54.2529 159.031 54.2375C159.703 54.1729 159.721 53.5971 159.739 53.0273V53.0263C159.742 52.9159 159.746 52.806 159.751 52.7136C159.779 52.2656 159.811 50.665 159.814 49.3062C159.816 48.3326 159.805 47.4869 159.769 47.2925C159.745 47.1622 159.67 47.0677 159.578 47.0011C159.425 46.8902 159.228 46.8494 159.102 46.845C159.012 46.842 158.816 46.844 158.595 46.848C158.376 46.8519 158.125 46.8579 157.931 46.8629C157.691 46.8688 157.49 46.8768 157.377 46.9449C157.283 47.0016 157.222 47.1334 157.204 47.4073Z" fill="white"/>
<path fill-rule="evenodd" clip-rule="evenodd" d="M87.2635 42.0747L146.358 33.6952L146.175 37.2687L87.2635 42.0747ZM146.106 38.5987L145.914 42.3223L98.18 44.959L146.106 38.5987ZM145.846 43.6494L145.655 47.3735L109.434 47.7633L145.846 43.6494Z" fill="white"/>
<path fill-rule="evenodd" clip-rule="evenodd" d="M201.007 66.8005C200.571 67.0193 200.134 67.2366 199.699 67.4569C198.806 67.9093 198.871 68.0819 198.507 69.127C198.604 68.3141 198.641 67.4206 199.545 66.9482C199.849 66.7886 200.121 66.6499 200.336 66.5415C200.765 66.3257 200.859 66.459 201.007 66.8005Z" fill="white"/>
<path fill-rule="evenodd" clip-rule="evenodd" d="M162.478 65.2776C162.659 64.8664 162.864 64.4761 163.094 64.1111L160.405 64.1658C160.405 64.1658 162.263 63.8973 163.339 63.7452C163.85 63.0307 164.357 62.6523 165.03 62.269L165.033 61.9587C163.203 61.913 161.372 61.8682 159.537 61.8354C161.369 61.6942 163.293 61.552 165.037 61.4148C165.048 59.6974 165.062 56.4625 165.073 54.9774L165.074 54.8536C165.078 54.0217 165.082 53.2416 165.707 52.6365C164.554 52.1855 164.567 50.5746 164.404 49.5538C164.234 48.4813 164.028 47.2984 163.889 46.6466C163.754 46.0176 163.618 45.4816 163.384 45.1291C163.172 44.8079 162.864 44.6364 162.369 44.6841C161.451 44.7731 159.742 45.1758 159.138 45.3225C159.128 45.6363 159.117 45.9664 159.106 46.309L159.12 46.3095C159.204 46.312 159.308 46.3254 159.418 46.3527V45.8839C160.239 45.7098 161.075 45.5373 161.906 45.4235C162.351 45.3628 162.796 45.3573 163.121 45.7103C163.314 45.9192 163.48 46.4427 163.614 47.0468C163.815 47.9607 163.954 49.0834 163.985 49.517C163.985 50.7565 164.059 52.0195 164.074 53.2645C164.082 53.9113 163.93 54.1689 163.171 54.1555C162.865 54.15 162.364 54.1366 162.014 54.1266L162.635 54.9142H163.614C163.697 54.9142 163.772 54.948 163.826 55.0022C163.881 55.0564 163.915 55.132 163.915 55.2145V57.4251C163.915 57.5077 163.881 57.5832 163.826 57.6374C163.772 57.6916 163.697 57.7255 163.614 57.7255H162.55C162.467 57.7255 162.391 57.6916 162.337 57.6374C162.282 57.5832 162.248 57.5077 162.248 57.4251V56.9294L160.081 54.1783C159.926 54.4826 159.636 54.7029 159.08 54.7566C159 54.7641 158.918 54.769 158.835 54.772C158.816 55.3005 158.798 55.8037 158.78 56.2701C158.759 56.8265 158.739 57.3341 158.719 57.7762C158.622 59.9266 158.659 61.541 158.797 62.803C158.914 63.8735 159.103 64.6864 159.345 65.3586C159.609 65.3571 159.817 65.3566 159.955 65.3566C160.975 65.3581 161.9 65.3134 162.478 65.2776ZM159.426 62.259C159.426 62.259 160.237 62.2312 160.405 62.267C160.572 62.3028 160.826 62.4853 160.874 62.703C160.922 62.9213 160.946 63.3136 160.946 63.4324C160.946 63.5513 160.91 63.603 160.85 63.6269C160.791 63.6507 159.923 63.7064 159.812 63.7099C159.701 63.7139 159.391 63.4125 159.35 63.2619C159.321 63.15 159.296 62.7453 159.285 62.5444C159.279 62.4355 159.296 62.3003 159.426 62.259Z" fill="white"/>
<path fill-rule="evenodd" clip-rule="evenodd" d="M85.1866 67.9664H67.3372L68.8564 70.6618H85.7651L85.1866 67.9664ZM86.0303 71.8974H70.887L72.4062 74.5927H86.6088L86.0303 71.8974Z" fill="white"/>
<path d="M67.7369 64.6738V54.2733H64V51.3843H75.3551V54.2733H71.6182V64.6738H67.7369Z" fill="white"/>
<path d="M75.6796 64.6738V54.8924H79.4164L79.5197 55.6766C79.9188 55.4427 80.4281 55.2295 81.0474 55.0369C81.6668 54.8443 82.2931 54.7273 82.9262 54.686V57.5751C82.5683 57.6026 82.1761 57.6507 81.7494 57.7195C81.3365 57.7883 80.9304 57.8777 80.5313 57.9878C80.1459 58.0841 79.8225 58.1942 79.561 58.318V64.6738H75.6796Z" fill="white"/>
<path d="M86.8872 64.8802C86.2678 64.8802 85.6898 64.7701 85.153 64.55C84.6299 64.3299 84.2101 63.986 83.8936 63.5182C83.577 63.0505 83.4187 62.4589 83.4187 61.7435C83.4187 60.7117 83.7628 59.9138 84.451 59.3498C85.1392 58.772 86.1784 58.4831 87.5685 58.4831H90.1079V58.2973C90.1079 57.9121 89.9496 57.6301 89.6331 57.4513C89.3165 57.2724 88.7591 57.183 87.9608 57.183C86.8321 57.183 85.7173 57.355 84.6162 57.6989V55.367C85.1117 55.1744 85.731 55.0162 86.4743 54.8924C87.2175 54.7548 87.9745 54.686 88.7453 54.686C90.3006 54.686 91.5325 55.0025 92.4409 55.6353C93.3493 56.2681 93.8035 57.2724 93.8035 58.6481V64.6738H90.4176L90.2318 63.8897C89.8877 64.1923 89.4404 64.4331 88.8898 64.6119C88.353 64.7908 87.6855 64.8802 86.8872 64.8802ZM88.2085 62.6102C88.649 62.6102 89.0206 62.5346 89.3234 62.3832C89.64 62.2319 89.9015 62.0462 90.1079 61.8261V60.6085H88.2292C87.3758 60.6085 86.9491 60.9456 86.9491 61.6197C86.9491 62.2801 87.3689 62.6102 88.2085 62.6102Z" fill="white"/>
<path d="M101.343 64.8802C99.5676 64.8802 98.1637 64.4606 97.1314 63.6214C96.0991 62.7684 95.583 61.489 95.583 59.7831C95.583 58.6275 95.8239 57.6714 96.3056 56.9147C96.7873 56.1581 97.4618 55.6009 98.3289 55.2432C99.196 54.8718 100.208 54.686 101.364 54.686C102.093 54.686 102.747 54.7411 103.325 54.8511C103.903 54.9474 104.454 55.1194 104.977 55.367V58.091C104.165 57.7058 103.243 57.5132 102.21 57.5132C101.329 57.5132 100.662 57.6783 100.208 58.0084C99.7672 58.3386 99.547 58.9302 99.547 59.7831C99.547 60.581 99.7603 61.1588 100.187 61.5165C100.614 61.8742 101.288 62.0531 102.21 62.0531C102.706 62.0531 103.187 61.998 103.655 61.888C104.123 61.7642 104.571 61.5922 104.997 61.3721V64.2198C104.474 64.4537 103.91 64.6188 103.304 64.7151C102.713 64.8252 102.059 64.8802 101.343 64.8802Z" fill="white"/>
<path d="M106.87 64.6738V50.7652H110.751V57.637L113.476 54.8924H117.874L113.972 59.0196L118.101 64.6738H113.972L111.556 61.0419L110.751 61.8467V64.6738H106.87Z" fill="white"/>
<path d="M119.881 64.6738V54.8924H123.515L123.618 55.6353C123.989 55.3877 124.478 55.1676 125.084 54.975C125.703 54.7823 126.364 54.686 127.066 54.686C128.291 54.686 129.185 54.9887 129.749 55.594C130.314 56.1993 130.596 57.1348 130.596 58.4005V64.6738H126.715V58.7926C126.715 58.3524 126.618 58.0359 126.426 57.8433C126.233 57.6507 125.896 57.5544 125.414 57.5544C125.125 57.5544 124.822 57.6232 124.506 57.7608C124.203 57.8984 123.955 58.0635 123.762 58.2561V64.6738H119.881Z" fill="white"/>
<path d="M139.625 64.8802C137.258 64.8802 135.455 64.3024 134.216 63.1468C132.977 61.9774 132.358 60.3128 132.358 58.1529C132.358 55.9242 132.998 54.2045 134.278 52.9939C135.558 51.7833 137.43 51.1779 139.894 51.1779C140.72 51.1779 141.463 51.2261 142.123 51.3224C142.798 51.4187 143.431 51.5632 144.023 51.7558V55.0781C143.417 54.8443 142.791 54.6861 142.144 54.6035C141.497 54.521 140.837 54.4797 140.162 54.4797C138.882 54.4797 137.919 54.7686 137.272 55.3464C136.639 55.9242 136.322 56.8597 136.322 58.1529C136.322 59.3635 136.597 60.2371 137.148 60.7736C137.712 61.3102 138.538 61.5784 139.625 61.5784C139.983 61.5784 140.32 61.5578 140.637 61.5165C140.954 61.4615 141.249 61.3927 141.525 61.3102V59.3704H138.882V56.9766H144.766V63.6627C144.257 63.9791 143.576 64.2611 142.722 64.5087C141.883 64.7564 140.85 64.8802 139.625 64.8802Z" fill="white"/>
<path d="M151.955 64.8802C150 64.8802 148.555 64.4468 147.619 63.5801C146.697 62.7134 146.236 61.4477 146.236 59.7831C146.236 58.1322 146.704 56.8735 147.64 56.0067C148.576 55.1263 150.014 54.686 151.955 54.686C153.909 54.686 155.355 55.1263 156.29 56.0067C157.24 56.8735 157.715 58.1322 157.715 59.7831C157.715 61.4477 157.247 62.7134 156.311 63.5801C155.375 64.4468 153.923 64.8802 151.955 64.8802ZM151.955 62.0531C152.588 62.0531 153.042 61.8742 153.318 61.5165C153.607 61.1588 153.751 60.581 153.751 59.7831C153.751 58.999 153.607 58.428 153.318 58.0703C153.042 57.6989 152.588 57.5132 151.955 57.5132C151.336 57.5132 150.888 57.6989 150.613 58.0703C150.338 58.428 150.2 58.999 150.2 59.7831C150.2 60.581 150.338 61.1588 150.613 61.5165C150.888 61.8742 151.336 62.0531 151.955 62.0531Z" fill="white"/>
<defs>
<linearGradient id="paint0_linear_192_2462" x1="136.956" y1="68.9158" x2="136.013" y2="16.121" gradientUnits="userSpaceOnUse">
<stop stop-color="white"/>
<stop offset="1" stop-color="#828282"/>
</linearGradient>
</defs>
</svg>
