<svg width="161" height="56" viewBox="0 0 161 56" fill="none" xmlns="http://www.w3.org/2000/svg">
<g clip-path="url(#clip0_4109_937)">
<path fill-rule="evenodd" clip-rule="evenodd" d="M135.382 44.7759C135.42 44.9731 135.454 45.1714 135.483 45.3692L145.666 46.7987L154.739 45.4368C154.867 45.2946 154.954 45.1535 155.008 44.9806C155.043 44.8684 155.067 44.7406 155.082 44.5885C154.909 44.6972 154.662 44.7799 154.311 44.8441L147.22 46.1383C146.189 46.3262 145.84 46.2898 144.876 46.1707C144.172 46.0834 143.159 45.9486 142.099 45.8035C139.941 45.5074 137.578 45.1668 137.197 45.091C136.062 44.8644 135.853 44.8696 135.382 44.7759Z" fill="white"/>
<path fill-rule="evenodd" clip-rule="evenodd" d="M134.844 45.2796C134.176 41.1433 131.596 37.1504 127.746 35.3346C124.416 33.764 119.287 33.7739 116.642 36.6745C113.5 40.1186 113.519 47.2735 113.543 51.8216L113.89 51.8592C113.887 48.9412 114.034 43.8224 115.037 40.742C116.172 37.2602 118.716 37.4875 120.22 40.6171C120.879 41.987 121.325 43.6142 121.566 44.7528L134.753 45.2663L134.844 45.2796ZM124.411 42.1992C124.217 41.7285 124.03 41.2063 123.891 40.7657V40.7645C123.711 40.1921 123.833 39.8422 124.146 39.6404C124.408 39.4721 124.793 39.4559 125.229 39.5155C125.885 39.6051 126.96 39.7624 128.074 39.9648C128.833 40.1024 129.609 40.2609 130.28 40.4326C130.825 40.572 131.249 40.7009 131.601 40.8565C131.974 41.0213 132.272 41.2167 132.546 41.4839C132.761 41.6932 133.013 42.0523 133.248 42.4282C133.619 43.0261 133.959 43.694 134.015 43.8415C134.041 43.9115 134.058 43.9803 134.063 44.0462C134.074 44.1752 134.047 44.2995 133.978 44.4099C133.911 44.5158 133.81 44.6008 133.669 44.6534C133.595 44.6811 133.512 44.6996 133.421 44.7072C133.23 44.7228 131.867 44.6366 130.416 44.5239C129.14 44.425 127.789 44.3064 127.114 44.222C126.363 44.1283 125.923 44.0341 125.612 43.8889C125.264 43.7258 125.098 43.52 124.901 43.2094C124.749 42.9706 124.577 42.6052 124.411 42.1992Z" fill="white"/>
<path fill-rule="evenodd" clip-rule="evenodd" d="M124.481 40.579L124.508 40.6646C126.445 40.9259 128.386 41.1573 130.284 41.643C130.79 41.7725 131.183 41.8917 131.508 42.0356C131.813 42.1704 132.053 42.3277 132.271 42.5399C132.456 42.7197 133.09 43.5391 133.438 44.0625L133.436 44.0561C133.388 43.93 133.076 43.3229 132.722 42.7538C132.509 42.4127 132.288 42.0946 132.114 41.9258C131.896 41.7135 131.656 41.5563 131.351 41.4215C131.026 41.2775 130.632 41.1584 130.126 41.0289C129.473 40.8618 128.712 40.7062 127.964 40.5703C126.871 40.372 125.801 40.2153 125.145 40.1256C124.843 40.0846 124.598 40.0823 124.478 40.1586C124.412 40.2031 124.402 40.3286 124.481 40.579Z" fill="white"/>
<path fill-rule="evenodd" clip-rule="evenodd" d="M119.931 50.9656C119.675 53.758 118.756 55.8248 117.661 55.8248C116.369 55.8248 115.321 52.9427 115.321 49.3881C115.321 47.0519 115.773 45.0065 116.45 43.8789C116.097 44.9429 115.882 46.3574 115.882 47.9106C115.882 51.2165 116.857 53.8962 118.059 53.8962C118.856 53.8957 119.552 52.72 119.931 50.9656Z" fill="white"/>
<path fill-rule="evenodd" clip-rule="evenodd" d="M159.86 43.9029C159.822 43.9381 159.78 43.9705 159.735 43.9989C159.508 44.1417 159.036 44.2614 158.57 44.3516C158.131 44.4372 157.685 44.4996 157.488 44.5274C156.953 44.6014 156.61 44.6159 156.361 44.4644C156.074 44.2915 155.985 43.9885 156 43.4472C156.013 42.9886 156.071 42.3358 156.214 41.7789C156.326 41.3417 156.495 40.9549 156.743 40.7322C157.233 40.2939 158.222 39.7821 158.715 39.5404C158.035 38.2671 157.032 37.1325 155.65 36.168L155.666 37.539C155.693 39.8885 155.717 42.0281 155.719 44.0619C155.719 44.5372 155.687 44.8796 155.597 45.1658C155.581 45.2184 155.563 45.2693 155.543 45.3179L159.879 44.6673C159.88 44.4089 159.874 44.1544 159.86 43.9029Z" fill="white"/>
<path fill-rule="evenodd" clip-rule="evenodd" d="M122.236 53.8046C122.109 54.4621 121.971 55.0293 121.827 55.6001C123.392 55.8059 124.514 55.7817 125.77 55.7545H125.779C126.017 55.7493 127.125 55.729 128.794 55.6984C136.054 55.5654 153.964 55.2369 157.511 55.1016C157.935 55.0854 158.184 54.7726 158.335 54.3771V54.3759C158.445 54.0862 158.507 53.7519 158.544 53.4391C158.471 53.4715 158.428 53.49 158.427 53.49L158.37 53.5143L157.769 53.5224L157.662 54.0255C157.606 54.2892 157.537 54.3851 157.268 54.395C155.342 54.4649 153.407 54.4991 151.48 54.5419C148.292 54.6118 145.104 54.6754 141.916 54.7373C137.537 54.8223 133.159 54.9033 128.781 54.9837C127.775 55.0022 126.769 55.0183 125.763 55.0397H125.755C124.707 55.0623 123.731 55.0646 122.715 54.9773C122.732 54.9021 122.86 54.3406 122.955 53.9248C122.703 53.9029 122.456 53.8659 122.236 53.8046ZM138.205 49.0599C138.222 49.3265 138.241 49.7307 138.213 49.8822C138.164 50.1488 137.993 50.2228 137.765 50.2239C137.579 50.2245 137.269 50.221 137.088 50.2089C136.804 50.1898 136.764 49.9348 136.75 49.6746C136.744 49.5572 136.739 49.3519 136.738 49.1923C136.735 48.8691 136.852 48.7632 137.16 48.7638C137.361 48.7644 137.82 48.7707 137.94 48.7707C138.101 48.7713 138.195 48.9113 138.205 49.0599ZM153.108 48.8789C153.104 49.131 153.102 49.5144 153.135 49.6572C153.204 49.9654 153.411 49.9816 153.661 49.9811C153.817 49.9805 154.019 49.9776 154.164 49.9701C154.474 49.9539 154.509 49.7792 154.512 49.4612C154.513 49.3479 154.508 49.1472 154.503 48.9951C154.496 48.7887 154.426 48.61 154.168 48.599C154.096 48.5961 153.485 48.6054 153.347 48.6054C153.195 48.6054 153.111 48.7378 153.108 48.8789ZM141.656 50.0973C142.177 50.0932 143.969 50.0788 145.815 50.0661C147.649 50.0528 149.515 50.04 150.167 50.0395C150.731 50.0389 151.048 50.2806 151.023 50.8704C151.017 51.004 151.002 51.1578 150.964 51.3111C150.803 51.9558 150.375 52.1952 149.771 52.2045C148.7 52.2213 141.922 52.3271 141.651 52.2988C141.486 52.282 141.265 52.2502 141.067 52.1195C140.66 51.8506 140.662 51.3625 140.66 50.9265C140.655 50.3211 140.787 50.1042 141.656 50.0973ZM155.563 52.9412L158.234 52.9077C158.507 52.7885 159.689 52.2565 159.974 51.8731C160.151 51.6361 160.142 51.4048 160.134 51.1873C160.127 51.0173 160.121 50.8537 160.169 50.668C160.228 50.4373 160.328 50.0013 160.41 49.4942C160.466 49.1541 160.513 48.7835 160.533 48.4249C160.555 48.0352 160.53 47.5379 160.487 47.0903C160.436 46.5514 160.367 46.1061 160.328 46.035H160.327C160.306 45.9991 160.023 45.9101 159.78 45.8395L155.784 46.4374C155.882 47.5708 156.036 50.3014 155.563 52.9412ZM135.534 53.1928L155.144 52.9464C155.622 50.35 155.473 47.6385 155.375 46.4987L145.667 47.9513L135.216 46.4889C135.382 47.849 135.729 51.1226 135.534 53.1928ZM134.692 46.4155L121.965 45.921C121.881 45.9448 121.659 46.0274 121.705 46.2246C121.897 47.0481 122.149 48.3943 122.275 49.6555C122.349 50.4072 122.379 51.1318 122.324 51.7055C122.235 52.6359 122.847 53.3524 123.811 53.3402L135.12 53.198C135.327 51.1168 134.953 47.7125 134.795 46.4293L134.692 46.4155ZM157.062 49.8463C157.535 49.7174 157.522 49.2143 157.529 48.8176C157.543 47.9797 157.462 47.4465 158.355 47.1788C158.655 47.0886 158.986 47.0504 159.239 47.0383C159.617 47.0198 159.989 47.0336 160.089 47.4708C160.18 47.8704 160.172 48.5967 160.117 49.0073C160.022 49.7197 159.692 49.9672 158.975 50.0319C158.149 50.1077 156.833 50.1389 156.164 50.1592L157.062 49.8463ZM134.67 50.6455H129.096C128.615 50.6455 128.282 50.3621 128.055 49.9759C127.735 49.4317 127.633 48.6713 127.623 48.2896C127.601 47.5217 128.115 47.2412 128.819 47.2563C129.351 47.2678 130.43 47.291 131.095 47.4049C131.852 47.5344 132.158 47.8837 132.35 48.6077C132.488 49.1275 132.53 49.6243 132.593 50.1609L134.67 50.6455Z" fill="white"/>
<path fill-rule="evenodd" clip-rule="evenodd" d="M114.387 53.898H113.918C113.911 53.6488 113.899 53.1515 113.893 52.4824L113.13 52.3997C113.138 52.8242 113.153 53.7061 113.158 53.9165L113.162 54.0467L98.6723 52.0435L98.6486 50.8338L97.9044 50.7534L97.9165 52.7062L113.911 54.9175L114.387 53.898Z" fill="white"/>
<path fill-rule="evenodd" clip-rule="evenodd" d="M152.85 29.4669C150.617 27.7599 147.956 26.0528 145.475 24.7194C145.104 24.5193 144.598 24.3741 143.072 24.2596C136.51 23.7693 123.898 24.0087 120.933 24.1272C123.775 24.9992 133.306 27.9895 134.722 29.4334C140.265 28.4648 147.295 28.5452 152.85 29.4669Z" fill="white"/>
<path fill-rule="evenodd" clip-rule="evenodd" d="M115.718 11.3002C115.522 11.3667 115.458 11.531 115.523 11.7224L115.936 12.7609C115.97 12.8459 116.051 12.9078 116.236 12.9506C116.736 13.0778 117.653 12.9801 118.242 12.957C125.712 12.6684 133.193 12.8205 140.651 13.2999C142.539 13.4213 143.681 18.7321 144.304 21.646C144.133 20.183 143.663 16.7076 142.904 14.4067C142.304 12.5892 141.606 11.7351 140.155 11.5784C134.057 10.918 124.642 10.8035 118.013 11.0042C117.075 11.0331 116.653 11.0134 115.718 11.3002ZM131.936 13.5682C132.51 15.9744 133.246 19.4035 133.886 23.4623C133.677 23.4577 133.467 23.4531 133.258 23.4485C132.61 19.3636 131.867 15.9293 131.297 13.5514C131.511 13.5572 131.723 13.5624 131.936 13.5682Z" fill="white"/>
<path fill-rule="evenodd" clip-rule="evenodd" d="M110.729 15.0676C111.519 14.8767 113.388 14.4424 114.433 14.3412C116.062 14.1834 116.369 15.6817 116.641 16.955C116.943 18.366 117.196 19.8724 117.4 21.3371C117.488 21.9663 117.635 23.2379 118.39 23.4305C117.954 21.5551 117.584 19.234 117.266 17.4408C117.033 16.1275 116.846 14.986 116.817 14.587C116.793 14.262 116.864 13.8676 117.092 13.6248C116.655 13.6317 116.336 13.6086 116.099 13.5536C115.678 13.4571 115.475 13.268 115.364 12.9893L114.951 11.9507C114.746 11.4372 115.004 10.874 115.537 10.7109C116.53 10.4067 117.008 10.4189 117.997 10.3888C125.139 10.1725 132.273 10.0569 139.393 10.7595C139.651 10.7849 139.893 10.8103 140.122 10.8358C139.448 10.0759 138.383 9.71973 137.397 9.62837C135.873 9.48727 130.294 9.32709 124.895 9.22936C120.336 9.14667 115.911 9.10908 114.176 9.16575C112.44 9.22184 111.785 9.57979 111.38 10.2269C110.729 11.2649 110.776 13.7283 110.729 15.0676Z" fill="white"/>
<path fill-rule="evenodd" clip-rule="evenodd" d="M111.202 42.6678L112.46 41.025L105.461 41.0943L105.799 42.6678H111.202ZM103.347 44.8034C103.199 45.1012 102.894 45.7361 102.854 46.005C102.821 46.234 102.964 47.2616 103.281 47.3067C103.349 47.3165 103.915 47.3229 104.03 47.324C104.445 47.3269 104.402 47.1338 104.253 46.5665C104.167 46.2346 104.105 45.968 104.601 44.9271C104.664 44.7947 104.681 44.6449 104.507 44.6385C104.393 44.6345 103.765 44.6374 103.604 44.6403C103.472 44.642 103.411 44.6721 103.347 44.8034ZM112.927 51.7564C112.925 51.4476 112.924 51.1279 112.923 50.7983L97.2372 49.1022C97.2435 49.5116 97.2493 49.8453 97.2534 50.0615L112.927 51.7564ZM112.924 50.1766C112.934 47.3593 113.056 43.9591 113.831 41.0111L113.096 41.0186L111.035 43.7104H97.1759C97.177 45.0052 97.2042 47.0141 97.2268 48.4794L106.006 49.4289C105.807 48.6725 105.549 47.1222 105.476 46.581C105.419 46.1658 105.562 45.447 105.665 45.0069C105.737 44.697 105.886 44.564 106.225 44.5796C106.371 44.5859 111.031 44.6264 111.361 44.6414C111.69 44.6565 111.751 44.7982 111.705 45.0618C111.658 45.3261 111.483 45.8147 111.502 47.0418L111.547 50.0286L112.924 50.1766ZM108.585 49.7071L109.026 49.7551C109.155 49.762 109.277 49.7678 109.359 49.7684C109.58 49.7701 109.579 49.5804 109.517 49.411C109.474 49.2965 109.347 48.9229 109.255 48.5713C109.195 48.3435 109.138 48.3088 108.907 48.2984L108.299 48.2706C108.102 48.262 108.048 48.384 108.1 48.5575C108.203 48.9027 108.347 49.2878 108.435 49.518C108.475 49.6221 108.519 49.6776 108.585 49.7071Z" fill="white"/>
<path fill-rule="evenodd" clip-rule="evenodd" d="M101.309 7.87397C101.42 6.73825 101.899 1.93574 102.184 0.595317C102.237 0.344927 102.314 0.151208 102.415 0.000858161C101.462 -0.000876641 100.664 0.000279894 100.072 0.0020147C99.1399 0.00490603 98.5067 0.712127 98.457 1.55062L98.0106 9.10105C99.6766 8.54476 101.099 7.94914 101.309 7.87397ZM118.643 8.5303C118.389 2.1948 108.501 0.0806591 103.539 0.00664084C102.956 -0.00203318 102.736 -0.021116 102.587 0.679166C102.32 1.93979 101.875 6.32826 101.737 7.72478C102.104 7.59987 102.484 7.47786 102.866 7.36625C105.717 6.53181 108.673 6.35197 111.574 8.90097C112.349 8.67892 113.275 8.58003 114.093 8.55228C114.992 8.52105 116.63 8.51643 118.643 8.5303ZM117.587 0.267439C121.889 1.27709 127.278 3.61561 127.644 8.66735C129.817 8.71477 131.903 8.77028 133.617 8.82811C132.409 1.92765 123.35 0.489494 117.587 0.267439ZM123.928 0.619026C128.44 1.63909 133.196 3.7515 134.037 8.84257C135.61 8.89808 136.823 8.95591 137.432 9.01084C135.76 1.97969 130.167 1.11113 123.928 0.619026ZM127.231 8.6581C126.786 2.99108 119.556 0.838189 114.865 0.175495C112.552 0.108994 110.238 0.0656241 107.925 0.0378673C112.344 0.947482 118.855 3.13565 119.054 8.53319C120.824 8.54765 122.852 8.57541 124.906 8.61242C125.681 8.62687 126.46 8.64191 127.231 8.6581Z" fill="white"/>
<path fill-rule="evenodd" clip-rule="evenodd" d="M153.198 30.1506C150.532 29.6776 147.414 29.4173 144.296 29.3798C141.077 29.341 137.863 29.5388 135.152 29.9846C135.521 30.5901 135.701 31.3586 135.78 32.4411L136.599 43.4513C136.641 44.0383 136.698 44.3158 137.316 44.439C137.701 44.5159 140.044 44.853 142.179 45.1445C143.233 45.2885 144.236 45.4221 144.925 45.5076C145.831 45.6198 146.142 45.6591 147.108 45.4833L154.199 44.1932C154.871 44.0712 154.876 43.8104 154.887 43.2697C154.923 41.6107 154.911 40.1494 154.887 38.4904C154.853 36.1218 154.79 33.6445 154.735 32.178C154.69 30.9804 154.369 30.3582 153.198 30.1506ZM136.588 31.639C136.526 31.0747 137.011 31.0405 137.447 31.0712L139.796 31.2348C140.033 31.2516 140.218 31.4395 140.231 31.6766L140.861 43.9197C140.876 44.2135 140.809 44.3737 140.491 44.3216L138.635 44.0145C137.567 43.8382 137.483 43.9041 137.42 42.9378L136.588 31.639ZM149.487 44.6258L146.718 45.0936C146.256 45.1757 146.151 45.1127 146.141 44.6541L145.853 32.0843C145.847 31.8368 146.036 31.6281 146.284 31.6084L149.629 31.3441C149.901 31.3227 150.131 31.5321 150.135 31.8038L150.272 43.7792C150.28 44.443 150.292 44.4934 149.487 44.6258ZM154.054 31.9097L154.017 43.0066C154.02 43.6919 153.944 43.7821 153.317 43.9347L151.369 44.2609C150.783 44.3575 150.79 44.1637 150.784 43.663L150.646 31.6998C150.643 31.454 150.831 31.2487 151.078 31.2291L153.294 31.0538C153.9 31.0538 154.075 31.3493 154.054 31.9097ZM142.029 44.5824C141.584 44.5101 141.402 44.4095 141.378 43.9498L140.753 31.8264C140.739 31.5448 140.972 31.3175 141.254 31.3372L144.902 31.5916C145.144 31.6084 145.332 31.805 145.338 32.0467L145.628 44.738C145.637 45.1306 145.503 45.178 145.145 45.1156L142.029 44.5824Z" fill="white"/>
<path fill-rule="evenodd" clip-rule="evenodd" d="M112.001 25.067L114.331 28.0347V27.1152L112.042 24.2002C112.036 24.3043 112.034 24.3991 112.031 24.494C112.025 24.6865 112.019 24.8802 112.001 25.067Z" fill="url(#paint0_linear_4109_937)"/>
<path fill-rule="evenodd" clip-rule="evenodd" d="M108.468 17.9199C108.436 18.4102 108.366 19.923 108.302 21.4126C108.239 22.9028 108.181 24.3716 108.173 24.7937C108.169 25.0672 108.282 25.2812 108.444 25.4396C108.684 25.6727 109.022 25.797 109.278 25.8259C109.48 25.8491 109.739 25.8716 110 25.8791C110.199 25.8843 110.403 25.8814 110.59 25.8635C111.372 25.7883 111.393 25.1187 111.414 24.456V24.4549C111.418 24.3265 111.422 24.1987 111.428 24.0911C111.46 23.5701 111.497 21.7087 111.501 20.1283C111.503 18.996 111.49 18.0124 111.449 17.7863C111.421 17.6348 111.334 17.5249 111.226 17.4474C111.048 17.3185 110.82 17.271 110.674 17.2658C110.568 17.2624 110.341 17.2647 110.084 17.2693C109.829 17.2739 109.538 17.2809 109.312 17.2866C109.033 17.2936 108.8 17.3028 108.668 17.3821C108.559 17.448 108.488 17.6012 108.468 17.9199Z" fill="white"/>
<path fill-rule="evenodd" clip-rule="evenodd" d="M27.163 11.7177L95.8589 1.97217L95.6455 6.12818L27.163 11.7177ZM95.5657 7.67504L95.3431 12.0057L39.8531 15.0722L95.5657 7.67504ZM95.2639 13.5491L95.0418 17.8803L52.9358 18.3337L95.2639 13.5491Z" fill="white"/>
<path fill-rule="evenodd" clip-rule="evenodd" d="M159.386 40.4738C158.88 40.7282 158.371 40.9809 157.866 41.2371C156.828 41.7633 156.904 41.964 156.48 43.1795C156.594 42.234 156.637 41.1949 157.687 40.6455C158.041 40.4599 158.357 40.2986 158.607 40.1725C159.105 39.9215 159.214 40.0765 159.386 40.4738Z" fill="white"/>
<path fill-rule="evenodd" clip-rule="evenodd" d="M114.597 38.7027C114.809 38.2245 115.046 37.7705 115.313 37.3461L112.188 37.4097C112.188 37.4097 114.348 37.0974 115.598 36.9205C116.193 36.0895 116.782 35.6494 117.565 35.2036L117.568 34.8428C115.441 34.7896 113.312 34.7375 111.179 34.6994C113.308 34.5351 115.545 34.3697 117.573 34.2101C117.585 32.2128 117.601 28.4506 117.614 26.7233L117.615 26.5793C117.62 25.6119 117.625 24.7046 118.352 24.0008C117.011 23.4763 117.026 21.6027 116.837 20.4156C116.639 19.1682 116.399 17.7925 116.237 17.0344C116.081 16.3029 115.922 15.6796 115.651 15.2696C115.404 14.896 115.046 14.6965 114.471 14.752C113.403 14.8555 111.417 15.3239 110.715 15.4945C110.703 15.8594 110.69 16.2434 110.677 16.6418L110.694 16.6424C110.791 16.6453 110.912 16.6609 111.041 16.6927V16.1474C111.995 15.945 112.966 15.7443 113.932 15.6119C114.449 15.5413 114.967 15.535 115.345 15.9456C115.569 16.1884 115.762 16.7973 115.918 17.4999C116.152 18.5628 116.313 19.8685 116.35 20.3728C116.35 21.8144 116.435 23.2832 116.453 24.7312C116.462 25.4835 116.285 25.783 115.404 25.7674C115.048 25.7611 114.466 25.7455 114.059 25.7339L114.78 26.6499H115.918C116.014 26.6499 116.102 26.6892 116.165 26.7522C116.229 26.8153 116.268 26.9031 116.268 26.9991V29.5701C116.268 29.6661 116.229 29.754 116.165 29.817C116.102 29.8801 116.014 29.9194 115.918 29.9194H114.681C114.585 29.9194 114.497 29.8801 114.433 29.817C114.37 29.754 114.33 29.6661 114.33 29.5701V28.9936L111.811 25.794C111.632 26.1479 111.294 26.4041 110.648 26.4666C110.555 26.4752 110.459 26.481 110.362 26.4845C110.341 27.0992 110.32 27.6844 110.299 28.2268C110.274 28.8739 110.251 29.4643 110.227 29.9784C110.115 32.4794 110.159 34.357 110.319 35.8247C110.455 37.0697 110.674 38.0151 110.956 38.797C111.263 38.7952 111.504 38.7946 111.664 38.7946C112.851 38.7964 113.926 38.7443 114.597 38.7027ZM111.05 35.192C111.05 35.192 111.993 35.1597 112.187 35.2013C112.382 35.2429 112.677 35.4551 112.733 35.7084C112.789 35.9623 112.816 36.4185 112.816 36.5567C112.816 36.695 112.775 36.7551 112.705 36.7829C112.636 36.8106 111.628 36.8754 111.499 36.8794C111.369 36.884 111.009 36.5336 110.962 36.3584C110.928 36.2283 110.898 35.7576 110.886 35.524C110.879 35.3973 110.898 35.24 111.05 35.192Z" fill="white"/>
<path fill-rule="evenodd" clip-rule="evenodd" d="M22.7486 41.8301H1.99919L3.76522 44.9649H23.4211L22.7486 41.8301ZM23.7293 46.4019H6.12571L7.89174 49.5367H24.4019L23.7293 46.4019Z" fill="#FA6444"/>
<path d="M2.464 38V25.904H-1.88V22.544H11.32V25.904H6.976V38H2.464ZM11.6972 38V26.624H16.0412L16.1612 27.536C16.6252 27.264 17.2172 27.016 17.9372 26.792C18.6572 26.568 19.3852 26.432 20.1212 26.384V29.744C19.7052 29.776 19.2492 29.832 18.7532 29.912C18.2732 29.992 17.8012 30.096 17.3372 30.224C16.8892 30.336 16.5132 30.464 16.2092 30.608V38H11.6972ZM24.7258 38.24C24.0058 38.24 23.3338 38.112 22.7098 37.856C22.1018 37.6 21.6138 37.2 21.2458 36.656C20.8778 36.112 20.6938 35.424 20.6938 34.592C20.6938 33.392 21.0938 32.464 21.8938 31.808C22.6938 31.136 23.9018 30.8 25.5178 30.8H28.4698V30.584C28.4698 30.136 28.2858 29.808 27.9178 29.6C27.5498 29.392 26.9018 29.288 25.9738 29.288C24.6618 29.288 23.3658 29.488 22.0858 29.888V27.176C22.6618 26.952 23.3818 26.768 24.2458 26.624C25.1098 26.464 25.9898 26.384 26.8858 26.384C28.6938 26.384 30.1258 26.752 31.1818 27.488C32.2378 28.224 32.7657 29.392 32.7657 30.992V38H28.8298L28.6138 37.088C28.2138 37.44 27.6938 37.72 27.0538 37.928C26.4298 38.136 25.6538 38.24 24.7258 38.24ZM26.2617 35.6C26.7738 35.6 27.2058 35.512 27.5578 35.336C27.9258 35.16 28.2298 34.944 28.4698 34.688V33.272H26.2858C25.2938 33.272 24.7978 33.664 24.7978 34.448C24.7978 35.216 25.2858 35.6 26.2617 35.6ZM41.5304 38.24C39.4664 38.24 37.8344 37.752 36.6344 36.776C35.4344 35.784 34.8344 34.296 34.8344 32.312C34.8344 30.968 35.1144 29.856 35.6744 28.976C36.2344 28.096 37.0184 27.448 38.0264 27.032C39.0344 26.6 40.2104 26.384 41.5544 26.384C42.4024 26.384 43.1624 26.448 43.8344 26.576C44.5064 26.688 45.1464 26.888 45.7544 27.176V30.344C44.8104 29.896 43.7384 29.672 42.5384 29.672C41.5144 29.672 40.7384 29.864 40.2104 30.248C39.6984 30.632 39.4424 31.32 39.4424 32.312C39.4424 33.24 39.6904 33.912 40.1864 34.328C40.6824 34.744 41.4664 34.952 42.5384 34.952C43.1144 34.952 43.6744 34.888 44.2184 34.76C44.7624 34.616 45.2824 34.416 45.7784 34.16V37.472C45.1704 37.744 44.5144 37.936 43.8104 38.048C43.1224 38.176 42.3624 38.24 41.5304 38.24ZM47.955 38V21.824H52.467V29.816L55.635 26.624H60.747L56.211 31.424L61.011 38H56.211L53.403 33.776L52.467 34.712V38H47.955ZM63.08 38V26.624H67.304L67.424 27.488C67.856 27.2 68.424 26.944 69.128 26.72C69.848 26.496 70.616 26.384 71.432 26.384C72.856 26.384 73.896 26.736 74.552 27.44C75.208 28.144 75.536 29.232 75.536 30.704V38H71.024V31.16C71.024 30.648 70.912 30.28 70.688 30.056C70.464 29.832 70.072 29.72 69.512 29.72C69.176 29.72 68.824 29.8 68.456 29.96C68.104 30.12 67.816 30.312 67.592 30.536V38H63.08ZM86.0324 38.24C83.2804 38.24 81.1844 37.568 79.7444 36.224C78.3044 34.864 77.5844 32.928 77.5844 30.416C77.5844 27.824 78.3284 25.824 79.8164 24.416C81.3044 23.008 83.4804 22.304 86.3444 22.304C87.3044 22.304 88.1684 22.36 88.9364 22.472C89.7204 22.584 90.4564 22.752 91.1444 22.976V26.84C90.4404 26.568 89.7124 26.384 88.9604 26.288C88.2084 26.192 87.4404 26.144 86.6564 26.144C85.1684 26.144 84.0484 26.48 83.2964 27.152C82.5604 27.824 82.1924 28.912 82.1924 30.416C82.1924 31.824 82.5124 32.84 83.1524 33.464C83.8084 34.088 84.7684 34.4 86.0324 34.4C86.4484 34.4 86.8404 34.376 87.2084 34.328C87.5764 34.264 87.9204 34.184 88.2404 34.088V31.832H85.1684V29.048H92.0084V36.824C91.4164 37.192 90.6244 37.52 89.6324 37.808C88.6564 38.096 87.4564 38.24 86.0324 38.24ZM100.365 38.24C98.0932 38.24 96.4132 37.736 95.3252 36.728C94.2532 35.72 93.7172 34.248 93.7172 32.312C93.7172 30.392 94.2612 28.928 95.3492 27.92C96.4372 26.896 98.1092 26.384 100.365 26.384C102.637 26.384 104.317 26.896 105.405 27.92C106.509 28.928 107.061 30.392 107.061 32.312C107.061 34.248 106.517 35.72 105.429 36.728C104.341 37.736 102.653 38.24 100.365 38.24ZM100.365 34.952C101.101 34.952 101.629 34.744 101.949 34.328C102.285 33.912 102.453 33.24 102.453 32.312C102.453 31.4 102.285 30.736 101.949 30.32C101.629 29.888 101.101 29.672 100.365 29.672C99.6452 29.672 99.1252 29.888 98.8052 30.32C98.4852 30.736 98.3252 31.4 98.3252 32.312C98.3252 33.24 98.4852 33.912 98.8052 34.328C99.1252 34.744 99.6452 34.952 100.365 34.952Z" fill="white"/>
</g>
<defs>
<linearGradient id="paint0_linear_4109_937" x1="113.099" y1="27.1492" x2="113.453" y2="22.9603" gradientUnits="userSpaceOnUse">
<stop stop-color="white"/>
<stop offset="1" stop-color="#828282"/>
</linearGradient>
<clipPath id="clip0_4109_937">
<rect width="161" height="56" fill="white"/>
</clipPath>
</defs>
</svg>
