<svg width="72" height="72" viewBox="0 0 72 72" fill="none" xmlns="http://www.w3.org/2000/svg">
<g clip-path="url(#clip0_192_2298)">
<path d="M42.3581 8.17992C42.3581 6.17207 40.7246 4.53857 38.7167 4.53857H33.2831C31.2753 4.53857 29.6418 6.17207 29.6418 8.17992V13.6239H42.3581V8.17992Z" fill="#FA6444"/>
<path d="M36.5333 27.3198L57.6404 32.8348V19.2239C57.6404 18.4622 57.0208 17.8427 56.2592 17.8427H15.741C14.9794 17.8427 14.3598 18.4622 14.3598 19.2239V32.8348L35.4669 27.3198C35.8164 27.2285 36.1837 27.2285 36.5333 27.3198Z" fill="#FA6444"/>
<path d="M69.8906 63.2427C67.5626 63.2427 66.5124 62.7197 65.1826 62.0575C64.5584 61.7467 63.9002 61.4189 63.1146 61.1398C62.0241 60.7521 60.6876 60.458 58.8562 60.4323L66.5793 40.9905C66.7503 40.5288 66.6137 40.1445 66.5162 39.9556C66.418 39.7652 66.1814 39.427 65.6986 39.3008L36 31.541L6.30156 39.3008C5.81865 39.427 5.58198 39.7652 5.48397 39.9556C5.38651 40.1446 5.24968 40.5293 5.42111 40.9912L13.1269 60.4326C11.2963 60.4601 9.96118 60.756 8.87134 61.1451C8.09242 61.4231 7.43837 61.7487 6.81807 62.0576C5.48818 62.7197 4.43786 63.2428 2.10953 63.2428C0.94459 63.2428 0.000152588 64.1873 0.000152588 65.3522C0.000152588 66.5171 0.94459 67.4616 2.10953 67.4616C5.42997 67.4616 7.1664 66.597 8.69837 65.8342C9.29532 65.5371 9.83659 65.2685 10.4617 65.0621C11.2293 64.8085 12.1236 64.6492 13.4069 64.6492C13.6998 64.6492 13.9724 64.6575 14.228 64.6734C16.0038 64.7831 16.9529 65.2556 18.1155 65.8344C19.6474 66.5971 21.3839 67.4617 24.7043 67.4617C28.0246 67.4617 29.7609 66.5971 31.293 65.8344C32.6228 65.1723 33.6731 64.6492 36.0011 64.6492C38.3292 64.6492 39.3794 65.1722 40.7091 65.8344C42.2411 66.5971 43.9774 67.4617 47.2977 67.4617C50.618 67.4617 52.3543 66.5971 53.8862 65.8344C55.0524 65.2537 56.0041 64.7803 57.7906 64.6724C58.0411 64.6574 58.3079 64.6492 58.5944 64.6492C59.8637 64.6492 60.7521 64.8054 61.514 65.0542C62.1497 65.2616 62.6977 65.5333 63.3024 65.8344C64.8343 66.5971 66.5706 67.4617 69.8909 67.4617C71.0559 67.4617 72.0003 66.5173 72.0003 65.3523C72.0003 64.1874 71.0556 63.2427 69.8906 63.2427ZM16.4986 42.336L35.4668 37.3798C35.8164 37.2885 36.1837 37.2885 36.5333 37.3798L55.5015 42.336C56.6286 42.6304 57.3036 43.783 57.0091 44.9101C56.7613 45.8585 55.906 46.4868 54.9698 46.4868C54.7933 46.4868 54.6138 46.4644 54.4351 46.4177L36 41.6009L17.5651 46.4177C16.4379 46.7122 15.2854 46.0372 14.9909 44.9101C14.6964 43.783 15.3714 42.6304 16.4986 42.336Z" fill="#FA6444"/>
</g>
<defs>
<clipPath id="clip0_192_2298">
<rect width="72" height="72" fill="white"/>
</clipPath>
</defs>
</svg>
