<svg width="72" height="72" viewBox="0 0 72 72" fill="none" xmlns="http://www.w3.org/2000/svg">
<path d="M18.0585 48.1677C15.0726 48.1677 12.6454 50.595 12.6454 53.5808C12.6454 56.5666 15.0726 58.9939 18.0585 58.9939C21.0443 58.9939 23.4715 56.5666 23.4715 53.5808C23.4715 50.595 21.0443 48.1677 18.0585 48.1677Z" fill="#FA6444"/>
<path d="M66.8147 44.5654L66.8147 28.1301C66.8147 27.6848 66.6345 27.2544 66.3196 26.9396C62.5646 23.1859 60.2365 20.8735 56.4647 17.0867C56.1496 16.7704 55.7183 16.5892 55.2719 16.5892L43.2003 16.5892C42.2731 16.5892 41.5215 17.3408 41.5215 18.268V38.8616C41.5215 40.0116 40.5892 40.9439 39.4392 40.9439C38.2892 40.9439 37.3569 40.0116 37.3569 38.8616V14.6849C37.3569 13.7577 36.6053 13.0061 35.6781 13.0061H3.47878C2.55161 13.0061 1.79999 13.7577 1.79999 14.6849V50.0719C1.79999 50.9991 2.55161 51.7507 3.47878 51.7507H9.19718C10.0256 47.6283 13.6856 44.5268 18.0392 44.5268C21.9674 44.5268 25.3311 47.0519 26.5593 50.5737C26.8009 51.2665 27.4267 51.7507 28.1604 51.7507H44.018C44.7517 51.7507 45.3775 51.2665 45.6191 50.5737C46.8473 47.0519 50.211 44.5268 54.1392 44.5268C58.0674 44.5268 61.4311 47.0519 62.6593 50.5737C62.9009 51.2665 63.5267 51.7507 64.2604 51.7507L68.5212 51.7507C69.4484 51.7507 70.2 50.9991 70.2 50.0719V46.2442C70.2 45.317 69.4484 44.5654 68.5212 44.5654L66.8147 44.5654ZM46.4654 32.2397V23.0518C46.4654 22.2343 47.1282 21.5715 47.9457 21.5715H53.8329C54.2479 21.5715 54.6438 21.7457 54.9242 22.0517L62.2225 30.0153C62.4727 30.2883 62.6115 30.6451 62.6115 31.0154V32.2397C62.6115 33.0572 61.9487 33.72 61.1312 33.72H47.9457C47.1282 33.72 46.4654 33.0572 46.4654 32.2397Z" fill="#FA6444"/>
<path d="M54.1778 48.1677C51.1918 48.1677 48.7647 50.595 48.7647 53.5808C48.7647 56.5666 51.1918 58.9939 54.1778 58.9939C57.1637 58.9939 59.5908 56.5666 59.5908 53.5808C59.5908 50.595 57.1637 48.1677 54.1778 48.1677Z" fill="#FA6444"/>
</svg>
