<svg width="40" height="40" viewBox="0 0 40 40" fill="none" xmlns="http://www.w3.org/2000/svg">
<path fill-rule="evenodd" clip-rule="evenodd" d="M32.9178 28.9226V30.4765C32.9177 30.5032 32.9248 30.5294 32.9383 30.5524C32.9517 30.5754 32.9711 30.5943 32.9944 30.6073C33.0176 30.6203 33.044 30.6268 33.0706 30.6262C33.0972 30.6256 33.1232 30.6179 33.1459 30.6038C33.3017 30.5076 33.4006 30.4226 33.5824 30.4226V30.4235C33.8887 30.4235 33.9933 30.6954 34.1592 30.6032C34.1827 30.5905 34.2023 30.5716 34.2159 30.5486C34.2294 30.5255 34.2364 30.4992 34.236 30.4725V28.9226C34.2359 28.8829 34.2202 28.8449 34.1921 28.8169C34.1641 28.7889 34.1261 28.7731 34.0865 28.773H33.0673C33.0277 28.7731 32.9897 28.7889 32.9617 28.8169C32.9336 28.8449 32.9179 28.8829 32.9178 28.9226ZM23.1698 28.9226V30.4765C23.1697 30.5032 23.1768 30.5294 23.1903 30.5524C23.2037 30.5754 23.2231 30.5943 23.2464 30.6073C23.2697 30.6203 23.296 30.6268 23.3226 30.6262C23.3493 30.6256 23.3753 30.6179 23.3979 30.6038C23.5537 30.5076 23.6525 30.4226 23.8344 30.4226V30.4235C24.1407 30.4235 24.2452 30.6954 24.4112 30.6032C24.4347 30.5905 24.4543 30.5716 24.4679 30.5486C24.4814 30.5256 24.4884 30.4993 24.4881 30.4726V28.9226C24.488 28.883 24.4722 28.845 24.4442 28.817C24.4162 28.7889 24.3782 28.7732 24.3385 28.7731H23.3193C23.2797 28.7732 23.2417 28.7889 23.2136 28.817C23.1856 28.845 23.1698 28.8829 23.1698 28.9226ZM25.4841 28.9226C25.4841 28.8829 25.4999 28.8449 25.5279 28.8169C25.556 28.7889 25.594 28.7731 25.6336 28.773H28.0555C28.0951 28.7731 28.1331 28.7889 28.1611 28.8169C28.1891 28.8449 28.2049 28.8829 28.2049 28.9226V37.3757C28.2049 37.4153 28.1891 37.4533 28.1611 37.4813C28.1331 37.5093 28.0951 37.5251 28.0555 37.5252H19.6287C19.6093 37.5249 19.59 37.5286 19.572 37.5359C19.5541 37.5432 19.5378 37.5541 19.5241 37.5679C19.2506 37.8354 18.9724 38.097 18.6928 38.2397C17.8611 38.664 17.0196 39.0931 16.098 39.1097C14.345 39.1409 12.6947 37.6199 11.2561 37.6199C9.8211 37.6199 8.2929 39.1405 6.73548 39.1405C5.15603 39.1406 3.87985 37.6004 2.48931 37.4468C2.42442 37.4396 2.36159 37.4197 2.30439 37.3882C2.24719 37.3568 2.19675 37.3143 2.15594 37.2634C2.07354 37.1605 2.03539 37.029 2.04989 36.898C2.0644 36.7669 2.13036 36.647 2.23328 36.5646C2.3362 36.4822 2.46764 36.4441 2.59868 36.4586C4.24587 36.6406 5.52939 38.1441 6.73548 38.1441C7.96376 38.1441 9.52673 36.6236 11.2561 36.6236C12.9842 36.6236 14.6438 38.1432 16.0825 38.1172C17.085 38.0992 18.297 37.2529 19.3595 36.8226C19.3873 36.8118 19.4112 36.7927 19.428 36.768C19.4447 36.7432 19.4535 36.7139 19.4532 36.684V36.2354C19.4533 36.2101 19.4469 36.1851 19.4347 36.163C19.4225 36.1408 19.4049 36.1221 19.3834 36.1086C19.362 36.0951 19.3375 36.0873 19.3123 36.0859C19.287 36.0845 19.2618 36.0895 19.239 36.1005C18.2327 36.5831 17.2328 37.2233 16.0984 37.2437C14.3454 37.275 12.6951 35.754 11.2565 35.754C9.8215 35.754 8.29329 37.2745 6.73587 37.2745C5.15634 37.2745 3.88025 35.7347 2.4897 35.5811C2.35865 35.5666 2.23874 35.5007 2.15633 35.3978C2.07393 35.2948 2.03578 35.1634 2.05028 35.0324C2.06479 34.9013 2.13076 34.7814 2.23367 34.699C2.33659 34.6166 2.46803 34.5784 2.59907 34.5929C4.24665 34.7748 5.53017 36.2785 6.73626 36.2785C7.96454 36.2785 9.52751 34.7579 11.2569 34.7579C12.985 34.7579 14.6445 36.2775 16.0833 36.2515C17.0858 36.2335 18.2978 35.3872 19.3602 34.957C19.3881 34.9462 19.412 34.9271 19.4288 34.9023C19.4455 34.8776 19.4543 34.8483 19.454 34.8184V28.9226C19.4541 28.883 19.4698 28.845 19.4979 28.817C19.5259 28.7889 19.5639 28.7732 19.6035 28.7731H22.0254C22.065 28.7732 22.103 28.7889 22.1311 28.817C22.1591 28.845 22.1749 28.883 22.1749 28.9226V31.6353H22.1767C22.177 31.7235 22.2007 31.8101 22.2455 31.8862C22.2903 31.9622 22.3545 32.0249 22.4316 32.0679C22.5087 32.1109 22.5958 32.1325 22.6841 32.1306C22.7723 32.1287 22.8584 32.1034 22.9336 32.0572L23.7524 31.5513C23.776 31.5363 23.8033 31.5284 23.8312 31.5284C23.8591 31.5284 23.8864 31.5363 23.9099 31.5513L24.6986 32.0408C25.0863 32.2797 25.4852 32.0065 25.4852 31.6346V28.9226L25.4841 28.9226ZM34.0865 19.0251H33.0673C33.0276 19.0251 32.9897 19.0409 32.9616 19.0689C32.9336 19.097 32.9179 19.135 32.9178 19.1746V20.7283C32.9178 20.755 32.9248 20.7812 32.9383 20.8041C32.9518 20.8271 32.9711 20.8461 32.9944 20.8591C33.0177 20.8721 33.044 20.8786 33.0706 20.8779C33.0973 20.8773 33.1232 20.8696 33.1459 20.8555C33.3016 20.7593 33.4007 20.6744 33.5824 20.6744V20.6753C33.8888 20.6753 33.9933 20.9471 34.1592 20.855C34.1827 20.8423 34.2023 20.8235 34.2159 20.8004C34.2294 20.7774 34.2364 20.7511 34.236 20.7243V19.1746C34.236 19.1349 34.2202 19.0969 34.1922 19.0689C34.1641 19.0409 34.1261 19.0251 34.0865 19.0251ZM34.3394 31.9754L34.4454 32.0412C34.8331 32.2801 35.232 32.0069 35.232 31.635V28.9226C35.2321 28.8829 35.2479 28.8449 35.2759 28.8169C35.304 28.7889 35.3419 28.7731 35.3816 28.773H37.8034C37.8431 28.7731 37.8811 28.7889 37.9091 28.8169C37.9371 28.8449 37.9529 28.8829 37.953 28.9226V37.3757C37.9529 37.4153 37.9371 37.4533 37.9091 37.4813C37.8811 37.5094 37.8431 37.5251 37.8034 37.5252H29.3503C29.3107 37.5251 29.2727 37.5094 29.2447 37.4813C29.2166 37.4533 29.2009 37.4153 29.2008 37.3757V28.9226C29.2009 28.8829 29.2166 28.8449 29.2447 28.8169C29.2727 28.7889 29.3107 28.7731 29.3503 28.773H31.7722C31.8118 28.7731 31.8498 28.7889 31.8779 28.8169C31.9059 28.8449 31.9217 28.8829 31.9217 28.9226V31.6353H31.9236C31.9238 31.7235 31.9475 31.8101 31.9923 31.8862C32.0371 31.9622 32.1013 32.0249 32.1784 32.0679C32.2555 32.1109 32.3426 32.1325 32.4309 32.1306C32.5191 32.1288 32.6052 32.1034 32.6804 32.0572L33.4993 31.5513C33.5228 31.5363 33.5501 31.5284 33.578 31.5284C33.6059 31.5284 33.6332 31.5363 33.6567 31.5513L34.3394 31.9751V31.9754ZM33.2309 17.8794C33.2308 17.9191 33.215 17.9571 33.187 17.9851C33.159 18.0131 33.121 18.0289 33.0813 18.029H28.7029C28.6317 18.029 28.5987 18.049 28.5428 18.0265L20.9932 14.9765C20.9183 14.9387 20.8349 14.9207 20.751 14.9242V14.9254C20.6877 14.9253 20.625 14.9375 20.5663 14.9611L8.47696 19.8397C8.45428 19.8489 8.42966 19.8524 8.40529 19.8499C8.38092 19.8474 8.35755 19.8389 8.33724 19.8252C8.31692 19.8115 8.3003 19.793 8.28883 19.7714C8.27737 19.7497 8.27141 19.7256 8.2715 19.7011V9.36388C8.27256 9.11434 8.37216 8.87532 8.54861 8.69886C8.72506 8.5224 8.96406 8.42278 9.2136 8.42169H32.2888C32.5384 8.42276 32.7774 8.52237 32.9539 8.69884C33.1304 8.8753 33.23 9.11433 33.231 9.36388V17.8795L33.2309 17.8794ZM7.9897 21.108L4.71071 22.4308C4.67577 22.4449 4.64742 22.4716 4.63137 22.5057C4.61532 22.5398 4.61274 22.5787 4.62415 22.6146L5.40954 25.1001C5.41557 25.1194 5.42546 25.1372 5.43861 25.1526C5.45177 25.168 5.46791 25.1805 5.48605 25.1894C5.5042 25.1983 5.52397 25.2035 5.54417 25.2045C5.56436 25.2055 5.58456 25.2025 5.60353 25.1954L20.582 19.7187C20.6362 19.699 20.6935 19.6889 20.7512 19.6889V19.6875L20.9882 19.7365L28.0038 22.3044C28.0264 22.3128 28.0507 22.3155 28.0746 22.3125C28.0986 22.3094 28.1214 22.3005 28.1411 22.2867C28.1608 22.2729 28.1769 22.2545 28.188 22.2331C28.1991 22.2117 28.2048 22.1879 28.2047 22.1638V19.0625C28.205 19.0326 28.1962 19.0033 28.1795 18.9785C28.1627 18.9537 28.1388 18.9346 28.1109 18.9238L20.8166 15.9765C20.7989 15.9691 20.7798 15.9652 20.7606 15.9652C20.7414 15.9652 20.7223 15.9691 20.7046 15.9765L7.99868 21.104C7.99548 21.1053 7.99282 21.1065 7.9897 21.108ZM27.7967 7.27615V5.32466C27.7961 5.23493 27.7602 5.14903 27.6967 5.08557C27.6333 5.02211 27.5474 4.98619 27.4577 4.9856H14.0452C13.9554 4.98617 13.8695 5.02208 13.806 5.08554C13.7425 5.149 13.7066 5.23491 13.706 5.32466V7.27615C13.7061 7.31578 13.7219 7.35377 13.7499 7.38179C13.7779 7.40982 13.8159 7.4256 13.8556 7.42568H27.6467C27.6864 7.42562 27.7244 7.40984 27.7524 7.38181C27.7804 7.35378 27.7962 7.31579 27.7963 7.27615H27.7967ZM21.7819 3.84005V1.00927C21.7818 0.969633 21.766 0.931635 21.738 0.903606C21.71 0.875577 21.672 0.859803 21.6324 0.859741H19.87C19.8304 0.859824 19.7924 0.875604 19.7644 0.903629C19.7363 0.931654 19.7206 0.96964 19.7205 1.00927V3.84005C19.7206 3.87969 19.7363 3.91767 19.7644 3.9457C19.7924 3.97372 19.8304 3.9895 19.87 3.98958H21.6326C21.6722 3.98952 21.7102 3.97375 21.7383 3.94572C21.7663 3.91769 21.7821 3.87969 21.7821 3.84005H21.7819ZM14.6767 11.4269H10.8656C10.8259 11.427 10.7879 11.4428 10.7599 11.4708C10.7319 11.4988 10.7161 11.5368 10.716 11.5765V13.2452C10.7161 13.2848 10.7319 13.3228 10.7599 13.3509C10.7879 13.3789 10.8259 13.3947 10.8656 13.3947H14.6767C14.7164 13.3947 14.7543 13.3789 14.7824 13.3509C14.8104 13.3228 14.8262 13.2848 14.8263 13.2452V11.5765C14.8262 11.5368 14.8104 11.4988 14.7824 11.4708C14.7543 11.4428 14.7164 11.427 14.6767 11.4269ZM10.5049 10.4309C10.4018 10.4309 10.2998 10.4512 10.2046 10.4907C10.1094 10.5302 10.0229 10.5881 9.95017 10.6611L9.95118 10.662C9.87818 10.7346 9.8202 10.8209 9.78055 10.9159C9.7409 11.0109 9.72035 11.1128 9.72009 11.2158V13.6059C9.72038 13.8139 9.80314 14.0134 9.95024 14.1605C10.0973 14.3075 10.2968 14.3903 10.5048 14.3906H15.0375C15.2456 14.3903 15.445 14.3076 15.5922 14.1604C15.7393 14.0133 15.822 13.8138 15.8223 13.6058V11.2158C15.822 11.0077 15.7393 10.8082 15.5922 10.6611C15.445 10.514 15.2456 10.4312 15.0375 10.4309H10.5049ZM22.6568 11.4269H18.8456C18.8059 11.427 18.7679 11.4428 18.7399 11.4708C18.7119 11.4988 18.6961 11.5368 18.696 11.5765V13.2452C18.6961 13.2848 18.7119 13.3228 18.7399 13.3509C18.7679 13.3789 18.8059 13.3947 18.8456 13.3947H22.6568C22.6964 13.3947 22.7344 13.3789 22.7625 13.3509C22.7905 13.3228 22.8063 13.2848 22.8063 13.2452V11.5765C22.8063 11.5368 22.7905 11.4988 22.7625 11.4708C22.7344 11.4428 22.6964 11.427 22.6568 11.4269ZM18.4849 10.4309C18.3819 10.4309 18.2798 10.4512 18.1846 10.4907C18.0894 10.5302 18.003 10.5881 17.9302 10.6611L17.9313 10.662C17.8582 10.7346 17.8003 10.8209 17.7606 10.9159C17.7209 11.0109 17.7004 11.1128 17.7001 11.2158V13.6059C17.7004 13.8139 17.7832 14.0134 17.9303 14.1605C18.0774 14.3076 18.2768 14.3903 18.4849 14.3906H23.0175C23.2253 14.3895 23.4243 14.3064 23.5713 14.1595C23.7182 14.0126 23.8012 13.8136 23.8024 13.6058V11.2158C23.8021 11.0077 23.7193 10.8082 23.5722 10.6611C23.4251 10.5139 23.2256 10.4312 23.0175 10.4309H18.4849ZM30.6369 11.4269H26.8256C26.786 11.427 26.748 11.4428 26.72 11.4708C26.692 11.4988 26.6762 11.5368 26.6761 11.5765V13.2452C26.6762 13.2848 26.692 13.3228 26.72 13.3509C26.748 13.3789 26.786 13.3947 26.8256 13.3947H30.6368C30.6764 13.3947 30.7144 13.3789 30.7425 13.3509C30.7705 13.3228 30.7863 13.2848 30.7863 13.2452V11.5765C30.7863 11.5368 30.7705 11.4988 30.7425 11.4708C30.7144 11.4428 30.6764 11.427 30.6368 11.4269H30.6369ZM26.465 10.4309C26.2569 10.4312 26.0575 10.514 25.9104 10.6611C25.7633 10.8082 25.6805 11.0077 25.6802 11.2158V13.6059C25.6805 13.8139 25.7633 14.0133 25.9104 14.1604C26.0574 14.3075 26.2568 14.3903 26.4649 14.3906H30.9976C31.2054 14.3894 31.4043 14.3063 31.5512 14.1594C31.6981 14.0125 31.7812 13.8135 31.7824 13.6058V11.2158C31.7822 11.0077 31.6994 10.8082 31.5523 10.6611C31.4051 10.514 31.2057 10.4312 30.9976 10.4309H26.465ZM8.96931 35C8.95027 35.0096 8.92938 35.015 8.90805 35.0159C8.88673 35.0168 8.86547 35.0131 8.84571 35.005C8.82595 34.9969 8.80814 34.9847 8.79351 34.9692C8.77887 34.9537 8.76774 34.9352 8.76087 34.915L5.80446 26.3359C5.79175 26.2989 5.79405 26.2583 5.81087 26.223C5.8277 26.1876 5.85771 26.1603 5.89446 26.1468L20.7095 20.7295C20.7427 20.7169 20.7792 20.7169 20.8124 20.7295L28.1071 23.3995C28.1361 23.4098 28.1611 23.4289 28.1787 23.4541C28.1963 23.4793 28.2055 23.5094 28.2052 23.5401V27.6278C28.2051 27.6674 28.1893 27.7054 28.1613 27.7334C28.1333 27.7614 28.0953 27.7772 28.0557 27.7772H18.9549C18.8228 27.7773 18.6961 27.8297 18.6027 27.9231C18.5093 28.0165 18.4568 28.1432 18.4568 28.2753V34.849C18.4572 34.8767 18.4497 34.9039 18.4353 34.9275C18.4208 34.9511 18.4 34.9701 18.3752 34.9823C17.6702 35.3417 16.9596 35.6909 16.3031 35.7027C14.8644 35.7286 13.2049 34.2091 11.4768 34.2091C10.5862 34.2091 9.76454 34.6012 8.969 35.0001L8.96931 35ZM29.3505 27.7772C29.3108 27.7771 29.2728 27.7613 29.2448 27.7333C29.2168 27.7053 29.201 27.6673 29.2009 27.6276V19.1745C29.201 19.1349 29.2168 19.0969 29.2448 19.0688C29.2728 19.0408 29.3108 19.025 29.3505 19.025H31.7724C31.812 19.025 31.85 19.0408 31.878 19.0688C31.9061 19.0969 31.9218 19.1349 31.9219 19.1745V21.8872H31.9238C31.924 21.9754 31.9477 22.062 31.9925 22.138C32.0373 22.2141 32.1015 22.2768 32.1786 22.3198C32.2557 22.3628 32.3428 22.3844 32.431 22.3825C32.5193 22.3806 32.6054 22.3553 32.6806 22.309L33.4995 21.8032C33.523 21.7882 33.5503 21.7802 33.5782 21.7802C33.6061 21.7802 33.6334 21.7882 33.6569 21.8032L34.4456 22.2926C34.8334 22.5315 35.2322 22.2583 35.2322 21.8864V19.1746C35.2323 19.1349 35.248 19.0969 35.2761 19.0689C35.3041 19.0409 35.3421 19.0251 35.3817 19.0251H37.8036C37.8432 19.0251 37.8812 19.0409 37.9093 19.0689C37.9373 19.0969 37.9531 19.1349 37.9531 19.1746V27.6277C37.9531 27.6673 37.9373 27.7053 37.9093 27.7334C37.8812 27.7614 37.8432 27.7772 37.8036 27.7772L29.3505 27.7772Z" fill="white"/>
</svg>
