<svg width="40" height="40" viewBox="0 0 40 40" fill="none" xmlns="http://www.w3.org/2000/svg">
<path d="M9.02845 29.864L9.06845 29.8981C9.46236 30.2965 9.93162 30.6126 10.4489 30.8278C10.9662 31.043 11.5211 31.1532 12.0814 31.1518C13.124 31.1546 14.1314 30.7713 14.9083 30.0758L15.1025 29.8981C15.3846 29.6132 15.7205 29.3871 16.0907 29.233C16.4609 29.0789 16.8581 28.9999 17.259 29.0005H17.2626C17.6651 28.9997 18.0638 29.0787 18.4356 29.2329C18.8074 29.3872 19.1449 29.6137 19.4285 29.8993L19.5203 29.9911C20.3199 30.789 21.4034 31.2371 22.533 31.2371C23.6625 31.2371 24.746 30.789 25.5456 29.9911L25.6963 29.8404C26.2697 29.2683 27.0466 28.947 27.8566 28.947C28.6666 28.947 29.4436 29.2683 30.017 29.8404L30.1229 29.9464C30.826 30.6463 31.7506 31.0799 32.7384 31.1728C33.7261 31.2657 34.7154 31.0121 35.5366 30.4555L34.8574 29.4596C34.2681 29.8585 33.5584 30.0401 32.8499 29.9732C32.1414 29.9063 31.4782 29.5951 30.974 29.0929L30.8692 28.9882C30.07 28.1896 28.9864 27.741 27.8566 27.741C26.7268 27.741 25.6432 28.1896 24.844 28.9882L24.6933 29.1388C24.1201 29.7113 23.3431 30.0329 22.533 30.0329C21.7228 30.0329 20.9458 29.7113 20.3726 29.1388L20.2808 29.047C19.8855 28.6491 19.4152 28.3335 18.8971 28.1187C18.379 27.9038 17.8235 27.7938 17.2626 27.7951H17.2579C16.2167 27.7933 15.2116 28.1763 14.4357 28.8705L14.2414 29.0482C13.9563 29.3349 13.6169 29.562 13.2431 29.7162C12.8693 29.8704 12.4685 29.9486 12.0641 29.9463C11.6598 29.944 11.2599 29.8612 10.8879 29.7028C10.5158 29.5444 10.1791 29.3134 9.89718 29.0235L9.85602 28.9882C9.15677 28.2896 8.23639 27.8558 7.25249 27.7612C6.2686 27.6666 5.28243 27.9171 4.46289 28.4696L5.13857 29.4679C5.7315 29.0702 6.44469 28.8922 7.15493 28.9645C7.86517 29.0368 8.52784 29.355 9.02845 29.864Z" fill="white"/>
<path d="M34.8565 35.0993C34.268 35.5003 33.5579 35.6829 32.8489 35.6156C32.14 35.5483 31.4769 35.2354 30.9743 34.7309L30.8695 34.6261C30.0703 33.8275 28.9867 33.3789 27.8569 33.3789C26.7271 33.3789 25.6435 33.8275 24.8443 34.6261L24.6936 34.7768C24.1204 35.3493 23.3434 35.6708 22.5333 35.6708C21.7231 35.6708 20.9461 35.3493 20.3729 34.7768L20.2799 34.6838C19.4773 33.8862 18.3913 33.4391 17.2598 33.4406C16.1283 33.442 15.0435 33.8918 14.2429 34.6914C13.6694 35.2642 12.8919 35.5858 12.0813 35.5855C11.2707 35.5852 10.4935 35.2629 9.92041 34.6897L9.85629 34.6261C9.15691 33.9266 8.23547 33.493 7.25072 33.3998C6.26597 33.3067 5.27956 33.5599 4.46143 34.1158L5.14064 35.1117C5.7271 34.7137 6.43401 34.5328 7.13956 34.6C7.8451 34.6673 8.50509 34.9785 9.00581 35.4801L9.06996 35.5437C9.46623 35.9397 9.93668 36.2536 10.4544 36.4676C10.9721 36.6816 11.5269 36.7915 12.0872 36.7909C12.6474 36.7903 13.2019 36.6792 13.7192 36.4641C14.2365 36.249 14.7062 35.934 15.1017 35.5372C15.6766 34.9655 16.4545 34.6446 17.2653 34.6446C18.0761 34.6446 18.8539 34.9655 19.4289 35.5372L19.5207 35.629C20.3203 36.4269 21.4037 36.875 22.5333 36.875C23.6629 36.875 24.7463 36.4269 25.5459 35.629L25.6966 35.4784C26.27 34.9062 27.0469 34.5849 27.8569 34.5849C28.667 34.5849 29.4439 34.9062 30.0173 35.4784L30.1221 35.5831C30.8235 36.2869 31.7491 36.7231 32.7383 36.8161C33.7276 36.9092 34.7183 36.6534 35.5387 36.0928L34.8565 35.0993Z" fill="white"/>
<path d="M13.4597 28.5349C13.5101 28.4976 13.5566 28.4551 13.5983 28.4083L14.0443 27.9683H14.1106C14.2111 27.8886 14.3157 27.8142 14.424 27.7453C15.2621 27.1845 16.2484 26.8866 17.2567 26.8895H17.2628C17.9993 26.8868 18.7274 27.0452 19.3963 27.3536V13.7205L8.48742 16.282L8.42712 16.6858C8.4151 16.7641 7.40856 24.0869 13.4597 28.5349Z" fill="white"/>
<path d="M20.6021 14.9621V28.1189C20.7105 28.2094 20.819 28.3058 20.9215 28.4083L21.0119 28.4986C21.4161 28.901 21.9633 29.127 22.5337 29.127C23.1041 29.127 23.6513 28.901 24.0555 28.4986L24.2062 28.348C24.849 27.7001 25.6548 27.2378 26.5386 27.01C26.9684 26.8908 27.4126 26.832 27.8585 26.8352C28.0356 26.8341 28.2127 26.8421 28.3889 26.8594C32.3607 22.4656 31.5832 16.7641 31.5712 16.6858L31.5109 16.2819L20.6021 13.7205V14.9621ZM24.5739 23.3999H24.2845C23.6836 23.3995 23.1074 23.1607 22.6825 22.7358C22.2576 22.3108 22.0187 21.7346 22.0184 21.1337H23.2238C23.2237 21.3332 23.2803 21.5287 23.387 21.6972C23.4937 21.8658 23.6461 22.0006 23.8265 22.0859V19.6751C23.5665 19.5402 23.3594 19.3218 23.2383 19.0551C23.1172 18.7884 23.0891 18.4887 23.1586 18.2042C23.2281 17.9196 23.391 17.6666 23.6214 17.4857C23.8518 17.3048 24.1362 17.2065 24.4292 17.2065C24.7221 17.2065 25.0065 17.3048 25.2369 17.4857C25.4673 17.6666 25.6303 17.9196 25.6997 18.2042C25.7692 18.4887 25.7411 18.7884 25.62 19.0551C25.4989 19.3218 25.2918 19.5402 25.0319 19.6751V22.0859C25.2122 22.0006 25.3646 21.8658 25.4713 21.6972C25.5781 21.5287 25.6347 21.3332 25.6346 21.1337H26.84C26.8386 21.7343 26.5994 22.3099 26.1747 22.7346C25.7501 23.1593 25.1745 23.3985 24.5739 23.3999Z" fill="white"/>
<path d="M19.9994 12.6538L28.6481 14.6788L29.8531 14.9619V9.74878H10.145V14.9619L11.3506 14.6788L19.9994 12.6538Z" fill="white"/>
<path d="M22.0479 8.84438H23.2535V3.125H16.7441V8.84438H17.9498H22.0479Z" fill="white"/>
</svg>
