<svg width="40" height="40" viewBox="0 0 40 40" fill="none" xmlns="http://www.w3.org/2000/svg">
<path d="M36.9656 35.1356L36.6988 35.3018C35.1446 36.2817 33.797 36.2888 32.2412 35.3014C28.7555 33.0547 26.3478 35.2441 25.3994 35.7038C24.5162 36.1318 23.2106 36.131 22.3289 35.7046C21.3678 35.2372 20.6257 34.323 18.5583 34.323C16.497 34.323 15.77 35.2413 14.7943 35.7082C13.8897 36.1605 12.4716 36.2276 11.0178 35.2933C10.3065 34.8386 9.50096 34.323 7.95467 34.323C6.33128 34.323 5.64948 34.8714 4.8879 35.297C4.24816 35.7016 3.74329 36.0211 2.64144 36.0211C2.22428 36.0211 1.88672 36.359 1.88672 36.7758C1.88672 37.1926 2.22428 37.5305 2.64144 37.5305C4.18109 37.5305 4.98519 37.0213 5.69494 36.572C6.2619 36.2413 6.72969 35.8324 7.95467 35.8324C9.05948 35.8324 9.56434 36.1556 10.2041 36.565C12.145 37.8062 14.0748 37.7565 15.4576 37.064C16.5888 36.5237 16.98 35.8324 18.5583 35.8324C20.1448 35.8324 20.5293 36.5078 21.6708 37.0629C22.9731 37.6923 24.7579 37.691 26.0576 37.0622C27.5087 36.3582 28.8752 34.9274 31.4674 36.5982C33.549 37.9183 35.5472 37.8126 37.5036 36.5787L37.7513 36.4239C38.1072 36.2072 38.22 35.7425 38.0026 35.3869C37.7852 35.0305 37.3201 34.9182 36.9656 35.1356Z" fill="white"/>
<path d="M13.8376 3.43154C13.8376 3.0844 13.5508 2.79761 13.2036 2.79761H10.8036C10.4565 2.79761 10.1772 3.0844 10.1772 3.43154V8.79006H13.8376V3.43154Z" fill="white"/>
<path d="M20.0339 3.43154C20.0339 3.0844 19.7471 2.79761 19.4 2.79761H17C16.6528 2.79761 16.3735 3.0844 16.3735 3.43154V8.79006H20.0339V3.43154Z" fill="white"/>
<path d="M6.72656 25.3055V23.6594C6.72656 23.2426 7.06412 22.9046 7.48127 22.9046C7.89843 22.9046 8.23599 23.2426 8.23599 23.6594V25.3055H10.3174V23.6594C10.3174 23.2426 10.6549 22.9046 11.0721 22.9046C11.4892 22.9046 11.8268 23.2426 11.8268 23.6594V25.3055H13.9082V23.6594C13.9082 23.2426 14.2457 22.9046 14.6629 22.9046C15.08 22.9046 15.4176 23.2426 15.4176 23.6594V25.3055H17.499V23.6594C17.499 23.2426 17.8365 22.9046 18.2537 22.9046C18.6708 22.9046 19.0084 23.2426 19.0084 23.6594V25.3055H21.0898V23.6594C21.0898 23.2426 21.4273 22.9046 21.8445 22.9046C22.2616 22.9046 22.5992 23.2426 22.5992 23.6594V25.3055H24.6806V23.6594C24.6806 23.2426 25.0181 22.9046 25.4353 22.9046C25.8524 22.9046 26.19 23.2426 26.19 23.6594V25.3055H28.2714V23.6594C28.2714 23.2426 28.6089 22.9046 29.0261 22.9046C29.4432 22.9046 29.7808 23.2426 29.7808 23.6594V25.3055H33.6645L35.7999 18.1581C35.9445 17.6741 35.582 17.1874 35.0768 17.1874H27.1865L22.5385 10.6184C22.3971 10.4184 22.1673 10.2996 21.9224 10.2996H6.30544C5.8886 10.2996 5.55072 10.6374 5.55072 11.0543V17.1874H3.68323C3.2066 17.1874 2.84933 17.6236 2.9433 18.0909L4.39405 25.3055H6.72656ZM19.5494 12.7333H21.6042C22.0214 12.7333 22.3589 13.0712 22.3589 13.488C22.3589 13.9048 22.0214 14.2427 21.6042 14.2427H19.5494C19.1322 14.2427 18.7947 13.9048 18.7947 13.488C18.7947 13.0712 19.1322 12.7333 19.5494 12.7333ZM13.8345 12.7333H15.8893C16.3065 12.7333 16.644 13.0712 16.644 13.488C16.644 13.9048 16.3065 14.2427 15.8893 14.2427H13.8345C13.4173 14.2427 13.0797 13.9048 13.0797 13.488C13.0797 13.0712 13.4173 12.7333 13.8345 12.7333ZM8.1188 12.7333H10.1736C10.5908 12.7333 10.9284 13.0712 10.9284 13.488C10.9284 13.9048 10.5908 14.2427 10.1736 14.2427H8.1188C7.70164 14.2427 7.36409 13.9048 7.36409 13.488C7.36409 13.0712 7.70164 12.7333 8.1188 12.7333Z" fill="white"/>
<path d="M32.5746 16.3705C33.9397 14.4912 37.1285 9.8608 37.1285 7.61272C37.1285 4.75987 34.819 2.45044 31.9662 2.45044C29.1058 2.45044 26.7964 4.75987 26.7964 7.61272C26.7964 9.86098 29.9904 14.492 31.3573 16.3709C31.6583 16.7846 32.2739 16.7844 32.5746 16.3705ZM29.8379 7.43911C29.8379 6.26931 30.7889 5.31835 31.9662 5.31835C33.136 5.31835 34.087 6.26931 34.087 7.43911C34.087 8.61646 33.136 9.56742 31.9662 9.56742C30.7889 9.56742 29.8379 8.61646 29.8379 7.43911Z" fill="white"/>
<path d="M2.64144 32.8902C4.18109 32.8902 4.98519 32.3809 5.69494 31.9317C6.2619 31.6009 6.72969 31.1921 7.95467 31.1921C9.05948 31.1921 9.56434 31.5152 10.2041 31.9247C12.145 33.1658 14.0748 33.1161 15.4576 32.4236C16.5888 31.8833 16.98 31.1921 18.5583 31.1921C20.1448 31.1921 20.5293 31.8675 21.6708 32.4225C22.9731 33.0519 24.7579 33.0506 26.0576 32.4218C27.5087 31.7178 28.8752 30.2871 31.4674 31.9578C33.549 33.2779 35.5472 33.1723 37.5036 31.9383L37.7513 31.7835C38.1072 31.5668 38.22 31.1021 38.0026 30.7465C37.7852 30.3902 37.3201 30.2778 36.9656 30.4952L36.6988 30.6614C35.1446 31.6414 33.797 31.6485 32.2412 30.661C32.1901 30.628 32.1414 30.605 32.0906 30.5739L33.2137 26.8149H4.69779L5.40953 30.3543C5.232 30.4562 5.06161 30.5596 4.8879 30.6566C4.24816 31.0612 3.74329 31.3807 2.64144 31.3807C2.22428 31.3807 1.88672 31.7187 1.88672 32.1355C1.88672 32.5522 2.22428 32.8902 2.64144 32.8902Z" fill="white"/>
</svg>
